<?xml version="1.0" encoding="UTF-8"?>
<!DOCTYPE svg PUBLIC "-//W3C//DTD SVG 1.1//EN" "http://www.w3.org/Graphics/SVG/1.1/DTD/svg11.dtd">
<svg xmlns="http://www.w3.org/2000/svg" version="1.1" width="215px" height="215px" style="shape-rendering:geometricPrecision; text-rendering:geometricPrecision; image-rendering:optimizeQuality; fill-rule:evenodd; clip-rule:evenodd" xmlns:xlink="http://www.w3.org/1999/xlink">
<g><path style="opacity:1" fill="#34302d" d="M -0.5,-0.5 C 6.83333,-0.5 14.1667,-0.5 21.5,-0.5C 21.5,0.5 21.5,1.5 21.5,2.5C 78.5,2.5 135.5,2.5 192.5,2.5C 192.5,1.5 192.5,0.5 192.5,-0.5C 199.833,-0.5 207.167,-0.5 214.5,-0.5C 214.5,6.83333 214.5,14.1667 214.5,21.5C 213.5,21.5 212.5,21.5 211.5,21.5C 211.5,78.5 211.5,135.5 211.5,192.5C 212.5,192.5 213.5,192.5 214.5,192.5C 214.5,199.833 214.5,207.167 214.5,214.5C 207.167,214.5 199.833,214.5 192.5,214.5C 192.5,213.5 192.5,212.5 192.5,211.5C 135.5,211.5 78.5,211.5 21.5,211.5C 21.5,212.5 21.5,213.5 21.5,214.5C 14.1667,214.5 6.83333,214.5 -0.5,214.5C -0.5,207.167 -0.5,199.833 -0.5,192.5C 0.5,192.5 1.5,192.5 2.5,192.5C 2.5,135.5 2.5,78.5 2.5,21.5C 1.5,21.5 0.5,21.5 -0.5,21.5C -0.5,14.1667 -0.5,6.83333 -0.5,-0.5 Z"/></g>
<g><path style="opacity:1" fill="#aaa6a1" d="M 205.5,44.5 C 202.918,44.9746 200.918,44.3079 199.5,42.5C 200.601,41.4017 201.934,41.235 203.5,42C 204.623,43.0437 205.956,43.7104 207.5,44C 206.906,44.4643 206.239,44.631 205.5,44.5 Z"/></g>
<g><path style="opacity:1" fill="#100d08" d="M 205.5,31.5 C 203.782,32.224 201.948,32.8906 200,33.5C 199.217,35.4335 199.717,36.9335 201.5,38C 200.529,39.041 199.529,39.8743 198.5,40.5C 198.335,36.8183 198.501,33.1516 199,29.5C 200.754,31.25 202.921,31.9167 205.5,31.5 Z"/></g>
<g><path style="opacity:1" fill="#130e0b" d="M 15.5,40.5 C 14.4711,39.8743 13.4711,39.041 12.5,38C 14.1066,36.951 14.7733,35.451 14.5,33.5C 12.2143,33.405 10.2143,32.7384 8.5,31.5C 10.5,31.5 12.5,31.5 14.5,31.5C 15.6731,32.3003 16.0065,35.3003 15.5,40.5 Z"/></g>
<g><path style="opacity:1" fill="#521f18" d="M 60.5,21.5 C 61.5,21.5 62.5,21.5 63.5,21.5C 64.3764,21.3691 65.0431,21.7025 65.5,22.5C 63.9716,23.8613 62.3049,25.028 60.5,26C 65.5733,28.8231 70.9067,29.1565 76.5,27C 75.1667,26.6667 73.8333,26.3333 72.5,26C 73.3333,25.8333 74.1667,25.6667 75,25.5C 94.6442,26.6035 113.978,26.6035 133,25.5C 134.506,23.6718 136.173,23.3384 138,24.5C 138.388,23.572 139.055,22.9054 140,22.5C 141.923,24.2123 144.089,25.5456 146.5,26.5C 151.405,27.5936 156.405,27.5936 161.5,26.5C 166.862,28.7187 172.362,29.052 178,27.5C 178.833,27.6667 179.667,27.8333 180.5,28C 179.262,28.69 179.262,29.19 180.5,29.5C 179.626,30.5251 178.459,31.1918 177,31.5C 167.283,30.1374 157.45,29.4707 147.5,29.5C 142.721,29.3783 138.221,30.3783 134,32.5C 130.557,31.431 127.057,30.5976 123.5,30C 108.833,29.3333 94.1667,29.3333 79.5,30C 74.3391,30.7323 69.3391,31.5656 64.5,32.5C 60.8149,32.1953 57.3149,31.1953 54,29.5C 50.7495,30.5836 47.4161,31.2503 44,31.5C 38.8443,31.8656 33.6777,31.199 28.5,29.5C 28.4142,28.5041 28.7476,27.6708 29.5,27C 31,26.5 32.5,26 34,25.5C 39.7491,27.961 45.5825,28.1276 51.5,26C 50.5,25.6667 49.5,25.3333 48.5,25C 50.7008,24.1751 52.5341,24.6751 54,26.5C 54.3333,25.5 54.6667,24.5 55,23.5C 57.5283,24.9341 59.3617,24.2675 60.5,21.5 Z"/></g>
<g><path style="opacity:1" fill="#561b1c" d="M 60.5,21.5 C 59.3617,24.2675 57.5283,24.9341 55,23.5C 54.6667,24.5 54.3333,25.5 54,26.5C 52.5341,24.6751 50.7008,24.1751 48.5,25C 49.5,25.3333 50.5,25.6667 51.5,26C 45.5825,28.1276 39.7491,27.961 34,25.5C 32.5,26 31,26.5 29.5,27C 28.7476,27.6708 28.4142,28.5041 28.5,29.5C 27.0939,31.8381 25.7606,34.3381 24.5,37C 25.7201,38.5253 26.3868,40.3587 26.5,42.5C 26.197,47.0993 25.5303,51.5993 24.5,56C 25.0219,56.5613 25.3552,57.228 25.5,58C 24.4911,59.1681 23.4911,60.3348 22.5,61.5C 22.8333,62.5 23.5,63.1667 24.5,63.5C 25.662,69.8127 26.662,76.1461 27.5,82.5C 25.9076,105.042 26.2409,127.542 28.5,150C 26.9318,152.418 25.5985,154.585 24.5,156.5C 26.3531,160.105 25.3531,162.438 21.5,163.5C 20.3643,154.912 20.1977,146.245 21,137.5C 21.5,136.5 22,135.5 22.5,134.5C 20.7891,113.565 20.1224,92.5655 20.5,71.5C 20.5,71.1667 20.5,70.8333 20.5,70.5C 21.3143,55.1749 21.481,39.8416 21,24.5C 23.264,21.4801 26.0973,20.8135 29.5,22.5C 31.5355,20.9873 33.8688,20.3207 36.5,20.5C 44.63,21.567 52.63,21.9003 60.5,21.5 Z"/></g>
<g><path style="opacity:1" fill="#401917" d="M 21.5,19.5 C 78.3358,19.1677 135.002,19.501 191.5,20.5C 148.792,20.9291 106.125,21.2624 63.5,21.5C 62.5,21.5 61.5,21.5 60.5,21.5C 52.63,21.9003 44.63,21.567 36.5,20.5C 33.8688,20.3207 31.5355,20.9873 29.5,22.5C 26.0973,20.8135 23.264,21.4801 21,24.5C 21.481,39.8416 21.3143,55.1749 20.5,70.5C 19.0065,54.3016 18.6732,37.9683 19.5,21.5C 20.8333,21.5 21.5,20.8333 21.5,19.5 Z"/></g>
<g><path style="opacity:1" fill="#4e4a45" d="M 20.5,1.5 C 20.7148,3.17876 20.0481,4.17876 18.5,4.5C 13.6946,3.51283 8.69463,3.17949 3.5,3.5C 3.17949,8.69463 3.51283,13.6946 4.5,18.5C 9.16667,18.5 13.8333,18.5 18.5,18.5C 18.5,14.1667 18.5,9.83333 18.5,5.5C 20.4417,10.0557 21.1083,15.0557 20.5,20.5C 13.8333,20.5 7.16667,20.5 0.5,20.5C 0.5,17.5 0.5,14.5 0.5,11.5C 1.47944,8.37518 1.81277,5.04185 1.5,1.5C 7.83333,1.5 14.1667,1.5 20.5,1.5 Z"/></g>
<g><path style="opacity:1" fill="#4f4a47" d="M 206.5,0.5 C 208.833,0.5 211.167,0.5 213.5,0.5C 213.843,2.48324 213.176,3.81658 211.5,4.5C 206.695,3.51283 201.695,3.17949 196.5,3.5C 196.179,8.69463 196.513,13.6946 197.5,18.5C 202.167,18.5 206.833,18.5 211.5,18.5C 211.5,14.1667 211.5,9.83333 211.5,5.5C 213.442,10.0557 214.108,15.0557 213.5,20.5C 206.833,20.5 200.167,20.5 193.5,20.5C 193.5,18.8333 193.5,17.1667 193.5,15.5C 194.486,11.03 194.819,6.36329 194.5,1.5C 198.702,1.81675 202.702,1.48342 206.5,0.5 Z"/></g>
<g><path style="opacity:1" fill="#351f1c" d="M 21.5,16.5 C 78.5,16.5 135.5,16.5 192.5,16.5C 192.5,17.8333 192.5,19.1667 192.5,20.5C 192.167,20.5 191.833,20.5 191.5,20.5C 135.002,19.501 78.3358,19.1677 21.5,19.5C 21.5,18.5 21.5,17.5 21.5,16.5 Z"/></g>
<g><path style="opacity:1" fill="#bebab6" d="M 210.5,4.5 C 210.833,4.5 211.167,4.5 211.5,4.5C 211.5,4.83333 211.5,5.16667 211.5,5.5C 211.5,9.83333 211.5,14.1667 211.5,18.5C 206.833,18.5 202.167,18.5 197.5,18.5C 197.5,18.1667 197.5,17.8333 197.5,17.5C 201.833,17.5 206.167,17.5 210.5,17.5C 210.5,13.1667 210.5,8.83333 210.5,4.5 Z"/></g>
<g><path style="opacity:1" fill="#bebbb6" d="M 17.5,4.5 C 17.8333,4.5 18.1667,4.5 18.5,4.5C 18.5,4.83333 18.5,5.16667 18.5,5.5C 18.5,9.83333 18.5,14.1667 18.5,18.5C 13.8333,18.5 9.16667,18.5 4.5,18.5C 4.5,18.1667 4.5,17.8333 4.5,17.5C 8.83333,17.5 13.1667,17.5 17.5,17.5C 17.5,13.1667 17.5,8.83333 17.5,4.5 Z"/></g>
<g><path style="opacity:1" fill="#35312d" d="M 210.5,4.5 C 210.5,8.83333 210.5,13.1667 210.5,17.5C 206.167,17.5 201.833,17.5 197.5,17.5C 197.234,13.4295 197.567,9.42949 198.5,5.5C 202.445,4.50909 206.445,4.17575 210.5,4.5 Z"/></g>
<g><path style="opacity:1" fill="#948e8b" d="M 52.5,5.5 C 52.8333,5.5 53.1667,5.5 53.5,5.5C 54.0147,7.89449 54.6814,10.2278 55.5,12.5C 55.5,13.5 55.5,14.5 55.5,15.5C 58.5184,15.6646 61.5184,15.498 64.5,15C 62.75,13.2458 62.0833,11.0792 62.5,8.5C 62.3932,6.62143 62.8932,6.2881 64,7.5C 64.7348,9.8713 65.5682,12.2046 66.5,14.5C 70.122,15.6586 73.7887,15.8253 77.5,15C 75.6556,12.1963 74.9889,9.02967 75.5,5.5C 75.8333,5.5 76.1667,5.5 76.5,5.5C 77.2946,8.55042 78.2946,11.5504 79.5,14.5C 83.4589,15.6599 87.4589,15.8265 91.5,15C 89.5135,12.5301 89.0135,9.69674 90,6.5C 91.2126,8.92521 92.3793,11.2585 93.5,13.5C 96.6843,15.4136 100.351,16.0803 104.5,15.5C 105.167,15.5 105.833,15.5 106.5,15.5C 110.182,15.6653 113.848,15.4986 117.5,15C 115.75,13.2458 115.083,11.0792 115.5,8.5C 115.5,7.5 115.5,6.5 115.5,5.5C 115.833,5.5 116.167,5.5 116.5,5.5C 117.129,8.39733 118.129,11.064 119.5,13.5C 121.048,14.7943 123.048,15.4609 125.5,15.5C 127.5,15.3333 129.5,15.1667 131.5,15C 129.75,13.2458 129.083,11.0792 129.5,8.5C 129.369,7.76109 129.536,7.09442 130,6.5C 131.401,9.06674 132.568,11.7334 133.5,14.5C 136.962,15.4816 140.629,15.815 144.5,15.5C 145.167,15.5 145.833,15.5 146.5,15.5C 150.182,15.6653 153.848,15.4986 157.5,15C 155.75,13.2458 155.083,11.0792 155.5,8.5C 155.5,7.5 155.5,6.5 155.5,5.5C 155.833,5.5 156.167,5.5 156.5,5.5C 157.129,8.39733 158.129,11.064 159.5,13.5C 161.048,14.7943 163.048,15.4609 165.5,15.5C 167.5,15.3333 169.5,15.1667 171.5,15C 169.75,13.2458 169.083,11.0792 169.5,8.5C 169.369,7.76109 169.536,7.09442 170,6.5C 171.401,9.06674 172.568,11.7334 173.5,14.5C 176.976,15.6433 180.642,15.8099 184.5,15C 182.75,13.2458 182.083,11.0792 182.5,8.5C 182.393,6.62143 182.893,6.2881 184,7.5C 184.744,9.8997 185.577,12.233 186.5,14.5C 188.5,15.1667 190.5,15.8333 192.5,16.5C 135.5,16.5 78.5,16.5 21.5,16.5C 23.2922,15.6909 25.2922,15.1909 27.5,15C 25.75,13.2458 25.0833,11.0792 25.5,8.5C 25.369,7.76109 25.5357,7.09442 26,6.5C 27.4563,9.07561 28.623,11.7423 29.5,14.5C 33.3112,15.6453 37.3112,15.8119 41.5,15C 39.8078,13.5993 39.1412,11.7659 39.5,9.5C 39.3505,8.44802 39.5172,7.44802 40,6.5C 41.1657,9.1554 42.3324,11.8221 43.5,14.5C 46.9758,15.6433 50.6425,15.8099 54.5,15C 52.709,12.8938 52.0423,10.3938 52.5,7.5C 52.5,6.83333 52.5,6.16667 52.5,5.5 Z"/></g>
<g><path style="opacity:1" fill="#140f0c" d="M 182.5,8.5 C 182.083,11.0792 182.75,13.2458 184.5,15C 180.642,15.8099 176.976,15.6433 173.5,14.5C 175.074,14.0629 176.241,13.0629 177,11.5C 177.483,12.448 177.649,13.448 177.5,14.5C 178.675,14.719 179.675,14.3857 180.5,13.5C 181.028,11.6639 181.694,9.99721 182.5,8.5 Z"/></g>
<g><path style="opacity:1" fill="#140d0a" d="M 169.5,8.5 C 169.083,11.0792 169.75,13.2458 171.5,15C 169.5,15.1667 167.5,15.3333 165.5,15.5C 163.048,15.4609 161.048,14.7943 159.5,13.5C 162.054,14.388 164.721,14.7214 167.5,14.5C 167.259,12.1016 167.926,10.1016 169.5,8.5 Z"/></g>
<g><path style="opacity:1" fill="#140f0c" d="M 142.5,8.5 C 142.025,11.0821 142.692,13.0821 144.5,14.5C 144.5,14.8333 144.5,15.1667 144.5,15.5C 140.629,15.815 136.962,15.4816 133.5,14.5C 135.074,14.0629 136.241,13.0629 137,11.5C 137.483,12.448 137.649,13.448 137.5,14.5C 138.675,14.719 139.675,14.3857 140.5,13.5C 141.028,11.6639 141.694,9.99721 142.5,8.5 Z"/></g>
<g><path style="opacity:1" fill="#130e0a" d="M 129.5,8.5 C 129.083,11.0792 129.75,13.2458 131.5,15C 129.5,15.1667 127.5,15.3333 125.5,15.5C 123.048,15.4609 121.048,14.7943 119.5,13.5C 122.054,14.388 124.721,14.7214 127.5,14.5C 127.259,12.1016 127.926,10.1016 129.5,8.5 Z"/></g>
<g><path style="opacity:1" fill="#100f0a" d="M 39.5,9.5 C 39.1412,11.7659 39.8078,13.5993 41.5,15C 37.3112,15.8119 33.3112,15.6453 29.5,14.5C 32.2469,14.8134 34.9135,14.48 37.5,13.5C 37.9943,11.9745 38.661,10.6412 39.5,9.5 Z"/></g>
<g><path style="opacity:1" fill="#11100b" d="M 155.5,8.5 C 155.083,11.0792 155.75,13.2458 157.5,15C 153.848,15.4986 150.182,15.6653 146.5,15.5C 148.343,14.7171 150.343,14.0505 152.5,13.5C 153.696,11.8554 154.696,10.1887 155.5,8.5 Z"/></g>
<g><path style="opacity:1" fill="#120f0b" d="M 115.5,8.5 C 115.083,11.0792 115.75,13.2458 117.5,15C 113.848,15.4986 110.182,15.6653 106.5,15.5C 108.343,14.7171 110.343,14.0505 112.5,13.5C 113.696,11.8554 114.696,10.1887 115.5,8.5 Z"/></g>
<g><path style="opacity:1" fill="#36332e" d="M 17.5,4.5 C 17.5,8.83333 17.5,13.1667 17.5,17.5C 13.1667,17.5 8.83333,17.5 4.5,17.5C 4.5,13.1667 4.5,8.83333 4.5,4.5C 8.83333,4.5 13.1667,4.5 17.5,4.5 Z"/></g>
<g><path style="opacity:1" fill="#0c0a09" d="M 62.5,8.5 C 62.0833,11.0792 62.75,13.2458 64.5,15C 61.5184,15.498 58.5184,15.6646 55.5,15.5C 55.5,14.5 55.5,13.5 55.5,12.5C 56.8664,14.3505 58.533,14.6838 60.5,13.5C 61.0276,11.6639 61.6942,9.99721 62.5,8.5 Z"/></g>
<g><path style="opacity:1" fill="#433f39" d="M 156.5,5.5 C 168.5,5.5 180.5,5.5 192.5,5.5C 192.664,8.1873 192.497,10.854 192,13.5C 190.301,14.4061 188.467,14.7394 186.5,14.5C 185.577,12.233 184.744,9.8997 184,7.5C 182.893,6.2881 182.393,6.62143 182.5,8.5C 181.694,9.99721 181.028,11.6639 180.5,13.5C 179.675,14.3857 178.675,14.719 177.5,14.5C 177.649,13.448 177.483,12.448 177,11.5C 176.241,13.0629 175.074,14.0629 173.5,14.5C 172.568,11.7334 171.401,9.06674 170,6.5C 169.536,7.09442 169.369,7.76109 169.5,8.5C 167.926,10.1016 167.259,12.1016 167.5,14.5C 164.721,14.7214 162.054,14.388 159.5,13.5C 158.129,11.064 157.129,8.39733 156.5,5.5 Z"/></g>
<g><path style="opacity:1" fill="#3d3a36" d="M 53.5,5.5 C 60.8333,5.5 68.1667,5.5 75.5,5.5C 74.9889,9.02967 75.6556,12.1963 77.5,15C 73.7887,15.8253 70.122,15.6586 66.5,14.5C 65.5682,12.2046 64.7348,9.8713 64,7.5C 62.8932,6.2881 62.3932,6.62143 62.5,8.5C 61.6942,9.99721 61.0276,11.6639 60.5,13.5C 58.533,14.6838 56.8664,14.3505 55.5,12.5C 54.6814,10.2278 54.0147,7.89449 53.5,5.5 Z"/></g>
<g><path style="opacity:1" fill="#0f0d0b" d="M 52.5,7.5 C 52.0423,10.3938 52.709,12.8938 54.5,15C 50.6425,15.8099 46.9758,15.6433 43.5,14.5C 44.8589,13.9935 45.8589,12.9935 46.5,11.5C 47.2807,12.7366 48.2807,13.7366 49.5,14.5C 50.8692,12.2361 51.8692,9.90279 52.5,7.5 Z"/></g>
<g><path style="opacity:1" fill="#413d37" d="M 76.5,5.5 C 89.5,5.5 102.5,5.5 115.5,5.5C 115.5,6.5 115.5,7.5 115.5,8.5C 114.696,10.1887 113.696,11.8554 112.5,13.5C 110.343,14.0505 108.343,14.7171 106.5,15.5C 105.833,15.5 105.167,15.5 104.5,15.5C 104.5,15.1667 104.5,14.8333 104.5,14.5C 105.647,11.711 105.147,9.04436 103,6.5C 102.536,7.09442 102.369,7.76109 102.5,8.5C 101.694,9.99721 101.028,11.6639 100.5,13.5C 99.675,14.3857 98.675,14.719 97.5,14.5C 97.6495,13.448 97.4828,12.448 97,11.5C 96.1841,12.8228 95.0174,13.4894 93.5,13.5C 92.3793,11.2585 91.2126,8.92521 90,6.5C 89.0135,9.69674 89.5135,12.5301 91.5,15C 87.4589,15.8265 83.4589,15.6599 79.5,14.5C 78.2946,11.5504 77.2946,8.55042 76.5,5.5 Z"/></g>
<g><path style="opacity:1" fill="#130e0b" d="M 102.5,8.5 C 102.025,11.0821 102.692,13.0821 104.5,14.5C 104.5,14.8333 104.5,15.1667 104.5,15.5C 100.351,16.0803 96.6843,15.4136 93.5,13.5C 95.0174,13.4894 96.1841,12.8228 97,11.5C 97.4828,12.448 97.6495,13.448 97.5,14.5C 98.675,14.719 99.675,14.3857 100.5,13.5C 101.028,11.6639 101.694,9.99721 102.5,8.5 Z"/></g>
<g><path style="opacity:1" fill="#a19d98" d="M 104.5,14.5 C 102.692,13.0821 102.025,11.0821 102.5,8.5C 102.369,7.76109 102.536,7.09442 103,6.5C 105.147,9.04436 105.647,11.711 104.5,14.5 Z"/></g>
<g><path style="opacity:1" fill="#a3a09b" d="M 7.5,5.5 C 9.5,5.5 11.5,5.5 13.5,5.5C 12.8443,10.5003 10.1776,12.167 5.5,10.5C 6.45645,8.92464 7.12312,7.25797 7.5,5.5 Z"/></g>
<g><path style="opacity:1" fill="#93908b" d="M 200.5,5.5 C 202.527,5.33788 204.527,5.50454 206.5,6C 207.412,8.48818 206.412,10.1548 203.5,11C 201.866,11.4935 200.199,11.6602 198.5,11.5C 198.604,9.29719 199.27,7.29719 200.5,5.5 Z"/></g>
<g><path style="opacity:1" fill="#070401" d="M 211.5,4.5 C 211.167,4.5 210.833,4.5 210.5,4.5C 206.445,4.17575 202.445,4.50909 198.5,5.5C 197.567,9.42949 197.234,13.4295 197.5,17.5C 197.5,17.8333 197.5,18.1667 197.5,18.5C 196.513,13.6946 196.179,8.69463 196.5,3.5C 201.695,3.17949 206.695,3.51283 211.5,4.5 Z"/></g>
<g><path style="opacity:1" fill="#433f39" d="M 116.5,5.5 C 129.5,5.5 142.5,5.5 155.5,5.5C 155.5,6.5 155.5,7.5 155.5,8.5C 154.696,10.1887 153.696,11.8554 152.5,13.5C 150.343,14.0505 148.343,14.7171 146.5,15.5C 145.833,15.5 145.167,15.5 144.5,15.5C 144.5,15.1667 144.5,14.8333 144.5,14.5C 145.647,11.711 145.147,9.04436 143,6.5C 142.536,7.09442 142.369,7.76109 142.5,8.5C 141.694,9.99721 141.028,11.6639 140.5,13.5C 139.675,14.3857 138.675,14.719 137.5,14.5C 137.649,13.448 137.483,12.448 137,11.5C 136.241,13.0629 135.074,14.0629 133.5,14.5C 132.568,11.7334 131.401,9.06674 130,6.5C 129.536,7.09442 129.369,7.76109 129.5,8.5C 127.926,10.1016 127.259,12.1016 127.5,14.5C 124.721,14.7214 122.054,14.388 119.5,13.5C 118.129,11.064 117.129,8.39733 116.5,5.5 Z"/></g>
<g><path style="opacity:1" fill="#a19f99" d="M 144.5,14.5 C 142.692,13.0821 142.025,11.0821 142.5,8.5C 142.369,7.76109 142.536,7.09442 143,6.5C 145.147,9.04436 145.647,11.711 144.5,14.5 Z"/></g>
<g><path style="opacity:1" fill="#44403b" d="M 52.5,5.5 C 52.5,6.16667 52.5,6.83333 52.5,7.5C 51.8692,9.90279 50.8692,12.2361 49.5,14.5C 48.2807,13.7366 47.2807,12.7366 46.5,11.5C 45.8589,12.9935 44.8589,13.9935 43.5,14.5C 42.3324,11.8221 41.1657,9.1554 40,6.5C 39.5172,7.44802 39.3505,8.44802 39.5,9.5C 38.661,10.6412 37.9943,11.9745 37.5,13.5C 34.9135,14.48 32.2469,14.8134 29.5,14.5C 28.623,11.7423 27.4563,9.07561 26,6.5C 25.5357,7.09442 25.369,7.76109 25.5,8.5C 24.5176,10.4061 23.5176,12.4061 22.5,14.5C 21.5159,11.5719 21.1826,8.57186 21.5,5.5C 31.8333,5.5 42.1667,5.5 52.5,5.5 Z"/></g>
<g><path style="opacity:1" fill="#040100" d="M 18.5,4.5 C 18.1667,4.5 17.8333,4.5 17.5,4.5C 13.1667,4.5 8.83333,4.5 4.5,4.5C 4.5,8.83333 4.5,13.1667 4.5,17.5C 4.5,17.8333 4.5,18.1667 4.5,18.5C 3.51283,13.6946 3.17949,8.69463 3.5,3.5C 8.69463,3.17949 13.6946,3.51283 18.5,4.5 Z"/></g>
<g><path style="opacity:1" fill="#b8b5b0" d="M 206.5,0.5 C 202.702,1.48342 198.702,1.81675 194.5,1.5C 194.819,6.36329 194.486,11.03 193.5,15.5C 193.5,10.5 193.5,5.5 193.5,0.5C 197.833,0.5 202.167,0.5 206.5,0.5 Z"/></g>
<g><path style="opacity:1" fill="#bebbb7" d="M 20.5,1.5 C 14.1667,1.5 7.83333,1.5 1.5,1.5C 1.81277,5.04185 1.47944,8.37518 0.5,11.5C 0.5,7.83333 0.5,4.16667 0.5,0.5C 7.3543,0.17596 14.021,0.509293 20.5,1.5 Z"/></g>
<g><path style="opacity:1" fill="#e1c1a6" d="M 183.5,48.5 C 184.734,50.2014 185.401,52.2014 185.5,54.5C 184.69,58.2841 184.69,62.1175 185.5,66C 185.187,70.1888 184.687,74.3555 184,78.5C 183.5,79 183,79.5 182.5,80C 183.33,82.8017 184.163,85.635 185,88.5C 185.667,104.167 185.667,119.833 185,135.5C 184.197,140.315 183.363,144.981 182.5,149.5C 182.726,146.751 182.393,144.084 181.5,141.5C 183.373,134.952 183.873,128.285 183,121.5C 182.346,122.696 181.846,122.696 181.5,121.5C 182.788,115.84 183.455,110.007 183.5,104C 183.333,98.5 183.167,93 183,87.5C 182.03,85.7262 181.196,83.8928 180.5,82C 181.5,77.0017 182.5,72.0017 183.5,67C 182.456,60.8424 182.456,54.6757 183.5,48.5 Z"/></g>
<g><path style="opacity:1" fill="#aba7a3" d="M 205.5,56.5 C 205.918,57.2216 206.584,57.7216 207.5,58C 206.906,58.4643 206.239,58.631 205.5,58.5C 203.5,58.5 201.5,58.5 199.5,58.5C 199.343,57.1266 199.51,55.7932 200,54.5C 201.584,55.8613 203.418,56.528 205.5,56.5 Z"/></g>
<g><path style="opacity:1" fill="#403d37" d="M 14.5,27.5 C 11.7041,28.3762 9.03746,29.5429 6.5,31C 7.09442,31.4643 7.76109,31.631 8.5,31.5C 10.2143,32.7384 12.2143,33.405 14.5,33.5C 14.7733,35.451 14.1066,36.951 12.5,38C 13.4711,39.041 14.4711,39.8743 15.5,40.5C 15.8266,45.2137 15.4933,49.8804 14.5,54.5C 11.6748,55.3832 9.00813,56.5498 6.5,58C 9.69674,58.9865 12.5301,58.4865 15,56.5C 15.8253,60.2113 15.6586,63.878 14.5,67.5C 11.6748,68.3832 9.00813,69.5498 6.5,71C 7.09442,71.4643 7.76109,71.631 8.5,71.5C 10.2143,72.7384 12.2143,73.405 14.5,73.5C 14.7733,75.451 14.1066,76.951 12.5,78C 14.6192,78.3418 14.9526,79.1751 13.5,80.5C 11.2084,82.2671 8.54176,83.2671 5.5,83.5C 5.5,62.8333 5.5,42.1667 5.5,21.5C 8.5,21.5 11.5,21.5 14.5,21.5C 14.5,23.5 14.5,25.5 14.5,27.5 Z"/></g>
<g><path style="opacity:1" fill="#ada9a3" d="M 11.5,41.5 C 12.5,41.5 13.5,41.5 14.5,41.5C 14.5,42.5 14.5,43.5 14.5,44.5C 11.8127,44.6641 9.14603,44.4974 6.5,44C 8.31456,43.2432 9.98123,42.4098 11.5,41.5 Z"/></g>
<g><path style="opacity:1" fill="#33302c" d="M 198.5,42.5 C 198.833,42.5 199.167,42.5 199.5,42.5C 200.918,44.3079 202.918,44.9746 205.5,44.5C 203.745,45.7918 201.745,46.7918 199.5,47.5C 200.167,48.1667 200.833,48.8333 201.5,49.5C 200.754,50.7362 200.421,52.0695 200.5,53.5C 202.124,53.6399 203.29,52.9733 204,51.5C 204.645,52.646 205.478,53.646 206.5,54.5C 206.137,55.1835 205.804,55.8501 205.5,56.5C 203.418,56.528 201.584,55.8613 200,54.5C 199.51,55.7932 199.343,57.1266 199.5,58.5C 201.5,58.5 203.5,58.5 205.5,58.5C 203.94,60.1294 204.273,61.296 206.5,62C 206.132,64.0333 206.132,66.1999 206.5,68.5C 206.043,69.2975 205.376,69.6309 204.5,69.5C 202.862,68.8411 201.195,68.1744 199.5,67.5C 198.502,59.1932 198.169,50.8599 198.5,42.5 Z"/></g>
<g><path style="opacity:1" fill="#53251a" d="M 185.5,33.5 C 186.703,45.0313 187.703,56.698 188.5,68.5C 187.461,74.7069 186.461,80.8736 185.5,87C 187.042,94.8674 187.709,102.867 187.5,111C 187.632,120.446 186.966,129.78 185.5,139C 186.552,142.764 186.552,146.764 185.5,151C 185.354,153.034 186.02,154.701 187.5,156C 186.584,156.278 185.918,156.778 185.5,157.5C 183.518,155.403 182.518,152.736 182.5,149.5C 183.363,144.981 184.197,140.315 185,135.5C 185.667,119.833 185.667,104.167 185,88.5C 184.163,85.635 183.33,82.8017 182.5,80C 183,79.5 183.5,79 184,78.5C 184.687,74.3555 185.187,70.1888 185.5,66C 184.69,62.1175 184.69,58.2841 185.5,54.5C 185.401,52.2014 184.734,50.2014 183.5,48.5C 183.723,44.4983 183.723,40.665 183.5,37C 183.808,35.5405 184.475,34.3739 185.5,33.5 Z"/></g>
<g><path style="opacity:1" fill="#120e0b" d="M 13.5,80.5 C 14.9526,79.1751 14.6192,78.3418 12.5,78C 14.1066,76.951 14.7733,75.451 14.5,73.5C 12.2143,73.405 10.2143,72.7384 8.5,71.5C 10.5,71.5 12.5,71.5 14.5,71.5C 14.3505,70.448 14.5172,69.448 15,68.5C 15.1667,70.5 15.3333,72.5 15.5,74.5C 15.4609,76.9522 14.7943,78.9522 13.5,80.5 Z"/></g>
<g><path style="opacity:1" fill="#0e0d08" d="M 205.5,71.5 C 203.782,72.224 201.948,72.8906 200,73.5C 199.217,75.4335 199.717,76.9335 201.5,78C 199.381,78.3418 199.047,79.1751 200.5,80.5C 199.213,79.1286 198.547,77.2953 198.5,75C 198.667,73.1667 198.833,71.3333 199,69.5C 200.754,71.25 202.921,71.9167 205.5,71.5 Z"/></g>
<g><path style="opacity:1" fill="#47433d" d="M 205.5,188.5 C 206.239,188.631 206.906,188.464 207.5,188C 204.792,186.931 202.125,185.764 199.5,184.5C 198.34,180.541 198.173,176.541 199,172.5C 201.47,174.487 204.303,174.987 207.5,174C 204.826,173.33 202.493,172.163 200.5,170.5C 200.577,169.25 201.244,168.417 202.5,168C 200.789,166.867 200.289,165.367 201,163.5C 202.622,162.901 204.122,162.234 205.5,161.5C 206.239,161.631 206.906,161.464 207.5,161C 205.593,159.878 203.593,159.045 201.5,158.5C 200.909,157.849 200.243,157.182 199.5,156.5C 200.641,155.575 200.641,154.741 199.5,154C 201.611,153.155 203.611,152.322 205.5,151.5C 206.239,151.631 206.906,151.464 207.5,151C 206.263,150.768 205.263,150.268 204.5,149.5C 205.376,149.631 206.043,149.298 206.5,148.5C 206.132,146.2 206.132,144.033 206.5,142C 204.273,141.296 203.94,140.129 205.5,138.5C 206.239,138.631 206.906,138.464 207.5,138C 204.931,137.102 202.598,135.935 200.5,134.5C 201.401,132.243 203.068,130.743 205.5,130C 204.062,129.781 202.729,129.281 201.5,128.5C 203.421,127.676 204.754,126.343 205.5,124.5C 206.239,124.631 206.906,124.464 207.5,124C 205.129,123.265 202.795,122.432 200.5,121.5C 199.893,121.624 199.56,121.957 199.5,122.5C 199.167,122.5 198.833,122.5 198.5,122.5C 198.5,121.833 198.5,121.167 198.5,120.5C 201.349,119.7 202.349,118.034 201.5,115.5C 202.723,114.386 204.056,114.219 205.5,115C 204.346,115.914 204.513,116.747 206,117.5C 207.612,115.544 207.778,113.544 206.5,111.5C 207.506,111.062 207.506,110.396 206.5,109.5C 206.52,107.857 205.853,106.524 204.5,105.5C 206.475,103.455 206.475,101.788 204.5,100.5C 204.863,99.8165 205.196,99.1499 205.5,98.5C 206.239,98.631 206.906,98.4643 207.5,98C 205.685,97.2432 204.019,96.4098 202.5,95.5C 201.498,93.9891 200.831,92.3224 200.5,90.5C 202.199,90.6602 203.866,90.4935 205.5,90C 203.369,89.4569 201.369,88.6236 199.5,87.5C 201.745,86.7918 203.745,85.7918 205.5,84.5C 206.239,84.631 206.906,84.4643 207.5,84C 204.744,83.483 202.411,82.3163 200.5,80.5C 199.047,79.1751 199.381,78.3418 201.5,78C 199.717,76.9335 199.217,75.4335 200,73.5C 201.948,72.8906 203.782,72.224 205.5,71.5C 206.239,71.631 206.906,71.4643 207.5,71C 206.263,70.7679 205.263,70.2679 204.5,69.5C 205.376,69.6309 206.043,69.2975 206.5,68.5C 206.132,66.1999 206.132,64.0333 206.5,62C 204.273,61.296 203.94,60.1294 205.5,58.5C 206.239,58.631 206.906,58.4643 207.5,58C 206.584,57.7216 205.918,57.2216 205.5,56.5C 205.804,55.8501 206.137,55.1835 206.5,54.5C 205.478,53.646 204.645,52.646 204,51.5C 203.29,52.9733 202.124,53.6399 200.5,53.5C 200.421,52.0695 200.754,50.7362 201.5,49.5C 200.833,48.8333 200.167,48.1667 199.5,47.5C 201.745,46.7918 203.745,45.7918 205.5,44.5C 206.239,44.631 206.906,44.4643 207.5,44C 205.956,43.7104 204.623,43.0437 203.5,42C 201.934,41.235 200.601,41.4017 199.5,42.5C 199.167,42.5 198.833,42.5 198.5,42.5C 198.5,41.8333 198.5,41.1667 198.5,40.5C 199.529,39.8743 200.529,39.041 201.5,38C 199.717,36.9335 199.217,35.4335 200,33.5C 201.948,32.8906 203.782,32.224 205.5,31.5C 206.239,31.631 206.906,31.4643 207.5,31C 204.933,29.5986 202.267,28.432 199.5,27.5C 199.5,25.5 199.5,23.5 199.5,21.5C 202.5,21.5 205.5,21.5 208.5,21.5C 208.5,78.5 208.5,135.5 208.5,192.5C 205.753,192.813 203.086,192.48 200.5,191.5C 202.145,190.304 203.811,189.304 205.5,188.5 Z"/></g>
<g><path style="opacity:1" fill="#aca9a5" d="M 202.5,95.5 C 204.019,96.4098 205.685,97.2432 207.5,98C 206.906,98.4643 206.239,98.631 205.5,98.5C 203.5,98.5 201.5,98.5 199.5,98.5C 199.343,97.1266 199.51,95.7932 200,94.5C 200.671,95.2524 201.504,95.5858 202.5,95.5 Z"/></g>
<g><path style="opacity:1" fill="#3d3933" d="M 5.5,110.5 C 5.5,101.833 5.5,93.1667 5.5,84.5C 9.02967,85.0111 12.1963,84.3444 15,82.5C 15.8265,86.5411 15.6599,90.5411 14.5,94.5C 11.6748,95.3832 9.00813,96.5498 6.5,98C 9.69674,98.9865 12.5301,98.4865 15,96.5C 15.8253,100.211 15.6586,103.878 14.5,107.5C 11.5504,108.705 8.55042,109.705 5.5,110.5 Z"/></g>
<g><path style="opacity:1" fill="#312f2b" d="M 205.5,84.5 C 203.745,85.7918 201.745,86.7918 199.5,87.5C 201.369,88.6236 203.369,89.4569 205.5,90C 203.866,90.4935 202.199,90.6602 200.5,90.5C 200.831,92.3224 201.498,93.9891 202.5,95.5C 201.504,95.5858 200.671,95.2524 200,94.5C 199.51,95.7932 199.343,97.1266 199.5,98.5C 201.5,98.5 203.5,98.5 205.5,98.5C 205.196,99.1499 204.863,99.8165 204.5,100.5C 206.475,101.788 206.475,103.455 204.5,105.5C 205.853,106.524 206.52,107.857 206.5,109.5C 203.951,109.613 201.618,108.946 199.5,107.5C 198.335,99.1866 198.168,90.8533 199,82.5C 200.754,84.25 202.921,84.9167 205.5,84.5 Z"/></g>
<g><path style="opacity:1" fill="#28130f" d="M 19.5,21.5 C 18.6732,37.9683 19.0065,54.3016 20.5,70.5C 20.5,70.8333 20.5,71.1667 20.5,71.5C 19.3395,111.797 19.3395,152.131 20.5,192.5C 19.5,192.5 18.5,192.5 17.5,192.5C 16.8373,135.157 17.504,78.1569 19.5,21.5 Z"/></g>
<g><path style="opacity:1" fill="#e3cda9" d="M 180.5,29.5 C 182.167,29.5 183.833,29.5 185.5,29.5C 185.5,30.8333 185.5,32.1667 185.5,33.5C 184.475,34.3739 183.808,35.5405 183.5,37C 183.723,40.665 183.723,44.4983 183.5,48.5C 182.456,54.6757 182.456,60.8424 183.5,67C 182.5,72.0017 181.5,77.0017 180.5,82C 181.196,83.8928 182.03,85.7262 183,87.5C 183.167,93 183.333,98.5 183.5,104C 183.455,110.007 182.788,115.84 181.5,121.5C 181.846,122.696 182.346,122.696 183,121.5C 183.873,128.285 183.373,134.952 181.5,141.5C 182.393,144.084 182.726,146.751 182.5,149.5C 182.518,152.736 183.518,155.403 185.5,157.5C 185.047,161.529 184.38,165.529 183.5,169.5C 182.85,174.595 183.516,179.595 185.5,184.5C 182.472,184.661 179.639,183.994 177,182.5C 171.115,181.95 165.282,182.617 159.5,184.5C 153.568,184.155 147.568,184.155 141.5,184.5C 138.994,183.824 136.494,182.824 134,181.5C 130.557,182.569 127.057,183.402 123.5,184C 107.833,184.667 92.1667,184.667 76.5,184C 72.044,182.949 67.544,182.116 63,181.5C 60.2696,181.706 58.1029,182.706 56.5,184.5C 51.701,183.689 46.8676,183.022 42,182.5C 37.405,182.724 32.905,183.391 28.5,184.5C 28.4621,181.819 29.1287,179.319 30.5,177C 31.0855,171.274 30.4188,165.607 28.5,160C 29.8547,157.114 30.8547,154.114 31.5,151C 28.5551,130.304 27.7218,109.471 29,88.5C 29.7388,85.4535 30.5721,82.4535 31.5,79.5C 33.868,83.6396 33.5347,87.473 30.5,91C 31.8502,93.2105 32.8502,95.5438 33.5,98C 32.2845,100.096 31.4512,99.9288 31,97.5C 30.8333,98 30.6667,98.5 30.5,99C 32.3438,101.561 32.8438,104.394 32,107.5C 31.4444,105.405 30.9444,105.238 30.5,107C 31.0323,113.301 31.199,119.801 31,126.5C 32.3671,125.476 33.2005,125.976 33.5,128C 32.9618,130.102 31.9618,130.935 30.5,130.5C 31.7113,131.874 32.7113,133.374 33.5,135C 32.4627,146.942 32.2961,159.109 33,171.5C 34.6909,174.359 37.1909,175.692 40.5,175.5C 40.8333,177.5 41.1667,179.5 41.5,181.5C 46.962,180.192 52.2954,179.192 57.5,178.5C 58.1515,179.091 58.8182,179.757 59.5,180.5C 72.3515,179.12 85.3515,178.453 98.5,178.5C 105.743,178.508 112.91,178.842 120,179.5C 127.652,177.051 135.319,177.051 143,179.5C 146.667,178.833 150.333,178.167 154,177.5C 158.55,177.256 163.217,177.589 168,178.5C 172.504,177.669 175.504,175.003 177,170.5C 178.834,163.859 180.334,157.192 181.5,150.5C 180.178,150.33 179.011,150.663 178,151.5C 177.933,148.953 177.099,146.786 175.5,145C 178.015,135.77 178.349,126.604 176.5,117.5C 177.44,105.304 177.773,92.9711 177.5,80.5C 176.833,80.1667 176.167,79.8333 175.5,79.5C 178.098,67.9846 178.931,56.3179 178,44.5C 176.39,42.4032 175.223,40.0698 174.5,37.5C 170.46,36.0203 166.294,35.0203 162,34.5C 154.966,35.4413 147.466,35.4413 139.5,34.5C 136.57,34.1536 134.237,35.1536 132.5,37.5C 132.167,36.8333 131.833,36.1667 131.5,35.5C 129.504,36.6096 127.671,36.2763 126,34.5C 107.213,34.7411 89.2128,34.7411 72,34.5C 71.6667,35.1667 71.3333,35.8333 71,36.5C 69.134,34.1914 66.9673,32.8581 64.5,32.5C 69.3391,31.5656 74.3391,30.7323 79.5,30C 94.1667,29.3333 108.833,29.3333 123.5,30C 127.057,30.5976 130.557,31.431 134,32.5C 138.221,30.3783 142.721,29.3783 147.5,29.5C 157.45,29.4707 167.283,30.1374 177,31.5C 178.459,31.1918 179.626,30.5251 180.5,29.5 Z"/></g>
<g><path style="opacity:1" fill="#2e2a26" d="M 13.5,120.5 C 12.6398,118.386 10.9732,117.22 8.5,117C 12.2676,115.823 12.1009,114.656 8,113.5C 7.66667,114.167 7.33333,114.833 7,115.5C 6.42094,114.072 6.58761,112.738 7.5,111.5C 9.83333,111.5 12.1667,111.5 14.5,111.5C 14.3505,110.448 14.5172,109.448 15,108.5C 15.1667,110.5 15.3333,112.5 15.5,114.5C 15.4609,116.952 14.7943,118.952 13.5,120.5 Z"/></g>
<g><path style="opacity:1" fill="#2d2a26" d="M 206.5,111.5 C 207.778,113.544 207.612,115.544 206,117.5C 204.513,116.747 204.346,115.914 205.5,115C 204.056,114.219 202.723,114.386 201.5,115.5C 202.349,118.034 201.349,119.7 198.5,120.5C 198.335,116.818 198.501,113.152 199,109.5C 201.106,111.291 203.606,111.958 206.5,111.5 Z"/></g>
<g><path style="opacity:1" fill="#8f8b87" d="M 199.5,27.5 C 202.267,28.432 204.933,29.5986 207.5,31C 206.906,31.4643 206.239,31.631 205.5,31.5C 202.921,31.9167 200.754,31.25 199,29.5C 198.501,33.1516 198.335,36.8183 198.5,40.5C 198.5,41.1667 198.5,41.8333 198.5,42.5C 198.169,50.8599 198.502,59.1932 199.5,67.5C 201.195,68.1744 202.862,68.8411 204.5,69.5C 205.263,70.2679 206.263,70.7679 207.5,71C 206.906,71.4643 206.239,71.631 205.5,71.5C 202.921,71.9167 200.754,71.25 199,69.5C 198.833,71.3333 198.667,73.1667 198.5,75C 198.547,77.2953 199.213,79.1286 200.5,80.5C 202.411,82.3163 204.744,83.483 207.5,84C 206.906,84.4643 206.239,84.631 205.5,84.5C 202.921,84.9167 200.754,84.25 199,82.5C 198.168,90.8533 198.335,99.1866 199.5,107.5C 201.618,108.946 203.951,109.613 206.5,109.5C 207.506,110.396 207.506,111.062 206.5,111.5C 203.606,111.958 201.106,111.291 199,109.5C 198.501,113.152 198.335,116.818 198.5,120.5C 198.5,121.167 198.5,121.833 198.5,122.5C 198.169,130.86 198.502,139.193 199.5,147.5C 201.195,148.174 202.862,148.841 204.5,149.5C 205.263,150.268 206.263,150.768 207.5,151C 206.906,151.464 206.239,151.631 205.5,151.5C 202.921,151.917 200.754,151.25 199,149.5C 198.833,153 198.667,156.5 198.5,160C 198.512,163.902 199.179,167.402 200.5,170.5C 202.493,172.163 204.826,173.33 207.5,174C 204.303,174.987 201.47,174.487 199,172.5C 198.173,176.541 198.34,180.541 199.5,184.5C 202.125,185.764 204.792,186.931 207.5,188C 206.906,188.464 206.239,188.631 205.5,188.5C 202.921,188.917 200.754,188.25 199,186.5C 198.667,188.5 198.333,190.5 198,192.5C 197.333,135.5 197.333,78.5 198,21.5C 198.191,23.7078 198.691,25.7078 199.5,27.5 Z"/></g>
<g><path style="opacity:1" fill="#47443d" d="M 5.5,111.5 C 6.16667,111.5 6.83333,111.5 7.5,111.5C 6.58761,112.738 6.42094,114.072 7,115.5C 7.33333,114.833 7.66667,114.167 8,113.5C 12.1009,114.656 12.2676,115.823 8.5,117C 10.9732,117.22 12.6398,118.386 13.5,120.5C 11.2084,122.267 8.54176,123.267 5.5,123.5C 5.5,119.5 5.5,115.5 5.5,111.5 Z"/></g>
<g><path style="opacity:1" fill="#adaaa6" d="M 205.5,124.5 C 202.918,124.975 200.918,124.308 199.5,122.5C 199.56,121.957 199.893,121.624 200.5,121.5C 202.795,122.432 205.129,123.265 207.5,124C 206.906,124.464 206.239,124.631 205.5,124.5 Z"/></g>
<g><path style="opacity:1" fill="#96918d" d="M 8.5,188.5 C 7.76109,188.631 7.09442,188.464 6.5,188C 9.04959,186.558 11.7163,185.392 14.5,184.5C 15.6599,180.541 15.8265,176.541 15,172.5C 12.5301,174.487 9.69674,174.987 6.5,174C 9.06905,173.102 11.4024,171.935 13.5,170.5C 14.7868,169.129 15.4535,167.295 15.5,165C 15.3333,163.167 15.1667,161.333 15,159.5C 13.2458,161.25 11.0792,161.917 8.5,161.5C 7.5,161.5 6.5,161.5 5.5,161.5C 5.5,161.167 5.5,160.833 5.5,160.5C 7.96527,160.233 10.2986,159.566 12.5,158.5C 13.5,158.5 14.5,158.5 15.5,158.5C 16.1132,153.697 15.7799,151.363 14.5,151.5C 12.5,151.5 10.5,151.5 8.5,151.5C 6.62143,151.607 6.2881,151.107 7.5,150C 9.8713,149.265 12.2046,148.432 14.5,147.5C 15.6586,143.878 15.8253,140.211 15,136.5C 12.5301,138.487 9.69674,138.987 6.5,138C 9.00813,136.55 11.6748,135.383 14.5,134.5C 15.6599,130.541 15.8265,126.541 15,122.5C 13.2458,124.25 11.0792,124.917 8.5,124.5C 7.5,124.5 6.5,124.5 5.5,124.5C 5.5,124.167 5.5,123.833 5.5,123.5C 8.54176,123.267 11.2084,122.267 13.5,120.5C 14.7943,118.952 15.4609,116.952 15.5,114.5C 15.3333,112.5 15.1667,110.5 15,108.5C 14.5172,109.448 14.3505,110.448 14.5,111.5C 12.1667,111.5 9.83333,111.5 7.5,111.5C 6.83333,111.5 6.16667,111.5 5.5,111.5C 5.5,111.167 5.5,110.833 5.5,110.5C 8.55042,109.705 11.5504,108.705 14.5,107.5C 15.6586,103.878 15.8253,100.211 15,96.5C 12.5301,98.4865 9.69674,98.9865 6.5,98C 9.00813,96.5498 11.6748,95.3832 14.5,94.5C 15.6599,90.5411 15.8265,86.5411 15,82.5C 12.1963,84.3444 9.02967,85.0111 5.5,84.5C 5.5,84.1667 5.5,83.8333 5.5,83.5C 8.54176,83.2671 11.2084,82.2671 13.5,80.5C 14.7943,78.9522 15.4609,76.9522 15.5,74.5C 15.3333,72.5 15.1667,70.5 15,68.5C 14.5172,69.448 14.3505,70.448 14.5,71.5C 12.5,71.5 10.5,71.5 8.5,71.5C 7.76109,71.631 7.09442,71.4643 6.5,71C 9.00813,69.5498 11.6748,68.3832 14.5,67.5C 15.6586,63.878 15.8253,60.2113 15,56.5C 12.5301,58.4865 9.69674,58.9865 6.5,58C 9.00813,56.5498 11.6748,55.3832 14.5,54.5C 15.4933,49.8804 15.8266,45.2137 15.5,40.5C 16.0065,35.3003 15.6731,32.3003 14.5,31.5C 12.5,31.5 10.5,31.5 8.5,31.5C 7.76109,31.631 7.09442,31.4643 6.5,31C 9.03746,29.5429 11.7041,28.3762 14.5,27.5C 15.3091,25.7078 15.8091,23.7078 16,21.5C 16.6667,78.5 16.6667,135.5 16,192.5C 15.6667,190.5 15.3333,188.5 15,186.5C 13.2458,188.25 11.0792,188.917 8.5,188.5 Z"/></g>
<g><path style="opacity:1" fill="#48443e" d="M 5.5,124.5 C 6.5,124.5 7.5,124.5 8.5,124.5C 9.97376,125.675 11.6404,126.675 13.5,127.5C 12.1667,128.833 12.1667,130.167 13.5,131.5C 13.1543,132.696 12.6543,132.696 12,131.5C 11.3736,135.136 10.2069,135.136 8.5,131.5C 8.58839,133.231 7.58839,134.564 5.5,135.5C 5.5,131.833 5.5,128.167 5.5,124.5 Z"/></g>
<g><path style="opacity:1" fill="#361413" d="M 192.5,20.5 C 192.833,20.5 193.167,20.5 193.5,20.5C 193.842,21.3382 194.508,21.6716 195.5,21.5C 194.875,78.1719 194.875,134.839 195.5,191.5C 194.5,191.5 193.5,191.5 192.5,191.5C 193.679,134.521 193.679,77.5214 192.5,20.5 Z"/></g>
<g><path style="opacity:1" fill="#aba7a3" d="M 200.5,134.5 C 202.598,135.935 204.931,137.102 207.5,138C 206.906,138.464 206.239,138.631 205.5,138.5C 203.5,138.5 201.5,138.5 199.5,138.5C 199.232,136.901 199.566,135.568 200.5,134.5 Z"/></g>
<g><path style="opacity:1" fill="#322f2b" d="M 198.5,122.5 C 198.833,122.5 199.167,122.5 199.5,122.5C 200.918,124.308 202.918,124.975 205.5,124.5C 204.754,126.343 203.421,127.676 201.5,128.5C 202.729,129.281 204.062,129.781 205.5,130C 203.068,130.743 201.401,132.243 200.5,134.5C 199.566,135.568 199.232,136.901 199.5,138.5C 201.5,138.5 203.5,138.5 205.5,138.5C 203.94,140.129 204.273,141.296 206.5,142C 206.132,144.033 206.132,146.2 206.5,148.5C 206.043,149.298 205.376,149.631 204.5,149.5C 202.862,148.841 201.195,148.174 199.5,147.5C 198.502,139.193 198.169,130.86 198.5,122.5 Z"/></g>
<g><path style="opacity:1" fill="#3b3832" d="M 8.5,151.5 C 10.4124,152.21 12.079,153.377 13.5,155C 13.0109,156.138 12.6775,157.305 12.5,158.5C 10.2986,159.566 7.96527,160.233 5.5,160.5C 5.5,152.167 5.5,143.833 5.5,135.5C 7.58839,134.564 8.58839,133.231 8.5,131.5C 10.2069,135.136 11.3736,135.136 12,131.5C 12.6543,132.696 13.1543,132.696 13.5,131.5C 12.1667,130.167 12.1667,128.833 13.5,127.5C 11.6404,126.675 9.97376,125.675 8.5,124.5C 11.0792,124.917 13.2458,124.25 15,122.5C 15.8265,126.541 15.6599,130.541 14.5,134.5C 11.6748,135.383 9.00813,136.55 6.5,138C 9.69674,138.987 12.5301,138.487 15,136.5C 15.8253,140.211 15.6586,143.878 14.5,147.5C 12.2046,148.432 9.8713,149.265 7.5,150C 6.2881,151.107 6.62143,151.607 8.5,151.5 Z"/></g>
<g><path style="opacity:1" fill="#161310" d="M 12.5,158.5 C 12.6775,157.305 13.0109,156.138 13.5,155C 12.079,153.377 10.4124,152.21 8.5,151.5C 10.5,151.5 12.5,151.5 14.5,151.5C 15.7799,151.363 16.1132,153.697 15.5,158.5C 14.5,158.5 13.5,158.5 12.5,158.5 Z"/></g>
<g><path style="opacity:1" fill="#e8d8b9" d="M 64.5,32.5 C 66.9673,32.8581 69.134,34.1914 71,36.5C 71.3333,35.8333 71.6667,35.1667 72,34.5C 89.2128,34.7411 107.213,34.7411 126,34.5C 127.671,36.2763 129.504,36.6096 131.5,35.5C 131.833,36.1667 132.167,36.8333 132.5,37.5C 134.237,35.1536 136.57,34.1536 139.5,34.5C 147.466,35.4413 154.966,35.4413 162,34.5C 166.294,35.0203 170.46,36.0203 174.5,37.5C 175.223,40.0698 176.39,42.4032 178,44.5C 178.931,56.3179 178.098,67.9846 175.5,79.5C 176.167,79.8333 176.833,80.1667 177.5,80.5C 177.773,92.9711 177.44,105.304 176.5,117.5C 178.349,126.604 178.015,135.77 175.5,145C 177.099,146.786 177.933,148.953 178,151.5C 179.011,150.663 180.178,150.33 181.5,150.5C 180.334,157.192 178.834,163.859 177,170.5C 175.504,175.003 172.504,177.669 168,178.5C 163.217,177.589 158.55,177.256 154,177.5C 150.333,178.167 146.667,178.833 143,179.5C 135.319,177.051 127.652,177.051 120,179.5C 112.91,178.842 105.743,178.508 98.5,178.5C 85.3515,178.453 72.3515,179.12 59.5,180.5C 58.8182,179.757 58.1515,179.091 57.5,178.5C 53.5855,176.124 49.2522,174.957 44.5,175C 39.5835,166.417 37.7501,157.251 39,147.5C 38.6924,148.308 38.1924,148.975 37.5,149.5C 36.7379,148.372 36.0712,147.205 35.5,146C 35.8703,140.384 36.2037,134.551 36.5,128.5C 36.3326,117.084 35.3326,105.917 33.5,95C 34.6241,94.1612 35.2908,92.9945 35.5,91.5C 35.2318,79.3181 34.8985,67.1514 34.5,55C 35.1881,50.3666 36.3548,45.8666 38,41.5C 40.3314,39.6199 42.4981,37.6199 44.5,35.5C 45.4419,35.6082 46.2753,35.9415 47,36.5C 50.5238,34.0515 53.5238,34.0515 56,36.5C 56.3333,35.8333 56.6667,35.1667 57,34.5C 57.2321,35.7375 57.7321,36.7375 58.5,37.5C 53.0518,38.6564 47.7185,40.4897 42.5,43C 40.077,49.1819 38.7437,55.6819 38.5,62.5C 40.1174,64.6316 40.6174,66.9649 40,69.5C 39.3507,66.0626 38.8507,65.896 38.5,69C 38.7038,73.0741 38.7038,77.2408 38.5,81.5C 40.2161,83.9151 40.7161,86.5818 40,89.5C 38.9966,87.0649 38.4966,87.3982 38.5,90.5C 39.4831,102.432 39.4831,114.432 38.5,126.5C 39.325,127.386 40.325,127.719 41.5,127.5C 42.1239,137.263 41.4573,146.763 39.5,156C 40.8524,160.574 42.519,165.074 44.5,169.5C 46.3049,170.472 47.9716,171.639 49.5,173C 53.566,173.516 57.566,174.35 61.5,175.5C 70.5202,174.861 79.5202,174.194 88.5,173.5C 89.9675,174.695 91.4675,174.695 93,173.5C 93.9454,173.905 94.6121,174.572 95,175.5C 96.3129,174.427 97.8129,173.76 99.5,173.5C 118.219,173.502 136.886,173.502 155.5,173.5C 157.374,173.39 158.874,174.056 160,175.5C 164.008,172.49 167.674,169.157 171,165.5C 173.254,162.572 174.421,159.238 174.5,155.5C 174.175,149.508 173.841,143.508 173.5,137.5C 174.488,134.576 175.154,131.576 175.5,128.5C 174.385,106.768 173.385,85.1014 172.5,63.5C 173.552,63.6495 174.552,63.4828 175.5,63C 172.388,62.1495 172.054,60.9828 174.5,59.5C 174.167,58.8333 173.833,58.1667 173.5,57.5C 175.086,55.8273 175.753,53.8273 175.5,51.5C 174.325,51.719 173.325,51.3857 172.5,50.5C 171.2,47.5677 169.2,45.2344 166.5,43.5C 162.595,42.0692 159.095,40.0692 156,37.5C 151.797,38.0517 147.297,38.7184 142.5,39.5C 118.955,38.6445 95.1216,38.6445 71,39.5C 67.8509,38.4385 65.0175,37.1052 62.5,35.5C 63.2389,35.631 63.9056,35.4643 64.5,35C 63.4019,34.2303 63.4019,33.397 64.5,32.5 Z"/></g>
<g><path style="opacity:1" fill="#eadec4" d="M 62.5,35.5 C 65.0175,37.1052 67.8509,38.4385 71,39.5C 95.1216,38.6445 118.955,38.6445 142.5,39.5C 147.297,38.7184 151.797,38.0517 156,37.5C 159.095,40.0692 162.595,42.0692 166.5,43.5C 169.2,45.2344 171.2,47.5677 172.5,50.5C 173.325,51.3857 174.325,51.719 175.5,51.5C 175.753,53.8273 175.086,55.8273 173.5,57.5C 173.833,58.1667 174.167,58.8333 174.5,59.5C 172.054,60.9828 172.388,62.1495 175.5,63C 174.552,63.4828 173.552,63.6495 172.5,63.5C 173.385,85.1014 174.385,106.768 175.5,128.5C 175.154,131.576 174.488,134.576 173.5,137.5C 173.841,143.508 174.175,149.508 174.5,155.5C 174.421,159.238 173.254,162.572 171,165.5C 167.674,169.157 164.008,172.49 160,175.5C 158.874,174.056 157.374,173.39 155.5,173.5C 136.886,173.502 118.219,173.502 99.5,173.5C 97.8129,173.76 96.3129,174.427 95,175.5C 94.6121,174.572 93.9454,173.905 93,173.5C 91.4675,174.695 89.9675,174.695 88.5,173.5C 79.5202,174.194 70.5202,174.861 61.5,175.5C 57.566,174.35 53.566,173.516 49.5,173C 47.9716,171.639 46.3049,170.472 44.5,169.5C 42.519,165.074 40.8524,160.574 39.5,156C 41.4573,146.763 42.1239,137.263 41.5,127.5C 40.325,127.719 39.325,127.386 38.5,126.5C 39.4831,114.432 39.4831,102.432 38.5,90.5C 38.4966,87.3982 38.9966,87.0649 40,89.5C 40.7161,86.5818 40.2161,83.9151 38.5,81.5C 38.7038,77.2408 38.7038,73.0741 38.5,69C 38.8507,65.896 39.3507,66.0626 40,69.5C 40.6174,66.9649 40.1174,64.6316 38.5,62.5C 38.7437,55.6819 40.077,49.1819 42.5,43C 47.7185,40.4897 53.0518,38.6564 58.5,37.5C 60.1993,37.4729 61.5326,36.8062 62.5,35.5 Z"/></g>
<g><path style="opacity:1" fill="#11100c" d="M 205.5,151.5 C 203.611,152.322 201.611,153.155 199.5,154C 200.641,154.741 200.641,155.575 199.5,156.5C 200.243,157.182 200.909,157.849 201.5,158.5C 199.952,158.821 199.285,159.821 199.5,161.5C 201.5,161.5 203.5,161.5 205.5,161.5C 204.122,162.234 202.622,162.901 201,163.5C 200.289,165.367 200.789,166.867 202.5,168C 201.244,168.417 200.577,169.25 200.5,170.5C 199.179,167.402 198.512,163.902 198.5,160C 198.667,156.5 198.833,153 199,149.5C 200.754,151.25 202.921,151.917 205.5,151.5 Z"/></g>
<g><path style="opacity:1" fill="#aaaaa7" d="M 201.5,158.5 C 203.593,159.045 205.593,159.878 207.5,161C 206.906,161.464 206.239,161.631 205.5,161.5C 203.5,161.5 201.5,161.5 199.5,161.5C 199.285,159.821 199.952,158.821 201.5,158.5 Z"/></g>
<g><path style="opacity:1" fill="#532219" d="M 28.5,29.5 C 28.5481,32.3128 29.2147,34.9795 30.5,37.5C 28.9729,46.7734 28.3062,56.2734 28.5,66C 28.4473,70.868 29.4473,75.368 31.5,79.5C 30.5721,82.4535 29.7388,85.4535 29,88.5C 27.7218,109.471 28.5551,130.304 31.5,151C 30.8547,154.114 29.8547,157.114 28.5,160C 30.4188,165.607 31.0855,171.274 30.5,177C 29.1287,179.319 28.4621,181.819 28.5,184.5C 32.905,183.391 37.405,182.724 42,182.5C 46.8676,183.022 51.701,183.689 56.5,184.5C 48.3237,185.167 39.9904,185.833 31.5,186.5C 31.1924,187.308 30.6924,187.975 30,188.5C 29,186.833 27.6667,185.5 26,184.5C 26.5356,182.553 26.2022,180.553 25,178.5C 24.4444,180.595 23.9444,180.762 23.5,179C 26.3926,174.994 27.2259,170.494 26,165.5C 25.3333,164.167 24.6667,164.167 24,165.5C 23.1553,167.611 22.322,169.611 21.5,171.5C 21.5,168.833 21.5,166.167 21.5,163.5C 25.3531,162.438 26.3531,160.105 24.5,156.5C 25.5985,154.585 26.9318,152.418 28.5,150C 26.2409,127.542 25.9076,105.042 27.5,82.5C 26.662,76.1461 25.662,69.8127 24.5,63.5C 23.5,63.1667 22.8333,62.5 22.5,61.5C 23.4911,60.3348 24.4911,59.1681 25.5,58C 25.3552,57.228 25.0219,56.5613 24.5,56C 25.5303,51.5993 26.197,47.0993 26.5,42.5C 26.3868,40.3587 25.7201,38.5253 24.5,37C 25.7606,34.3381 27.0939,31.8381 28.5,29.5 Z"/></g>
<g><path style="opacity:1" fill="#181917" d="M 13.5,170.5 C 13.2786,169.265 12.6119,168.265 11.5,167.5C 13.0396,166.468 13.5396,165.135 13,163.5C 11.3775,162.901 9.87753,162.234 8.5,161.5C 11.0792,161.917 13.2458,161.25 15,159.5C 15.1667,161.333 15.3333,163.167 15.5,165C 15.4535,167.295 14.7868,169.129 13.5,170.5 Z"/></g>
<g><path style="opacity:1" fill="#ece2cb" d="M 172.5,63.5 C 171.732,64.2625 171.232,65.2625 171,66.5C 170.667,65.8333 170.333,65.1667 170,64.5C 169.809,66.7078 169.309,68.7078 168.5,70.5C 168.918,71.2216 169.584,71.7216 170.5,72C 168.987,74.9156 169.32,77.5823 171.5,80C 170.106,80.956 169.439,82.2894 169.5,84C 170.602,86.1129 170.602,88.2795 169.5,90.5C 169.833,91.5 170.167,92.5 170.5,93.5C 172.214,92.3915 172.881,93.0582 172.5,95.5C 171.5,95.5 170.5,95.5 169.5,95.5C 169.251,104.785 169.918,113.951 171.5,123C 170.57,124.194 169.903,125.527 169.5,127C 171.754,129.235 172.421,131.735 171.5,134.5C 170.719,133.271 170.219,131.938 170,130.5C 169.308,131.025 168.808,131.692 168.5,132.5C 167.911,134.373 168.578,136.04 170.5,137.5C 169.907,139.382 169.24,141.215 168.5,143C 169.263,147.108 169.93,151.274 170.5,155.5C 168.324,158.854 166.99,162.521 166.5,166.5C 164.139,166.674 161.806,167.007 159.5,167.5C 159.523,170.121 158.189,171.455 155.5,171.5C 150.925,171.378 146.258,171.212 141.5,171C 140.344,166.899 139.177,166.732 138,170.5C 134.616,172.273 132.449,171.273 131.5,167.5C 130.852,169.149 129.852,170.482 128.5,171.5C 123.153,170.119 117.819,168.785 112.5,167.5C 109.362,168.744 106.028,169.411 102.5,169.5C 97.417,169.286 92.5837,168.952 88,168.5C 79.912,169.317 71.7453,169.817 63.5,170C 62.228,171.046 60.728,171.546 59,171.5C 55.182,170.002 51.3487,168.669 47.5,167.5C 47.2163,164.148 46.0496,161.148 44,158.5C 43.8285,132.261 43.3285,106.094 42.5,80C 43.5198,69.4051 44.1865,58.9051 44.5,48.5C 49.861,45.1915 55.6943,43.1915 62,42.5C 62.6667,43.8333 63.3333,43.8333 64,42.5C 64.6667,45.1667 65.3333,45.1667 66,42.5C 66.6667,45.1667 67.3333,45.1667 68,42.5C 68.6667,45.1667 69.3333,45.1667 70,42.5C 70.6667,45.1667 71.3333,45.1667 72,42.5C 72.6667,45.1667 73.3333,45.1667 74,42.5C 74.6667,45.1667 75.3333,45.1667 76,42.5C 76.6667,45.1667 77.3333,45.1667 78,42.5C 78.6667,45.1667 79.3333,45.1667 80,42.5C 80.6667,45.1667 81.3333,45.1667 82,42.5C 82.6667,45.1667 83.3333,45.1667 84,42.5C 84.6667,45.1667 85.3333,45.1667 86,42.5C 86.8753,44.5127 88.2087,44.5127 90,42.5C 91.7913,44.5127 93.1247,44.5127 94,42.5C 95.3333,43.8333 96.6667,43.8333 98,42.5C 98.3333,43.1667 98.6667,43.8333 99,44.5C 99.6667,43.1667 100.333,43.1667 101,44.5C 101.333,43.8333 101.667,43.1667 102,42.5C 103.333,42.5 104.667,42.5 106,42.5C 106.667,45.1667 107.333,45.1667 108,42.5C 109.66,42.3241 111.326,42.9907 113,44.5C 117,43.1667 121,43.1667 125,44.5C 125.333,43.8333 125.667,43.1667 126,42.5C 136.856,42.8595 147.856,43.5262 159,44.5C 159.414,44.0426 159.914,43.7093 160.5,43.5C 163.352,44.2897 165.519,45.9564 167,48.5C 167.595,49.8989 167.428,51.2322 166.5,52.5C 166.938,53.5063 167.604,53.5063 168.5,52.5C 170.701,55.8751 172.034,59.5417 172.5,63.5 Z"/></g>
<g><path style="opacity:1" fill="#ede7d4" d="M 168.5,70.5 C 167.883,70.6107 167.383,70.944 167,71.5C 166.808,85.699 166.308,99.8657 165.5,114C 168.038,116.455 168.038,118.955 165.5,121.5C 166.167,122.833 166.833,124.167 167.5,125.5C 166.33,130.151 166.33,134.818 167.5,139.5C 166.833,142.167 166.167,144.833 165.5,147.5C 166.621,151.603 165.955,155.437 163.5,159C 165.985,160.223 166.152,161.723 164,163.5C 163.586,163.043 163.086,162.709 162.5,162.5C 161.757,163.908 160.923,165.241 160,166.5C 154.746,165.845 149.412,165.512 144,165.5C 138.42,165.527 133.086,166.194 128,167.5C 127.692,166.692 127.192,166.025 126.5,165.5C 124.291,166.106 122.124,166.773 120,167.5C 114.244,166.118 108.077,165.451 101.5,165.5C 96.8782,165.962 92.3782,165.962 88,165.5C 87.1667,168 86,168.167 84.5,166C 77.4495,165.203 70.4495,165.37 63.5,166.5C 58.3869,165.904 53.3869,164.904 48.5,163.5C 48.4719,160.749 47.4719,158.415 45.5,156.5C 46.4147,155.672 47.0814,154.672 47.5,153.5C 47.581,122.946 47.2477,92.4455 46.5,62C 48.0455,56.8801 50.0455,52.0468 52.5,47.5C 54.8257,46.8489 57.1591,46.1822 59.5,45.5C 63.5159,46.9369 67.6826,47.6035 72,47.5C 90.376,47.4321 109.043,47.0988 128,46.5C 135.518,47.1255 143.018,48.1255 150.5,49.5C 153.899,47.6878 157.566,47.0211 161.5,47.5C 161.351,48.552 161.517,49.552 162,50.5C 164.843,53.011 167.343,55.8443 169.5,59C 168.422,59.6739 167.755,60.6739 167.5,62C 167.957,64.8644 168.29,67.6978 168.5,70.5 Z"/></g>
<g><path style="opacity:1" fill="#423e3a" d="M 5.5,161.5 C 6.5,161.5 7.5,161.5 8.5,161.5C 9.87753,162.234 11.3775,162.901 13,163.5C 13.5396,165.135 13.0396,166.468 11.5,167.5C 12.6119,168.265 13.2786,169.265 13.5,170.5C 11.4024,171.935 9.06905,173.102 6.5,174C 9.69674,174.987 12.5301,174.487 15,172.5C 15.8265,176.541 15.6599,180.541 14.5,184.5C 11.7163,185.392 9.04959,186.558 6.5,188C 7.09442,188.464 7.76109,188.631 8.5,188.5C 10.1887,189.304 11.8554,190.304 13.5,191.5C 10.9135,192.48 8.24688,192.813 5.5,192.5C 5.5,182.167 5.5,171.833 5.5,161.5 Z"/></g>
<g><path style="opacity:1" fill="#e5d2ae" d="M 28.5,29.5 C 33.6777,31.199 38.8443,31.8656 44,31.5C 47.4161,31.2503 50.7495,30.5836 54,29.5C 57.3149,31.1953 60.8149,32.1953 64.5,32.5C 63.4019,33.397 63.4019,34.2303 64.5,35C 63.9056,35.4643 63.2389,35.631 62.5,35.5C 61.5326,36.8062 60.1993,37.4729 58.5,37.5C 57.7321,36.7375 57.2321,35.7375 57,34.5C 56.6667,35.1667 56.3333,35.8333 56,36.5C 53.5238,34.0515 50.5238,34.0515 47,36.5C 46.2753,35.9415 45.4419,35.6082 44.5,35.5C 42.4981,37.6199 40.3314,39.6199 38,41.5C 36.3548,45.8666 35.1881,50.3666 34.5,55C 34.8985,67.1514 35.2318,79.3181 35.5,91.5C 35.2908,92.9945 34.6241,94.1612 33.5,95C 35.3326,105.917 36.3326,117.084 36.5,128.5C 36.2037,134.551 35.8703,140.384 35.5,146C 36.0712,147.205 36.7379,148.372 37.5,149.5C 38.1924,148.975 38.6924,148.308 39,147.5C 37.7501,157.251 39.5835,166.417 44.5,175C 49.2522,174.957 53.5855,176.124 57.5,178.5C 52.2954,179.192 46.962,180.192 41.5,181.5C 41.1667,179.5 40.8333,177.5 40.5,175.5C 37.1909,175.692 34.6909,174.359 33,171.5C 32.2961,159.109 32.4627,146.942 33.5,135C 32.7113,133.374 31.7113,131.874 30.5,130.5C 31.9618,130.935 32.9618,130.102 33.5,128C 33.2005,125.976 32.3671,125.476 31,126.5C 31.199,119.801 31.0323,113.301 30.5,107C 30.9444,105.238 31.4444,105.405 32,107.5C 32.8438,104.394 32.3438,101.561 30.5,99C 30.6667,98.5 30.8333,98 31,97.5C 31.4512,99.9288 32.2845,100.096 33.5,98C 32.8502,95.5438 31.8502,93.2105 30.5,91C 33.5347,87.473 33.868,83.6396 31.5,79.5C 29.4473,75.368 28.4473,70.868 28.5,66C 28.3062,56.2734 28.9729,46.7734 30.5,37.5C 29.2147,34.9795 28.5481,32.3128 28.5,29.5 Z"/></g>
<g><path style="opacity:1" fill="#551b1b" d="M 63.5,21.5 C 106.125,21.2624 148.792,20.9291 191.5,20.5C 191.833,20.5 192.167,20.5 192.5,20.5C 193.679,77.5214 193.679,134.521 192.5,191.5C 192.167,191.5 191.833,191.5 191.5,191.5C 188.587,192.241 185.587,192.741 182.5,193C 161.5,193.667 140.5,193.667 119.5,193C 118.892,192.13 118.059,191.63 117,191.5C 102.616,192.809 88.1156,193.475 73.5,193.5C 56.6721,193.268 40.0054,193.101 23.5,193C 20.6819,189.662 19.8485,185.829 21,181.5C 21.5556,183.595 22.0556,183.762 22.5,182C 21.6178,178.559 21.2845,175.059 21.5,171.5C 22.322,169.611 23.1553,167.611 24,165.5C 24.6667,164.167 25.3333,164.167 26,165.5C 27.2259,170.494 26.3926,174.994 23.5,179C 23.9444,180.762 24.4444,180.595 25,178.5C 26.2022,180.553 26.5356,182.553 26,184.5C 27.6667,185.5 29,186.833 30,188.5C 30.6924,187.975 31.1924,187.308 31.5,186.5C 39.9904,185.833 48.3237,185.167 56.5,184.5C 74.3265,184.679 92.1598,185.679 110,187.5C 118.697,187.114 127.53,186.614 136.5,186C 138.382,185.802 140.048,185.302 141.5,184.5C 147.568,184.155 153.568,184.155 159.5,184.5C 165.282,182.617 171.115,181.95 177,182.5C 179.639,183.994 182.472,184.661 185.5,184.5C 183.516,179.595 182.85,174.595 183.5,169.5C 184.38,165.529 185.047,161.529 185.5,157.5C 185.918,156.778 186.584,156.278 187.5,156C 186.02,154.701 185.354,153.034 185.5,151C 186.552,146.764 186.552,142.764 185.5,139C 186.966,129.78 187.632,120.446 187.5,111C 187.709,102.867 187.042,94.8674 185.5,87C 186.461,80.8736 187.461,74.7069 188.5,68.5C 187.703,56.698 186.703,45.0313 185.5,33.5C 185.5,32.1667 185.5,30.8333 185.5,29.5C 183.833,29.5 182.167,29.5 180.5,29.5C 179.262,29.19 179.262,28.69 180.5,28C 179.667,27.8333 178.833,27.6667 178,27.5C 172.362,29.052 166.862,28.7187 161.5,26.5C 156.405,27.5936 151.405,27.5936 146.5,26.5C 144.089,25.5456 141.923,24.2123 140,22.5C 139.055,22.9054 138.388,23.572 138,24.5C 136.173,23.3384 134.506,23.6718 133,25.5C 113.978,26.6035 94.6442,26.6035 75,25.5C 74.1667,25.6667 73.3333,25.8333 72.5,26C 73.8333,26.3333 75.1667,26.6667 76.5,27C 70.9067,29.1565 65.5733,28.8231 60.5,26C 62.3049,25.028 63.9716,23.8613 65.5,22.5C 65.0431,21.7025 64.3764,21.3691 63.5,21.5 Z"/></g>
<g><path style="opacity:1" fill="#532519" d="M 141.5,184.5 C 140.048,185.302 138.382,185.802 136.5,186C 127.53,186.614 118.697,187.114 110,187.5C 92.1598,185.679 74.3265,184.679 56.5,184.5C 58.1029,182.706 60.2696,181.706 63,181.5C 67.544,182.116 72.044,182.949 76.5,184C 92.1667,184.667 107.833,184.667 123.5,184C 127.057,183.402 130.557,182.569 134,181.5C 136.494,182.824 138.994,183.824 141.5,184.5 Z"/></g>
<g><path style="opacity:1" fill="#3c1716" d="M 20.5,71.5 C 20.1224,92.5655 20.7891,113.565 22.5,134.5C 22,135.5 21.5,136.5 21,137.5C 20.1977,146.245 20.3643,154.912 21.5,163.5C 21.5,166.167 21.5,168.833 21.5,171.5C 21.2845,175.059 21.6178,178.559 22.5,182C 22.0556,183.762 21.5556,183.595 21,181.5C 19.8485,185.829 20.6819,189.662 23.5,193C 40.0054,193.101 56.6721,193.268 73.5,193.5C 88.1156,193.475 102.616,192.809 117,191.5C 118.059,191.63 118.892,192.13 119.5,193C 140.5,193.667 161.5,193.667 182.5,193C 185.587,192.741 188.587,192.241 191.5,191.5C 191.5,192.833 191.5,194.167 191.5,195.5C 134.913,195.135 78.2467,195.135 21.5,195.5C 21.6716,194.508 21.3382,193.842 20.5,193.5C 20.5,193.167 20.5,192.833 20.5,192.5C 19.3395,152.131 19.3395,111.797 20.5,71.5 Z"/></g>
<g><path style="opacity:1" fill="#bebbb6" d="M 20.5,193.5 C 20.5,193.833 20.5,194.167 20.5,194.5C 14.1667,194.5 7.83333,194.5 1.5,194.5C 1.81277,198.042 1.47944,201.375 0.5,204.5C 0.5,200.833 0.5,197.167 0.5,193.5C 7.16667,193.5 13.8333,193.5 20.5,193.5 Z"/></g>
<g><path style="opacity:1" fill="#24120e" d="M 195.5,21.5 C 196.499,78.3309 196.832,135.331 196.5,192.5C 195.167,192.5 193.833,192.5 192.5,192.5C 192.5,193.833 192.5,195.167 192.5,196.5C 135.331,196.832 78.3309,196.499 21.5,195.5C 78.2467,195.135 134.913,195.135 191.5,195.5C 191.5,194.167 191.5,192.833 191.5,191.5C 191.833,191.5 192.167,191.5 192.5,191.5C 193.5,191.5 194.5,191.5 195.5,191.5C 194.875,134.839 194.875,78.1719 195.5,21.5 Z"/></g>
<g><path style="opacity:1" fill="#060201" d="M 211.5,197.5 C 211.167,197.5 210.833,197.5 210.5,197.5C 206.154,197.334 201.821,197.501 197.5,198C 197.629,201.955 197.629,206.122 197.5,210.5C 197.5,210.833 197.5,211.167 197.5,211.5C 196.513,206.695 196.179,201.695 196.5,196.5C 201.695,196.179 206.695,196.513 211.5,197.5 Z"/></g>
<g><path style="opacity:1" fill="#938f8b" d="M 190.5,198.5 C 184.833,198.5 179.167,198.5 173.5,198.5C 172.372,201.438 171.205,204.438 170,207.5C 169.536,206.906 169.369,206.239 169.5,205.5C 169.083,202.921 169.75,200.754 171.5,199C 169.5,198.833 167.5,198.667 165.5,198.5C 163.048,198.539 161.048,199.206 159.5,200.5C 158.065,202.598 156.898,204.931 156,207.5C 155.013,204.303 155.513,201.47 157.5,199C 153.789,198.175 150.122,198.341 146.5,199.5C 145.608,202.284 144.442,204.95 143,207.5C 142.536,206.906 142.369,206.239 142.5,205.5C 142.083,202.921 142.75,200.754 144.5,199C 140.848,198.501 137.182,198.335 133.5,198.5C 132.833,198.5 132.167,198.5 131.5,198.5C 127.029,197.911 123.029,198.577 119.5,200.5C 118.065,202.598 116.898,204.931 116,207.5C 115.013,204.303 115.513,201.47 117.5,199C 113.179,198.501 108.846,198.334 104.5,198.5C 100.351,197.92 96.6843,198.586 93.5,200.5C 91.9806,203.026 90.6473,205.026 89.5,206.5C 89.0423,203.606 89.709,201.106 91.5,199C 87.3112,198.188 83.3112,198.355 79.5,199.5C 78.243,202.096 77.0764,204.763 76,207.5C 75.0135,204.303 75.5135,201.47 77.5,199C 73.1794,198.501 68.8461,198.334 64.5,198.5C 57.8333,198.5 51.1667,198.5 44.5,198.5C 39.456,198.173 34.456,198.506 29.5,199.5C 28.6083,202.284 27.4416,204.95 26,207.5C 25.5357,206.906 25.369,206.239 25.5,205.5C 25.0833,202.921 25.75,200.754 27.5,199C 25.5,198.667 23.5,198.333 21.5,198C 79.2076,197.171 135.541,197.337 190.5,198.5 Z"/></g>
<g><path style="opacity:1" fill="#100e09" d="M 79.5,199.5 C 83.3112,198.355 87.3112,198.188 91.5,199C 89.709,201.106 89.0423,203.606 89.5,206.5C 88.3882,204.401 87.7215,202.067 87.5,199.5C 84.8333,199.5 82.1667,199.5 79.5,199.5 Z"/></g>
<g><path style="opacity:1" fill="#13110d" d="M 104.5,198.5 C 104.5,198.833 104.5,199.167 104.5,199.5C 102.692,200.918 102.025,202.918 102.5,205.5C 101.4,203.723 100.566,201.723 100,199.5C 98.4815,199.057 97.3148,199.724 96.5,201.5C 95.5832,200.873 94.5832,200.539 93.5,200.5C 96.6843,198.586 100.351,197.92 104.5,198.5 Z"/></g>
<g><path style="opacity:1" fill="#beb9b5" d="M 213.5,194.5 C 207.167,194.5 200.833,194.5 194.5,194.5C 194.813,198.042 194.479,201.375 193.5,204.5C 193.5,200.833 193.5,197.167 193.5,193.5C 200.354,193.176 207.021,193.509 213.5,194.5 Z"/></g>
<g><path style="opacity:1" fill="#a39f9b" d="M 104.5,199.5 C 105.239,199.369 105.906,199.536 106.5,200C 105.071,202.69 104.071,205.523 103.5,208.5C 103.167,208.5 102.833,208.5 102.5,208.5C 102.5,207.5 102.5,206.5 102.5,205.5C 102.025,202.918 102.692,200.918 104.5,199.5 Z"/></g>
<g><path style="opacity:1" fill="#060301" d="M 18.5,197.5 C 18.1667,197.5 17.8333,197.5 17.5,197.5C 13.1667,197.5 8.83333,197.5 4.5,197.5C 4.23071,201.931 4.56404,206.265 5.5,210.5C 4.83333,210.5 4.5,210.833 4.5,211.5C 3.51283,206.695 3.17949,201.695 3.5,196.5C 8.69463,196.179 13.6946,196.513 18.5,197.5 Z"/></g>
<g><path style="opacity:1" fill="#413e39" d="M 44.5,198.5 C 44.9867,199.473 45.4867,200.473 46,201.5C 47.1531,199.503 48.6531,199.17 50.5,200.5C 51.0276,202.336 51.6942,204.003 52.5,205.5C 52.369,206.239 52.5357,206.906 53,207.5C 54.122,205.593 54.9553,203.593 55.5,201.5C 56.8664,199.649 58.533,199.316 60.5,200.5C 61.0276,202.336 61.6942,204.003 62.5,205.5C 62.369,206.239 62.5357,206.906 63,207.5C 64.3116,205.045 65.4782,202.545 66.5,200C 65.9056,199.536 65.2389,199.369 64.5,199.5C 64.5,199.167 64.5,198.833 64.5,198.5C 68.8461,198.334 73.1794,198.501 77.5,199C 75.5135,201.47 75.0135,204.303 76,207.5C 77.0764,204.763 78.243,202.096 79.5,199.5C 82.1667,199.5 84.8333,199.5 87.5,199.5C 87.7215,202.067 88.3882,204.401 89.5,206.5C 90.6473,205.026 91.9806,203.026 93.5,200.5C 94.5832,200.539 95.5832,200.873 96.5,201.5C 97.3148,199.724 98.4815,199.057 100,199.5C 100.566,201.723 101.4,203.723 102.5,205.5C 102.5,206.5 102.5,207.5 102.5,208.5C 75.5,208.5 48.5,208.5 21.5,208.5C 21.1826,205.428 21.5159,202.428 22.5,199.5C 23.5176,201.594 24.5176,203.594 25.5,205.5C 25.369,206.239 25.5357,206.906 26,207.5C 27.4416,204.95 28.6083,202.284 29.5,199.5C 34.456,198.506 39.456,198.173 44.5,198.5 Z"/></g>
<g><path style="opacity:1" fill="#aaa6a3" d="M 39.5,199.5 C 40.5,199.5 41.5,199.5 42.5,199.5C 40.3213,209.9 39.3213,209.9 39.5,199.5 Z"/></g>
<g><path style="opacity:1" fill="#a8a5a1" d="M 64.5,199.5 C 65.2389,199.369 65.9056,199.536 66.5,200C 65.4782,202.545 64.3116,205.045 63,207.5C 62.5357,206.906 62.369,206.239 62.5,205.5C 62.0254,202.918 62.6921,200.918 64.5,199.5 Z"/></g>
<g><path style="opacity:1" fill="#aaa7a3" d="M 55.5,201.5 C 54.9553,203.593 54.122,205.593 53,207.5C 52.5357,206.906 52.369,206.239 52.5,205.5C 52.5,203.5 52.5,201.5 52.5,199.5C 54.1788,199.285 55.1788,199.952 55.5,201.5 Z"/></g>
<g><path style="opacity:1" fill="#0d0c07" d="M 44.5,198.5 C 51.1667,198.5 57.8333,198.5 64.5,198.5C 64.5,198.833 64.5,199.167 64.5,199.5C 62.6921,200.918 62.0254,202.918 62.5,205.5C 61.6942,204.003 61.0276,202.336 60.5,200.5C 58.533,199.316 56.8664,199.649 55.5,201.5C 55.1788,199.952 54.1788,199.285 52.5,199.5C 52.5,201.5 52.5,203.5 52.5,205.5C 51.6942,204.003 51.0276,202.336 50.5,200.5C 48.6531,199.17 47.1531,199.503 46,201.5C 45.4867,200.473 44.9867,199.473 44.5,198.5 Z"/></g>
<g><path style="opacity:1" fill="#44403b" d="M 104.5,199.5 C 104.5,199.167 104.5,198.833 104.5,198.5C 108.846,198.334 113.179,198.501 117.5,199C 115.513,201.47 115.013,204.303 116,207.5C 116.898,204.931 118.065,202.598 119.5,200.5C 122.054,199.612 124.721,199.279 127.5,199.5C 127.41,202.152 128.076,204.485 129.5,206.5C 130.686,205.488 131.686,203.654 132.5,201C 132.43,200.235 132.097,199.735 131.5,199.5C 131.5,199.167 131.5,198.833 131.5,198.5C 132.167,198.5 132.833,198.5 133.5,198.5C 133.393,200.379 133.893,200.712 135,199.5C 136.391,201.715 138.057,201.715 140,199.5C 140.845,201.611 141.678,203.611 142.5,205.5C 142.369,206.239 142.536,206.906 143,207.5C 144.442,204.95 145.608,202.284 146.5,199.5C 150.122,198.341 153.789,198.175 157.5,199C 155.513,201.47 155.013,204.303 156,207.5C 156.898,204.931 158.065,202.598 159.5,200.5C 162.054,199.612 164.721,199.279 167.5,199.5C 167.259,201.898 167.926,203.898 169.5,205.5C 169.369,206.239 169.536,206.906 170,207.5C 171.205,204.438 172.372,201.438 173.5,198.5C 179.167,198.5 184.833,198.5 190.5,198.5C 192.299,201.505 192.966,204.838 192.5,208.5C 162.833,208.5 133.167,208.5 103.5,208.5C 104.071,205.523 105.071,202.69 106.5,200C 105.906,199.536 105.239,199.369 104.5,199.5 Z"/></g>
<g><path style="opacity:1" fill="#aca8a4" d="M 182.5,199.5 C 183.873,199.343 185.207,199.51 186.5,200C 183.279,209.985 181.946,209.818 182.5,199.5 Z"/></g>
<g><path style="opacity:1" fill="#b0aca8" d="M 131.5,199.5 C 132.097,199.735 132.43,200.235 132.5,201C 131.686,203.654 130.686,205.488 129.5,206.5C 128.99,203.612 129.656,201.279 131.5,199.5 Z"/></g>
<g><path style="opacity:1" fill="#110f0b" d="M 169.5,205.5 C 167.926,203.898 167.259,201.898 167.5,199.5C 164.721,199.279 162.054,199.612 159.5,200.5C 161.048,199.206 163.048,198.539 165.5,198.5C 167.5,198.667 169.5,198.833 171.5,199C 169.75,200.754 169.083,202.921 169.5,205.5 Z"/></g>
<g><path style="opacity:1" fill="#110f0b" d="M 133.5,198.5 C 137.182,198.335 140.848,198.501 144.5,199C 142.75,200.754 142.083,202.921 142.5,205.5C 141.678,203.611 140.845,201.611 140,199.5C 138.057,201.715 136.391,201.715 135,199.5C 133.893,200.712 133.393,200.379 133.5,198.5 Z"/></g>
<g><path style="opacity:1" fill="#110f0b" d="M 131.5,198.5 C 131.5,198.833 131.5,199.167 131.5,199.5C 129.656,201.279 128.99,203.612 129.5,206.5C 128.076,204.485 127.41,202.152 127.5,199.5C 124.721,199.279 122.054,199.612 119.5,200.5C 123.029,198.577 127.029,197.911 131.5,198.5 Z"/></g>
<g><path style="opacity:1" fill="#35322d" d="M 17.5,197.5 C 17.5,201.833 17.5,206.167 17.5,210.5C 13.5,210.5 9.5,210.5 5.5,210.5C 4.56404,206.265 4.23071,201.931 4.5,197.5C 8.83333,197.5 13.1667,197.5 17.5,197.5 Z"/></g>
<g><path style="opacity:1" fill="#37342f" d="M 210.5,197.5 C 210.5,201.833 210.5,206.167 210.5,210.5C 206.167,210.5 201.833,210.5 197.5,210.5C 197.629,206.122 197.629,201.955 197.5,198C 201.821,197.501 206.154,197.334 210.5,197.5 Z"/></g>
<g><path style="opacity:1" fill="#bfbcb7" d="M 17.5,197.5 C 17.8333,197.5 18.1667,197.5 18.5,197.5C 18.5,197.833 18.5,198.167 18.5,198.5C 18.5,202.833 18.5,207.167 18.5,211.5C 13.8333,211.5 9.16667,211.5 4.5,211.5C 4.5,210.833 4.83333,210.5 5.5,210.5C 9.5,210.5 13.5,210.5 17.5,210.5C 17.5,206.167 17.5,201.833 17.5,197.5 Z"/></g>
<g><path style="opacity:1" fill="#c0beb8" d="M 210.5,197.5 C 210.833,197.5 211.167,197.5 211.5,197.5C 211.5,197.833 211.5,198.167 211.5,198.5C 211.5,202.833 211.5,207.167 211.5,211.5C 206.833,211.5 202.167,211.5 197.5,211.5C 197.5,211.167 197.5,210.833 197.5,210.5C 201.833,210.5 206.167,210.5 210.5,210.5C 210.5,206.167 210.5,201.833 210.5,197.5 Z"/></g>
<g><path style="opacity:1" fill="#4c4844" d="M 20.5,194.5 C 20.7148,196.179 20.0481,197.179 18.5,197.5C 13.6946,196.513 8.69463,196.179 3.5,196.5C 3.17949,201.695 3.51283,206.695 4.5,211.5C 9.16667,211.5 13.8333,211.5 18.5,211.5C 18.5,207.167 18.5,202.833 18.5,198.5C 20.4417,203.056 21.1083,208.056 20.5,213.5C 13.8333,213.5 7.16667,213.5 0.5,213.5C 0.5,210.5 0.5,207.5 0.5,204.5C 1.47944,201.375 1.81277,198.042 1.5,194.5C 7.83333,194.5 14.1667,194.5 20.5,194.5 Z"/></g>
<g><path style="opacity:1" fill="#9c9994" d="M 7.5,198.5 C 15.0349,197.804 16.0349,199.637 10.5,204C 8.86586,204.494 7.19919,204.66 5.5,204.5C 5.61377,202.282 6.28043,200.282 7.5,198.5 Z"/></g>
<g><path style="opacity:1" fill="#4b4844" d="M 213.5,194.5 C 213.715,196.179 213.048,197.179 211.5,197.5C 206.695,196.513 201.695,196.179 196.5,196.5C 196.179,201.695 196.513,206.695 197.5,211.5C 202.167,211.5 206.833,211.5 211.5,211.5C 211.5,207.167 211.5,202.833 211.5,198.5C 213.442,203.056 214.108,208.056 213.5,213.5C 206.833,213.5 200.167,213.5 193.5,213.5C 193.5,210.5 193.5,207.5 193.5,204.5C 194.479,201.375 194.813,198.042 194.5,194.5C 200.833,194.5 207.167,194.5 213.5,194.5 Z"/></g>
<g><path style="opacity:1" fill="#a19e99" d="M 200.5,198.5 C 202.5,198.5 204.5,198.5 206.5,198.5C 205.873,203.119 203.206,205.119 198.5,204.5C 198.253,202.142 198.919,200.142 200.5,198.5 Z"/></g>
</svg>
