<?xml version="1.0" encoding="UTF-8"?>
<!DOCTYPE svg PUBLIC "-//W3C//DTD SVG 1.1//EN" "http://www.w3.org/Graphics/SVG/1.1/DTD/svg11.dtd">
<svg xmlns="http://www.w3.org/2000/svg" version="1.1" width="596px" height="419px" style="shape-rendering:geometricPrecision; text-rendering:geometricPrecision; image-rendering:optimizeQuality; fill-rule:evenodd; clip-rule:evenodd" xmlns:xlink="http://www.w3.org/1999/xlink">
<g><path style="opacity:0.994" fill="#a7a7a7" d="M 33.5,0.5 C 33.5,0.166667 33.5,-0.166667 33.5,-0.5C 67.1667,-0.5 100.833,-0.5 134.5,-0.5C 137.305,0.319481 140.305,0.819481 143.5,1C 163.833,1.66667 184.167,1.66667 204.5,1C 205.056,0.617425 205.389,0.117425 205.5,-0.5C 226.5,-0.5 247.5,-0.5 268.5,-0.5C 280.481,0.832434 292.815,1.4991 305.5,1.5C 318.185,1.4991 330.519,0.832434 342.5,-0.5C 392.5,-0.5 442.5,-0.5 492.5,-0.5C 515.994,0.497578 539.661,0.830911 563.5,0.5C 563.833,2.5 564.167,4.5 564.5,6.5C 554.167,6.5 543.833,6.5 533.5,6.5C 533.5,6.83333 533.5,7.16667 533.5,7.5C 474.5,7.5 415.5,7.5 356.5,7.5C 266.995,7.166 177.662,6.166 88.5,4.5C 89.5,4.16667 90.1667,3.5 90.5,2.5C 91.0431,2.44001 91.3764,2.10667 91.5,1.5C 72.1782,0.500396 52.8448,0.167063 33.5,0.5 Z"/></g>
<g><path style="opacity:1" fill="#555555" d="M 33.5,0.5 C 52.8448,0.167063 72.1782,0.500396 91.5,1.5C 91.3764,2.10667 91.0431,2.44001 90.5,2.5C 61.0047,1.50192 31.338,1.16859 1.5,1.5C 1.16945,22.3401 1.50279,43.0067 2.5,63.5C 2.15829,64.3382 1.49162,64.6716 0.5,64.5C 0.5,43.1667 0.5,21.8333 0.5,0.5C 11.5,0.5 22.5,0.5 33.5,0.5 Z"/></g>
<g><path style="opacity:1" fill="#666666" d="M 134.5,-0.5 C 158.167,-0.5 181.833,-0.5 205.5,-0.5C 205.389,0.117425 205.056,0.617425 204.5,1C 184.167,1.66667 163.833,1.66667 143.5,1C 140.305,0.819481 137.305,0.319481 134.5,-0.5 Z"/></g>
<g><path style="opacity:0.511" fill="#d7d7d7" d="M 268.5,-0.5 C 293.167,-0.5 317.833,-0.5 342.5,-0.5C 330.519,0.832434 318.185,1.4991 305.5,1.5C 292.815,1.4991 280.481,0.832434 268.5,-0.5 Z"/></g>
<g><path style="opacity:1" fill="#373737" d="M 90.5,2.5 C 90.1667,3.5 89.5,4.16667 88.5,4.5C 87.0937,4.97306 86.427,5.97306 86.5,7.5C 61.1667,7.5 35.8333,7.5 10.5,7.5C 11.3128,80.497 11.6462,153.497 11.5,226.5C 11.1667,226.5 10.8333,226.5 10.5,226.5C 10.5,179.833 10.5,133.167 10.5,86.5C 10.8319,76.4778 10.4985,66.4778 9.5,56.5C 6.49297,58.2002 4.15963,60.5336 2.5,63.5C 1.50279,43.0067 1.16945,22.3401 1.5,1.5C 31.338,1.16859 61.0047,1.50192 90.5,2.5 Z"/></g>
<g><path style="opacity:1" fill="#cfcfcf" d="M 533.5,6.5 C 475.499,6.66666 417.499,6.49999 359.5,6C 364.964,5.17403 370.297,3.84069 375.5,2C 427.832,1.50001 480.166,1.33334 532.5,1.5C 532.629,3.2161 532.962,4.88277 533.5,6.5 Z"/></g>
<g><path style="opacity:1" fill="#696969" d="M 492.5,-0.5 C 526.833,-0.5 561.167,-0.5 595.5,-0.5C 595.5,6.83333 595.5,14.1667 595.5,21.5C 592.868,23.1134 590.202,24.78 587.5,26.5C 586.833,20.0125 586.167,13.6792 585.5,7.5C 568.167,7.5 550.833,7.5 533.5,7.5C 533.5,7.16667 533.5,6.83333 533.5,6.5C 543.833,6.5 554.167,6.5 564.5,6.5C 564.167,4.5 563.833,2.5 563.5,0.5C 539.661,0.830911 515.994,0.497578 492.5,-0.5 Z"/></g>
<g><path style="opacity:1" fill="#757575" d="M 88.5,4.5 C 177.662,6.166 266.995,7.166 356.5,7.5C 266.5,7.5 176.5,7.5 86.5,7.5C 86.427,5.97306 87.0937,4.97306 88.5,4.5 Z"/></g>
<g><path style="opacity:1" fill="#050505" d="M 86.5,7.5 C 176.5,7.5 266.5,7.5 356.5,7.5C 415.5,7.5 474.5,7.5 533.5,7.5C 550.833,7.5 568.167,7.5 585.5,7.5C 585.5,29.8333 585.5,52.1667 585.5,74.5C 585.5,74.8333 585.5,75.1667 585.5,75.5C 584.833,53.8333 584.167,32.1667 583.5,10.5C 393.667,9.50029 203.667,9.16696 13.5,9.5C 13.5,22.1667 13.5,34.8333 13.5,47.5C 12.5009,106.998 12.1676,166.664 12.5,226.5C 12.1667,226.5 11.8333,226.5 11.5,226.5C 11.6462,153.497 11.3128,80.497 10.5,7.5C 35.8333,7.5 61.1667,7.5 86.5,7.5 Z"/></g>
<g><path style="opacity:1" fill="#4b4b4b" d="M 583.5,10.5 C 562.833,10.5 542.167,10.5 521.5,10.5C 510.5,10.5 499.5,10.5 488.5,10.5C 458.833,10.5 429.167,10.5 399.5,10.5C 392.833,10.5 386.167,10.5 379.5,10.5C 297.167,10.5 214.833,10.5 132.5,10.5C 114.497,10.3334 96.4969,10.5001 78.5,11C 74.3409,14.2467 70.0076,17.2467 65.5,20C 63.576,21.7498 61.9093,23.5831 60.5,25.5C 51.3708,17.6976 42.0374,17.5309 32.5,25C 30.2663,26.6379 28.933,28.8045 28.5,31.5C 27.5166,35.2984 27.1832,39.2984 27.5,43.5C 22.7331,44.5247 18.0664,45.858 13.5,47.5C 13.5,34.8333 13.5,22.1667 13.5,9.5C 203.667,9.16696 393.667,9.50029 583.5,10.5 Z"/></g>
<g><path style="opacity:1" fill="#8c8c8c" d="M 521.5,10.5 C 542.167,10.5 562.833,10.5 583.5,10.5C 583.5,12.8333 583.5,15.1667 583.5,17.5C 577.899,19.6339 572.566,22.3006 567.5,25.5C 563.672,23.4212 559.672,21.5879 555.5,20C 553.167,19.3333 550.833,19.3333 548.5,20C 550.382,20.1981 552.048,20.6981 553.5,21.5C 551.5,21.5 549.5,21.5 547.5,21.5C 547.265,20.9033 546.765,20.5699 546,20.5C 531.777,26.9146 528.611,36.9146 536.5,50.5C 533.319,54.7653 529.319,58.0986 524.5,60.5C 518.61,53.3102 515.61,44.9769 515.5,35.5C 516.451,34.0813 516.784,32.4147 516.5,30.5C 508.833,30.5 501.167,30.5 493.5,30.5C 502.576,23.4161 511.91,16.7494 521.5,10.5 Z"/></g>
<g><path style="opacity:1" fill="#767676" d="M 132.5,10.5 C 123.519,17.6575 114.185,24.3241 104.5,30.5C 96.1667,30.5 87.8333,30.5 79.5,30.5C 79.3433,31.8734 79.51,33.2068 80,34.5C 80.2784,33.5842 80.7784,32.9175 81.5,32.5C 81.8227,38.6362 81.156,44.6362 79.5,50.5C 77.9925,52.1815 76.9925,54.1815 76.5,56.5C 75.8333,56.8333 75.1667,57.1667 74.5,57.5C 75.9873,53.8546 77.4873,50.188 79,46.5C 79.498,43.5184 79.6646,40.5184 79.5,37.5C 74.542,39.646 69.8753,42.3127 65.5,45.5C 65.6658,40.8215 65.4992,36.1548 65,31.5C 64.1959,28.8541 62.6959,26.8541 60.5,25.5C 61.9093,23.5831 63.576,21.7498 65.5,20C 70.0076,17.2467 74.3409,14.2467 78.5,11C 96.4969,10.5001 114.497,10.3334 132.5,10.5 Z"/></g>
<g><path style="opacity:1" fill="#a9a9a9" d="M 132.5,10.5 C 214.833,10.5 297.167,10.5 379.5,10.5C 370.519,17.6575 361.185,24.3241 351.5,30.5C 269.167,30.5 186.833,30.5 104.5,30.5C 114.185,24.3241 123.519,17.6575 132.5,10.5 Z"/></g>
<g><path style="opacity:1" fill="#cecece" d="M 379.5,10.5 C 386.167,10.5 392.833,10.5 399.5,10.5C 391.453,18.0452 382.453,24.2119 372.5,29C 402.167,29.6667 431.833,29.6667 461.5,29C 469.832,23.1651 478.499,17.8318 487.5,13C 488.252,12.3292 488.586,11.4959 488.5,10.5C 499.5,10.5 510.5,10.5 521.5,10.5C 511.91,16.7494 502.576,23.4161 493.5,30.5C 446.167,30.5 398.833,30.5 351.5,30.5C 361.185,24.3241 370.519,17.6575 379.5,10.5 Z"/></g>
<g><path style="opacity:1" fill="#ebebeb" d="M 399.5,10.5 C 429.167,10.5 458.833,10.5 488.5,10.5C 488.586,11.4959 488.252,12.3292 487.5,13C 478.499,17.8318 469.832,23.1651 461.5,29C 431.833,29.6667 402.167,29.6667 372.5,29C 382.453,24.2119 391.453,18.0452 399.5,10.5 Z"/></g>
<g><path style="opacity:1" fill="#4e4e4e" d="M 583.5,17.5 C 583.705,64.5011 584.038,111.501 584.5,158.5C 584.832,190.338 584.498,222.004 583.5,253.5C 583.5,218.167 583.5,182.833 583.5,147.5C 583.5,139.167 583.5,130.833 583.5,122.5C 583.5,114.167 583.5,105.833 583.5,97.5C 573.199,100.817 563.532,105.484 554.5,111.5C 554.5,97.8333 554.5,84.1667 554.5,70.5C 549.821,70.6658 545.155,70.4992 540.5,70C 536.54,68.357 532.54,66.6903 528.5,65C 526.959,63.6288 525.625,62.1288 524.5,60.5C 529.319,58.0986 533.319,54.7653 536.5,50.5C 537.404,51.209 537.737,52.209 537.5,53.5C 538.5,53.5 539.5,53.5 540.5,53.5C 541.987,54.8036 543.654,55.9702 545.5,57C 550.194,57.5639 554.86,57.3973 559.5,56.5C 567.85,52.8319 572.183,46.4986 572.5,37.5C 571.431,33.1896 569.764,29.1896 567.5,25.5C 572.566,22.3006 577.899,19.6339 583.5,17.5 Z"/></g>
<g><path style="opacity:1" fill="#5d5d5d" d="M 42.5,21.5 C 43.1667,21.5 43.8333,21.5 44.5,21.5C 44.5,33.1667 44.5,44.8333 44.5,56.5C 43.5489,55.0813 43.2155,53.4147 43.5,51.5C 43.7845,49.5853 43.4511,47.9187 42.5,46.5C 42.5,38.1667 42.5,29.8333 42.5,21.5 Z"/></g>
<g><path style="opacity:1" fill="#a7a7a7" d="M 47.5,56.5 C 46.5,56.5 45.5,56.5 44.5,56.5C 44.5,44.8333 44.5,33.1667 44.5,21.5C 50.2105,20.9405 54.7105,23.2739 58,28.5C 59.3897,35.6653 57.223,41.4986 51.5,46C 50.2068,46.49 48.8734,46.6567 47.5,46.5C 47.5,49.8333 47.5,53.1667 47.5,56.5 Z"/></g>
<g><path style="opacity:1" fill="#4e4e4e" d="M 585.5,7.5 C 586.167,13.6792 586.833,20.0125 587.5,26.5C 590.202,24.78 592.868,23.1134 595.5,21.5C 595.5,38.5 595.5,55.5 595.5,72.5C 594.167,72.8333 592.833,73.1667 591.5,73.5C 589.435,73.5172 587.435,73.8505 585.5,74.5C 585.5,52.1667 585.5,29.8333 585.5,7.5 Z"/></g>
<g><path style="opacity:1" fill="#393939" d="M 60.5,25.5 C 62.6959,26.8541 64.1959,28.8541 65,31.5C 65.4992,36.1548 65.6658,40.8215 65.5,45.5C 63.9125,48.7584 61.5791,51.4251 58.5,53.5C 59.3431,50.4838 60.8431,47.8171 63,45.5C 65.3668,33.9472 64.3668,33.6139 60,44.5C 57.2555,48.7672 53.4221,51.1005 48.5,51.5C 48.7845,53.4147 48.4511,55.0813 47.5,56.5C 47.5,53.1667 47.5,49.8333 47.5,46.5C 48.8734,46.6567 50.2068,46.49 51.5,46C 57.223,41.4986 59.3897,35.6653 58,28.5C 54.7105,23.2739 50.2105,20.9405 44.5,21.5C 43.8333,21.5 43.1667,21.5 42.5,21.5C 32.197,24.9496 29.697,31.6162 35,41.5C 37.1277,43.8077 39.6277,45.4744 42.5,46.5C 43.4511,47.9187 43.7845,49.5853 43.5,51.5C 38.5537,51.0646 34.7204,48.7312 32,44.5C 30.2699,40.1913 29.1033,35.858 28.5,31.5C 28.933,28.8045 30.2663,26.6379 32.5,25C 42.0374,17.5309 51.3708,17.6976 60.5,25.5 Z"/></g>
<g><path style="opacity:1" fill="#cacaca" d="M 42.5,21.5 C 42.5,29.8333 42.5,38.1667 42.5,46.5C 39.6277,45.4744 37.1277,43.8077 35,41.5C 29.697,31.6162 32.197,24.9496 42.5,21.5 Z"/></g>
<g><path style="opacity:1" fill="#424242" d="M 104.5,30.5 C 186.833,30.5 269.167,30.5 351.5,30.5C 398.833,30.5 446.167,30.5 493.5,30.5C 501.167,30.5 508.833,30.5 516.5,30.5C 516.784,32.4147 516.451,34.0813 515.5,35.5C 515.5,34.1667 515.5,32.8333 515.5,31.5C 511.298,31.1832 507.298,31.5166 503.5,32.5C 464.833,32.5 426.167,32.5 387.5,32.5C 308.001,31.8893 228.334,31.8893 148.5,32.5C 126.167,31.1667 103.833,31.1667 81.5,32.5C 80.7784,32.9175 80.2784,33.5842 80,34.5C 79.51,33.2068 79.3433,31.8734 79.5,30.5C 87.8333,30.5 96.1667,30.5 104.5,30.5 Z"/></g>
<g><path style="opacity:1" fill="#252525" d="M 567.5,25.5 C 569.764,29.1896 571.431,33.1896 572.5,37.5C 572.183,46.4986 567.85,52.8319 559.5,56.5C 563.608,52.8865 566.775,48.5531 569,43.5C 569.667,40.1667 569.667,36.8333 569,33.5C 566.773,48.5585 558.273,54.2252 543.5,50.5C 543.5,48.5 544.5,47.5 546.5,47.5C 558.25,48.0862 564.25,42.4195 564.5,30.5C 565.234,29.2921 565.567,27.9587 565.5,26.5C 564.448,26.3505 563.448,26.5172 562.5,27C 554.5,35 546.5,43 538.5,51C 539.044,51.7172 539.711,52.2172 540.5,52.5C 540.5,52.8333 540.5,53.1667 540.5,53.5C 539.5,53.5 538.5,53.5 537.5,53.5C 537.737,52.209 537.404,51.209 536.5,50.5C 528.611,36.9146 531.777,26.9146 546,20.5C 546.765,20.5699 547.265,20.9033 547.5,21.5C 539.292,23.8946 536.459,29.2279 539,37.5C 539.36,39.4211 540.194,41.0878 541.5,42.5C 547.814,37.3535 553.981,32.0201 560,26.5C 559.459,23.1071 557.293,21.4404 553.5,21.5C 552.048,20.6981 550.382,20.1981 548.5,20C 550.833,19.3333 553.167,19.3333 555.5,20C 559.672,21.5879 563.672,23.4212 567.5,25.5 Z"/></g>
<g><path style="opacity:1" fill="#cacaca" d="M 547.5,21.5 C 549.5,21.5 551.5,21.5 553.5,21.5C 557.293,21.4404 559.459,23.1071 560,26.5C 553.981,32.0201 547.814,37.3535 541.5,42.5C 540.194,41.0878 539.36,39.4211 539,37.5C 536.459,29.2279 539.292,23.8946 547.5,21.5 Z"/></g>
<g><path style="opacity:1" fill="#c1c1c1" d="M 564.5,30.5 C 561.044,32.7833 557.71,35.2833 554.5,38C 551.998,41.3325 549.332,44.4992 546.5,47.5C 544.5,47.5 543.5,48.5 543.5,50.5C 542.5,51.1667 541.5,51.8333 540.5,52.5C 539.711,52.2172 539.044,51.7172 538.5,51C 546.5,43 554.5,35 562.5,27C 563.448,26.5172 564.448,26.3505 565.5,26.5C 565.567,27.9587 565.234,29.2921 564.5,30.5 Z"/></g>
<g><path style="opacity:0.997" fill="#797979" d="M 387.5,32.5 C 349.485,31.8395 311.819,32.5061 274.5,34.5C 272.833,35.1667 271.167,35.8333 269.5,36.5C 264.523,35.3097 259.523,35.3097 254.5,36.5C 253.5,36.5 252.5,36.5 251.5,36.5C 249.585,36.7845 247.919,36.4511 246.5,35.5C 218.517,34.4932 185.85,34.1599 148.5,34.5C 148.5,33.8333 148.5,33.1667 148.5,32.5C 228.334,31.8893 308.001,31.8893 387.5,32.5 Z"/></g>
<g><path style="opacity:0.997" fill="#d2d2d2" d="M 387.5,32.5 C 387.167,33.5 386.5,34.1667 385.5,34.5C 348.5,34.5 311.5,34.5 274.5,34.5C 311.819,32.5061 349.485,31.8395 387.5,32.5 Z"/></g>
<g><path style="opacity:0.998" fill="#7b7b7b" d="M 387.5,32.5 C 426.167,32.5 464.833,32.5 503.5,32.5C 482.353,34.1633 461.02,35.1633 439.5,35.5C 438.081,36.4511 436.415,36.7845 434.5,36.5C 431.362,37.6813 428.362,37.6813 425.5,36.5C 418.642,35.262 411.642,35.262 404.5,36.5C 398.525,35.7697 392.191,35.4363 385.5,35.5C 385.5,35.1667 385.5,34.8333 385.5,34.5C 386.5,34.1667 387.167,33.5 387.5,32.5 Z"/></g>
<g><path style="opacity:0.985" fill="#adadad" d="M 148.5,32.5 C 129.488,32.1671 110.488,32.5004 91.5,33.5C 104.817,34.4992 118.15,34.8325 131.5,34.5C 133.279,36.3435 135.612,37.0102 138.5,36.5C 122.437,37.0759 106.271,37.4093 90,37.5C 88.6739,37.7549 87.6739,38.4216 87,39.5C 87.0434,44.2872 85.8767,48.6205 83.5,52.5C 84.64,48.9007 85.14,45.234 85,41.5C 84.2699,45.3919 82.6033,48.7253 80,51.5C 79.6012,51.2716 79.4346,50.9382 79.5,50.5C 81.156,44.6362 81.8227,38.6362 81.5,32.5C 103.833,31.1667 126.167,31.1667 148.5,32.5 Z"/></g>
<g><path style="opacity:0.996" fill="#ececec" d="M 148.5,32.5 C 148.5,33.1667 148.5,33.8333 148.5,34.5C 148.167,34.5 147.833,34.5 147.5,34.5C 142.167,34.5 136.833,34.5 131.5,34.5C 118.15,34.8325 104.817,34.4992 91.5,33.5C 110.488,32.5004 129.488,32.1671 148.5,32.5 Z"/></g>
<g><path style="opacity:0.714" fill="#a3a3a3" d="M 274.5,34.5 C 311.5,34.5 348.5,34.5 385.5,34.5C 385.5,34.8333 385.5,35.1667 385.5,35.5C 368.83,35.3334 352.163,35.5001 335.5,36C 334.584,36.2784 333.918,36.7784 333.5,37.5C 333.167,37.5 332.833,37.5 332.5,37.5C 332.389,36.8826 332.056,36.3826 331.5,36C 323.323,35.1772 315.323,35.3439 307.5,36.5C 299.16,35.2029 290.826,35.2029 282.5,36.5C 278.178,37.7259 273.845,37.7259 269.5,36.5C 271.167,35.8333 272.833,35.1667 274.5,34.5 Z"/></g>
<g><path style="opacity:1" fill="#0b0b0b" d="M 28.5,31.5 C 29.1033,35.858 30.2699,40.1913 32,44.5C 34.7204,48.7312 38.5537,51.0646 43.5,51.5C 43.2155,53.4147 43.5489,55.0813 44.5,56.5C 35.8987,56.6235 30.2321,52.2902 27.5,43.5C 27.1832,39.2984 27.5166,35.2984 28.5,31.5 Z"/></g>
<g><path style="opacity:0.296" fill="#a7a7a7" d="M 131.5,34.5 C 136.833,34.5 142.167,34.5 147.5,34.5C 153.274,35.9457 159.274,36.6123 165.5,36.5C 156.582,37.226 147.582,37.226 138.5,36.5C 135.612,37.0102 133.279,36.3435 131.5,34.5 Z"/></g>
<g><path style="opacity:0.335" fill="#595959" d="M 147.5,34.5 C 147.833,34.5 148.167,34.5 148.5,34.5C 185.85,34.1599 218.517,34.4932 246.5,35.5C 222.661,35.1691 198.994,35.5024 175.5,36.5C 172.348,37.239 169.015,37.239 165.5,36.5C 159.274,36.6123 153.274,35.9457 147.5,34.5 Z"/></g>
<g><path style="opacity:0.306" fill="#ababab" d="M 175.5,36.5 C 198.994,35.5024 222.661,35.1691 246.5,35.5C 247.919,36.4511 249.585,36.7845 251.5,36.5C 226.348,37.0759 201.015,37.0759 175.5,36.5 Z"/></g>
<g><path style="opacity:0.175" fill="#d1d1d1" d="M 307.5,36.5 C 299.193,37.5771 290.86,37.5771 282.5,36.5C 290.826,35.2029 299.16,35.2029 307.5,36.5 Z"/></g>
<g><path style="opacity:0.216" fill="#c9c9c9" d="M 307.5,36.5 C 315.323,35.3439 323.323,35.1772 331.5,36C 332.056,36.3826 332.389,36.8826 332.5,37.5C 324.23,36.6916 315.896,36.3583 307.5,36.5 Z"/></g>
<g><path style="opacity:0.161" fill="#cbcbcb" d="M 385.5,35.5 C 392.191,35.4363 398.525,35.7697 404.5,36.5C 380.82,36.9607 357.153,37.294 333.5,37.5C 333.918,36.7784 334.584,36.2784 335.5,36C 352.163,35.5001 368.83,35.3334 385.5,35.5 Z"/></g>
<g><path style="opacity:0.093" fill="#cfcfcf" d="M 425.5,36.5 C 418.428,36.8988 411.428,36.8988 404.5,36.5C 411.642,35.262 418.642,35.262 425.5,36.5 Z"/></g>
<g><path style="opacity:0.173" fill="#acacab" d="M 439.5,35.5 C 463.169,35.3334 486.836,35.5 510.5,36C 511.293,43.3406 512.96,50.5072 515.5,57.5C 511.507,51.2159 509.507,44.2159 509.5,36.5C 484.222,36.9489 459.222,36.9489 434.5,36.5C 436.415,36.7845 438.081,36.4511 439.5,35.5 Z"/></g>
<g><path style="opacity:0.016" fill="#d0d0d0" d="M 269.5,36.5 C 264.526,36.7562 259.526,36.7562 254.5,36.5C 259.523,35.3097 264.523,35.3097 269.5,36.5 Z"/></g>
<g><path style="opacity:1" fill="#070707" d="M 58.5,53.5 C 55.0486,56.1033 51.382,57.1033 47.5,56.5C 48.4511,55.0813 48.7845,53.4147 48.5,51.5C 53.4221,51.1005 57.2555,48.7672 60,44.5C 64.3668,33.6139 65.3668,33.9472 63,45.5C 60.8431,47.8171 59.3431,50.4838 58.5,53.5 Z"/></g>
<g><path style="opacity:1" fill="#050505" d="M 559.5,56.5 C 554.86,57.3973 550.194,57.5639 545.5,57C 543.654,55.9702 541.987,54.8036 540.5,53.5C 540.5,53.1667 540.5,52.8333 540.5,52.5C 541.5,51.8333 542.5,51.1667 543.5,50.5C 558.273,54.2252 566.773,48.5585 569,33.5C 569.667,36.8333 569.667,40.1667 569,43.5C 566.775,48.5531 563.608,52.8865 559.5,56.5 Z"/></g>
<g><path style="opacity:1" fill="#888888" d="M 564.5,30.5 C 564.25,42.4195 558.25,48.0862 546.5,47.5C 549.332,44.4992 551.998,41.3325 554.5,38C 557.71,35.2833 561.044,32.7833 564.5,30.5 Z"/></g>
<g><path style="opacity:1" fill="#8c8c8c" d="M 74.5,57.5 C 69.17,63.1777 62.8367,67.1777 55.5,69.5C 51.1667,69.5 46.8333,69.5 42.5,69.5C 42.5,71.5 42.5,73.5 42.5,75.5C 37.9681,76.7632 33.6347,78.5965 29.5,81C 24.2765,84.4414 18.9431,87.6081 13.5,90.5C 13.5,76.1667 13.5,61.8333 13.5,47.5C 18.0664,45.858 22.7331,44.5247 27.5,43.5C 30.2321,52.2902 35.8987,56.6235 44.5,56.5C 45.5,56.5 46.5,56.5 47.5,56.5C 51.382,57.1033 55.0486,56.1033 58.5,53.5C 61.5791,51.4251 63.9125,48.7584 65.5,45.5C 69.8753,42.3127 74.542,39.646 79.5,37.5C 79.6646,40.5184 79.498,43.5184 79,46.5C 77.4873,50.188 75.9873,53.8546 74.5,57.5 Z"/></g>
<g><path style="opacity:0.986" fill="#919191" d="M 83.5,52.5 C 82.9213,55.3311 81.588,57.6644 79.5,59.5C 78.0937,59.9731 77.427,60.9731 77.5,62.5C 77.1667,63.5 76.5,64.1667 75.5,64.5C 74.7611,64.631 74.0944,64.4643 73.5,64C 76.4567,61.9702 77.4567,59.4702 76.5,56.5C 76.9925,54.1815 77.9925,52.1815 79.5,50.5C 79.4346,50.9382 79.6012,51.2716 80,51.5C 82.6033,48.7253 84.2699,45.3919 85,41.5C 85.14,45.234 84.64,48.9007 83.5,52.5 Z"/></g>
<g><path style="opacity:1" fill="#787878" d="M 10.5,86.5 C 7.59253,88.8046 4.2592,90.1379 0.5,90.5C 0.5,81.8333 0.5,73.1667 0.5,64.5C 1.49162,64.6716 2.15829,64.3382 2.5,63.5C 4.15963,60.5336 6.49297,58.2002 9.5,56.5C 10.4985,66.4778 10.8319,76.4778 10.5,86.5 Z"/></g>
<g><path style="opacity:0.004" fill="#f4f4f4" d="M 79.5,59.5 C 79.573,61.0269 78.9063,62.0269 77.5,62.5C 77.427,60.9731 78.0937,59.9731 79.5,59.5 Z"/></g>
<g><path style="opacity:0.963" fill="#242423" d="M 515.5,35.5 C 515.61,44.9769 518.61,53.3102 524.5,60.5C 525.625,62.1288 526.959,63.6288 528.5,65C 532.54,66.6903 536.54,68.357 540.5,70C 545.155,70.4992 549.821,70.6658 554.5,70.5C 554.5,84.1667 554.5,97.8333 554.5,111.5C 554.5,118.5 554.5,125.5 554.5,132.5C 552.833,132.5 551.167,132.5 549.5,132.5C 549.83,113.326 549.497,94.326 548.5,75.5C 544.434,75.693 540.434,75.3597 536.5,74.5C 534.574,72.7073 532.241,71.7073 529.5,71.5C 528.738,69.7376 527.404,68.7376 525.5,68.5C 522.138,64.8075 518.805,61.1408 515.5,57.5C 512.96,50.5072 511.293,43.3406 510.5,36C 486.836,35.5 463.169,35.3334 439.5,35.5C 461.02,35.1633 482.353,34.1633 503.5,32.5C 507.298,31.5166 511.298,31.1832 515.5,31.5C 515.5,32.8333 515.5,34.1667 515.5,35.5 Z"/></g>
<g><path style="opacity:1" fill="#595959" d="M 74.5,57.5 C 70.2951,64.6766 63.9618,68.6766 55.5,69.5C 62.8367,67.1777 69.17,63.1777 74.5,57.5 Z"/></g>
<g><path style="opacity:0.094" fill="#b9b9b9" d="M 515.5,57.5 C 518.805,61.1408 522.138,64.8075 525.5,68.5C 520.557,66.2715 517.224,62.6048 515.5,57.5 Z"/></g>
<g><path style="opacity:0.396" fill="#8f8f8f" d="M 525.5,68.5 C 527.404,68.7376 528.738,69.7376 529.5,71.5C 527.596,71.2624 526.262,70.2624 525.5,68.5 Z"/></g>
<g><path style="opacity:0.974" fill="#a8a8a8" d="M 76.5,56.5 C 77.4567,59.4702 76.4567,61.9702 73.5,64C 74.0944,64.4643 74.7611,64.631 75.5,64.5C 72.8868,68.043 69.5534,70.7096 65.5,72.5C 59.8432,74.2814 54.3432,76.2814 49,78.5C 48.5,146.833 48.3333,215.166 48.5,283.5C 47.5104,277.69 47.1771,271.69 47.5,265.5C 47.5,265.167 47.5,264.833 47.5,264.5C 47.6662,258.158 47.4995,251.825 47,245.5C 46.3292,246.252 45.4959,246.586 44.5,246.5C 44.5,188.167 44.5,129.833 44.5,71.5C 48.4578,71.7489 52.1244,71.0823 55.5,69.5C 63.9618,68.6766 70.2951,64.6766 74.5,57.5C 75.1667,57.1667 75.8333,56.8333 76.5,56.5 Z"/></g>
<g><path style="opacity:0.098" fill="#d6d6d6" d="M 529.5,71.5 C 532.241,71.7073 534.574,72.7073 536.5,74.5C 533.759,74.2927 531.426,73.2927 529.5,71.5 Z"/></g>
<g><path style="opacity:1" fill="#828282" d="M 595.5,72.5 C 595.5,89.8333 595.5,107.167 595.5,124.5C 593.063,126.983 590.063,128.317 586.5,128.5C 586.5,110.833 586.5,93.1667 586.5,75.5C 588.553,75.5979 590.22,74.9313 591.5,73.5C 592.833,73.1667 594.167,72.8333 595.5,72.5 Z"/></g>
<g><path style="opacity:0.03" fill="#e7e7e7" d="M 536.5,74.5 C 540.434,75.3597 544.434,75.693 548.5,75.5C 548.5,100.167 548.5,124.833 548.5,149.5C 548.5,149.833 548.5,150.167 548.5,150.5C 548.795,152.735 548.461,154.735 547.5,156.5C 547.5,129.833 547.5,103.167 547.5,76.5C 544.15,76.665 540.817,76.4983 537.5,76C 536.944,75.6174 536.611,75.1174 536.5,74.5 Z"/></g>
<g><path style="opacity:1" fill="#676767" d="M 591.5,73.5 C 590.22,74.9313 588.553,75.5979 586.5,75.5C 586.5,93.1667 586.5,110.833 586.5,128.5C 586.5,129.167 586.167,129.5 585.5,129.5C 585.5,111.5 585.5,93.5 585.5,75.5C 585.5,75.1667 585.5,74.8333 585.5,74.5C 587.435,73.8505 589.435,73.5172 591.5,73.5 Z"/></g>
<g><path style="opacity:1" fill="#a9a9a9" d="M 42.5,75.5 C 42.5,121.167 42.5,166.833 42.5,212.5C 42.5,212.833 42.5,213.167 42.5,213.5C 40.8008,213.34 39.1341,213.506 37.5,214C 29.6742,218.113 21.6742,221.947 13.5,225.5C 13.5,180.5 13.5,135.5 13.5,90.5C 18.9431,87.6081 24.2765,84.4414 29.5,81C 33.6347,78.5965 37.9681,76.7632 42.5,75.5 Z"/></g>
<g><path style="opacity:1" fill="#595959" d="M 55.5,69.5 C 52.1244,71.0823 48.4578,71.7489 44.5,71.5C 43.8333,118.5 43.1667,165.5 42.5,212.5C 42.5,166.833 42.5,121.167 42.5,75.5C 42.5,73.5 42.5,71.5 42.5,69.5C 46.8333,69.5 51.1667,69.5 55.5,69.5 Z"/></g>
<g><path style="opacity:1" fill="#a8a8a8" d="M -0.5,-0.5 C 10.8333,-0.5 22.1667,-0.5 33.5,-0.5C 33.5,-0.166667 33.5,0.166667 33.5,0.5C 22.5,0.5 11.5,0.5 0.5,0.5C 0.5,21.8333 0.5,43.1667 0.5,64.5C 0.5,73.1667 0.5,81.8333 0.5,90.5C 4.2592,90.1379 7.59253,88.8046 10.5,86.5C 10.5,133.167 10.5,179.833 10.5,226.5C 7.53269,228.232 4.36602,229.565 1,230.5C 0.50005,249.83 0.333383,269.164 0.5,288.5C 0.166667,288.5 -0.166667,288.5 -0.5,288.5C -0.5,192.167 -0.5,95.8333 -0.5,-0.5 Z"/></g>
<g><path style="opacity:1" fill="#181818" d="M 583.5,10.5 C 584.167,32.1667 584.833,53.8333 585.5,75.5C 585.5,93.5 585.5,111.5 585.5,129.5C 585.5,139.167 585.5,148.833 585.5,158.5C 585.167,158.5 584.833,158.5 584.5,158.5C 584.038,111.501 583.705,64.5011 583.5,17.5C 583.5,15.1667 583.5,12.8333 583.5,10.5 Z"/></g>
<g><path style="opacity:1" fill="#818181" d="M 583.5,122.5 C 580.089,123.36 576.756,124.526 573.5,126C 567.148,129.841 560.815,133.674 554.5,137.5C 554.5,135.833 554.5,134.167 554.5,132.5C 554.5,125.5 554.5,118.5 554.5,111.5C 563.532,105.484 573.199,100.817 583.5,97.5C 583.5,105.833 583.5,114.167 583.5,122.5 Z"/></g>
<g><path style="opacity:1" fill="#a9a9a9" d="M 583.5,122.5 C 583.5,130.833 583.5,139.167 583.5,147.5C 573.779,151.859 564.112,156.526 554.5,161.5C 554.5,153.5 554.5,145.5 554.5,137.5C 560.815,133.674 567.148,129.841 573.5,126C 576.756,124.526 580.089,123.36 583.5,122.5 Z"/></g>
<g><path style="opacity:1" fill="#a7a7a7" d="M 595.5,124.5 C 595.5,134.5 595.5,144.5 595.5,154.5C 593.221,157.442 590.221,159.109 586.5,159.5C 586.167,159.5 585.833,159.5 585.5,159.5C 585.5,159.167 585.5,158.833 585.5,158.5C 585.5,148.833 585.5,139.167 585.5,129.5C 586.167,129.5 586.5,129.167 586.5,128.5C 590.063,128.317 593.063,126.983 595.5,124.5 Z"/></g>
<g><path style="opacity:1" fill="#8e8e8e" d="M 44.5,71.5 C 44.5,129.833 44.5,188.167 44.5,246.5C 43.8333,247.833 43.1667,249.167 42.5,250.5C 42.5,238.167 42.5,225.833 42.5,213.5C 42.5,213.167 42.5,212.833 42.5,212.5C 43.1667,165.5 43.8333,118.5 44.5,71.5 Z"/></g>
<g><path style="opacity:0.942" fill="#7a7a7a" d="M 554.5,161.5 C 554.5,168.5 554.5,175.5 554.5,182.5C 554.5,202.833 554.5,223.167 554.5,243.5C 554.5,252.5 554.5,261.5 554.5,270.5C 554.5,270.833 554.5,271.167 554.5,271.5C 553.833,297.5 553.167,323.5 552.5,349.5C 552.5,326.167 552.5,302.833 552.5,279.5C 552.667,263.497 552.5,247.497 552,231.5C 551.167,233.5 550.333,235.5 549.5,237.5C 548.501,220.513 548.167,203.513 548.5,186.5C 549.833,174.5 549.833,162.5 548.5,150.5C 548.5,150.167 548.5,149.833 548.5,149.5C 549.222,149.082 549.722,148.416 550,147.5C 550.172,142.798 550.672,138.132 551.5,133.5C 552.333,147.488 552.833,161.488 553,175.5C 553.174,170.649 553.674,165.982 554.5,161.5 Z"/></g>
<g><path style="opacity:1" fill="#636362" d="M 548.5,75.5 C 549.497,94.326 549.83,113.326 549.5,132.5C 551.167,132.5 552.833,132.5 554.5,132.5C 554.5,134.167 554.5,135.833 554.5,137.5C 554.5,145.5 554.5,153.5 554.5,161.5C 553.674,165.982 553.174,170.649 553,175.5C 552.833,161.488 552.333,147.488 551.5,133.5C 550.672,138.132 550.172,142.798 550,147.5C 549.722,148.416 549.222,149.082 548.5,149.5C 548.5,124.833 548.5,100.167 548.5,75.5 Z"/></g>
<g><path style="opacity:1" fill="#ebebeb" d="M 595.5,154.5 C 595.5,185.5 595.5,216.5 595.5,247.5C 591.98,248.353 589.313,250.353 587.5,253.5C 586.502,222.338 586.168,191.004 586.5,159.5C 590.221,159.109 593.221,157.442 595.5,154.5 Z"/></g>
<g><path style="opacity:1" fill="#bcbcbc" d="M 585.5,159.5 C 585.833,159.5 586.167,159.5 586.5,159.5C 586.168,191.004 586.502,222.338 587.5,253.5C 587.158,254.338 586.492,254.672 585.5,254.5C 585.5,222.833 585.5,191.167 585.5,159.5 Z"/></g>
<g><path style="opacity:0.321" fill="#a6a6a6" d="M 548.5,150.5 C 549.833,162.5 549.833,174.5 548.5,186.5C 548.827,176.985 548.494,167.652 547.5,158.5C 547.5,157.833 547.5,157.167 547.5,156.5C 548.461,154.735 548.795,152.735 548.5,150.5 Z"/></g>
<g><path style="opacity:1" fill="#ebebeb" d="M 554.5,243.5 C 554.5,223.167 554.5,202.833 554.5,182.5C 563.339,177.989 572.339,173.656 581.5,169.5C 582.833,189.167 582.833,208.833 581.5,228.5C 572.897,234.299 563.897,239.299 554.5,243.5 Z"/></g>
<g><path style="opacity:1" fill="#2b2b2b" d="M 584.5,158.5 C 584.833,158.5 585.167,158.5 585.5,158.5C 585.5,158.833 585.5,159.167 585.5,159.5C 585.5,191.167 585.5,222.833 585.5,254.5C 584.833,271.5 584.167,288.5 583.5,305.5C 583.5,305.167 583.5,304.833 583.5,304.5C 583.5,295.833 583.5,287.167 583.5,278.5C 583.5,270.167 583.5,261.833 583.5,253.5C 584.498,222.004 584.832,190.338 584.5,158.5 Z"/></g>
<g><path style="opacity:1" fill="#ebebeb" d="M 42.5,213.5 C 42.5,225.833 42.5,238.167 42.5,250.5C 42.5,255.167 42.5,259.833 42.5,264.5C 42.5,273.167 42.5,281.833 42.5,290.5C 33.0558,296.625 23.3891,302.292 13.5,307.5C 13.5,280.167 13.5,252.833 13.5,225.5C 21.6742,221.947 29.6742,218.113 37.5,214C 39.1341,213.506 40.8008,213.34 42.5,213.5 Z"/></g>
<g><path style="opacity:1" fill="#ebebeb" d="M 10.5,226.5 C 10.5,251.833 10.5,277.167 10.5,302.5C 7.42082,302.804 4.58748,303.804 2,305.5C 1.82716,299.652 1.32716,293.985 0.5,288.5C 0.333383,269.164 0.50005,249.83 1,230.5C 4.36602,229.565 7.53269,228.232 10.5,226.5 Z"/></g>
<g><path style="opacity:1" fill="#cfcfcf" d="M 583.5,147.5 C 583.5,182.833 583.5,218.167 583.5,253.5C 582.448,253.351 581.448,253.517 580.5,254C 572.284,260.271 563.618,265.771 554.5,270.5C 554.5,261.5 554.5,252.5 554.5,243.5C 563.897,239.299 572.897,234.299 581.5,228.5C 582.833,208.833 582.833,189.167 581.5,169.5C 572.339,173.656 563.339,177.989 554.5,182.5C 554.5,175.5 554.5,168.5 554.5,161.5C 564.112,156.526 573.779,151.859 583.5,147.5 Z"/></g>
<g><path style="opacity:0.907" fill="#747474" d="M 47.5,264.5 C 45.8333,264.5 44.1667,264.5 42.5,264.5C 42.5,259.833 42.5,255.167 42.5,250.5C 43.1667,249.167 43.8333,247.833 44.5,246.5C 45.4959,246.586 46.3292,246.252 47,245.5C 47.4995,251.825 47.6662,258.158 47.5,264.5 Z"/></g>
<g><path style="opacity:1" fill="#a6a6a6" d="M 595.5,247.5 C 595.5,259.5 595.5,271.5 595.5,283.5C 592.474,286.195 589.474,288.862 586.5,291.5C 586.167,291.5 585.833,291.5 585.5,291.5C 585.5,279.167 585.5,266.833 585.5,254.5C 586.492,254.672 587.158,254.338 587.5,253.5C 589.313,250.353 591.98,248.353 595.5,247.5 Z"/></g>
<g><path style="opacity:0.888" fill="#b8b8b8" d="M 547.5,158.5 C 548.494,167.652 548.827,176.985 548.5,186.5C 548.167,203.513 548.501,220.513 549.5,237.5C 550.333,235.5 551.167,233.5 552,231.5C 552.5,247.497 552.667,263.497 552.5,279.5C 551.59,281.019 550.757,282.685 550,284.5C 549.823,288.356 549.323,292.023 548.5,295.5C 547.595,249.841 547.261,204.174 547.5,158.5 Z"/></g>
<g><path style="opacity:1" fill="#a9a9a9" d="M 583.5,253.5 C 583.5,261.833 583.5,270.167 583.5,278.5C 573.666,284.249 563.999,290.249 554.5,296.5C 554.5,288.167 554.5,279.833 554.5,271.5C 554.5,271.167 554.5,270.833 554.5,270.5C 563.618,265.771 572.284,260.271 580.5,254C 581.448,253.517 582.448,253.351 583.5,253.5 Z"/></g>
<g><path style="opacity:0.943" fill="#333333" d="M 47.5,265.5 C 47.1771,271.69 47.5104,277.69 48.5,283.5C 48.7195,286.622 48.7195,289.956 48.5,293.5C 47.5034,310.325 47.1701,327.325 47.5,344.5C 52.8846,345.244 58.218,346.244 63.5,347.5C 65.7886,349.387 68.4553,350.721 71.5,351.5C 72.326,353.264 73.6593,354.598 75.5,355.5C 76.1667,356.833 77.1667,357.833 78.5,358.5C 78.427,360.027 79.0937,361.027 80.5,361.5C 80.427,363.027 81.0937,364.027 82.5,364.5C 82.2291,366.38 82.8958,367.713 84.5,368.5C 84.8023,371.373 85.469,374.039 86.5,376.5C 86.5,378.5 86.5,380.5 86.5,382.5C 85.8423,383.398 85.1757,384.398 84.5,385.5C 83.914,385.291 83.414,384.957 83,384.5C 81.872,386.345 81.372,388.345 81.5,390.5C 102.5,390.5 123.5,390.5 144.5,390.5C 123.006,391.497 101.34,391.831 79.5,391.5C 79.5,390.833 79.5,390.167 79.5,389.5C 81.1997,381.732 80.533,374.066 77.5,366.5C 74.2744,358.113 68.2744,352.613 59.5,350C 58.2506,349.26 57.2506,349.427 56.5,350.5C 51.9296,349.559 47.263,349.226 42.5,349.5C 42.5,345.5 42.5,341.5 42.5,337.5C 43.4976,313.672 43.8309,289.672 43.5,265.5C 44.8333,265.5 46.1667,265.5 47.5,265.5 Z"/></g>
<g><path style="opacity:1" fill="#8d8d8d" d="M 583.5,278.5 C 583.5,287.167 583.5,295.833 583.5,304.5C 574.535,311.148 564.868,316.482 554.5,320.5C 554.5,312.5 554.5,304.5 554.5,296.5C 563.999,290.249 573.666,284.249 583.5,278.5 Z"/></g>
<g><path style="opacity:1" fill="#4a4a4a" d="M 554.5,271.5 C 554.5,279.833 554.5,288.167 554.5,296.5C 554.5,304.5 554.5,312.5 554.5,320.5C 554.5,330.5 554.5,340.5 554.5,350.5C 551.287,350.81 548.287,350.477 545.5,349.5C 547.833,349.5 550.167,349.5 552.5,349.5C 553.167,323.5 553.833,297.5 554.5,271.5 Z"/></g>
<g><path style="opacity:1" fill="#787878" d="M 595.5,283.5 C 595.5,299.167 595.5,314.833 595.5,330.5C 594.448,330.351 593.448,330.517 592.5,331C 591.277,333.944 589.444,336.444 587,338.5C 586.5,322.837 586.333,307.17 586.5,291.5C 589.474,288.862 592.474,286.195 595.5,283.5 Z"/></g>
<g><path style="opacity:1" fill="#aaaaaa" d="M 42.5,290.5 C 42.5,300.167 42.5,309.833 42.5,319.5C 33.2214,324.81 23.8881,330.143 14.5,335.5C 13.5017,326.19 13.1684,316.857 13.5,307.5C 23.3891,302.292 33.0558,296.625 42.5,290.5 Z"/></g>
<g><path style="opacity:1" fill="#eaeaea" d="M 552.5,279.5 C 552.5,302.833 552.5,326.167 552.5,349.5C 550.167,349.5 547.833,349.5 545.5,349.5C 536.401,350.216 528.735,353.883 522.5,360.5C 520.645,360.728 519.812,360.061 520,358.5C 523.946,354.555 528.446,351.389 533.5,349C 534.738,348.31 534.738,347.81 533.5,347.5C 533.611,346.883 533.944,346.383 534.5,346C 538.5,345 542.5,344 546.5,343C 547.126,342.25 547.626,341.416 548,340.5C 548.5,325.504 548.667,310.504 548.5,295.5C 549.323,292.023 549.823,288.356 550,284.5C 550.757,282.685 551.59,281.019 552.5,279.5 Z"/></g>
<g><path style="opacity:1" fill="#a4a4a4" d="M 10.5,226.5 C 10.8333,226.5 11.1667,226.5 11.5,226.5C 11.5,264.833 11.5,303.167 11.5,341.5C 10.8333,341.5 10.5,341.833 10.5,342.5C 8.80081,342.34 7.13414,342.506 5.5,343C 4.31471,344.353 2.98138,345.52 1.5,346.5C 0.500396,327.178 0.167063,307.845 0.5,288.5C 1.32716,293.985 1.82716,299.652 2,305.5C 4.58748,303.804 7.42082,302.804 10.5,302.5C 10.5,277.167 10.5,251.833 10.5,226.5 Z"/></g>
<g><path style="opacity:1" fill="#626262" d="M 583.5,304.5 C 583.5,304.833 583.5,305.167 583.5,305.5C 583.5,321.833 583.5,338.167 583.5,354.5C 574.359,357.967 565.692,361.967 557.5,366.5C 557.167,366.5 556.833,366.5 556.5,366.5C 554.883,365.028 552.883,364.361 550.5,364.5C 549.167,364.667 547.833,364.833 546.5,365C 545.944,365.383 545.611,365.883 545.5,366.5C 543.973,366.427 542.973,367.094 542.5,368.5C 541.833,369.833 540.833,370.833 539.5,371.5C 539.167,371.5 538.833,371.5 538.5,371.5C 538.565,371.062 538.399,370.728 538,370.5C 534.193,373.526 532.693,377.192 533.5,381.5C 533.5,382.833 533.5,384.167 533.5,385.5C 525.395,390.393 517.395,395.56 509.5,401C 506.334,403 503.668,405.5 501.5,408.5C 479.5,408.5 457.5,408.5 435.5,408.5C 436.066,406.922 437.066,405.588 438.5,404.5C 444.617,401.452 449.951,397.452 454.5,392.5C 454.833,392.5 455.167,392.5 455.5,392.5C 475.503,392.667 495.503,392.5 515.5,392C 516.738,391.31 516.738,390.81 515.5,390.5C 512.396,379.158 514.729,369.158 522.5,360.5C 528.735,353.883 536.401,350.216 545.5,349.5C 548.287,350.477 551.287,350.81 554.5,350.5C 554.5,340.5 554.5,330.5 554.5,320.5C 564.868,316.482 574.535,311.148 583.5,304.5 Z"/></g>
<g><path style="opacity:0.164" fill="#a6a6a6" d="M 48.5,293.5 C 48.5,310.167 48.5,326.833 48.5,343.5C 53.977,343.451 58.977,344.784 63.5,347.5C 58.218,346.244 52.8846,345.244 47.5,344.5C 47.1701,327.325 47.5034,310.325 48.5,293.5 Z"/></g>
<g><path style="opacity:1" fill="#757575" d="M 13.5,47.5 C 13.5,61.8333 13.5,76.1667 13.5,90.5C 13.5,135.5 13.5,180.5 13.5,225.5C 13.5,252.833 13.5,280.167 13.5,307.5C 13.1684,316.857 13.5017,326.19 14.5,335.5C 23.8881,330.143 33.2214,324.81 42.5,319.5C 42.5,325.5 42.5,331.5 42.5,337.5C 33.2988,343.935 23.6321,349.602 13.5,354.5C 12.5013,312.003 12.168,269.337 12.5,226.5C 12.1676,166.664 12.5009,106.998 13.5,47.5 Z"/></g>
<g><path style="opacity:1" fill="#4d4d4d" d="M 42.5,264.5 C 44.1667,264.5 45.8333,264.5 47.5,264.5C 47.5,264.833 47.5,265.167 47.5,265.5C 46.1667,265.5 44.8333,265.5 43.5,265.5C 43.8309,289.672 43.4976,313.672 42.5,337.5C 42.5,331.5 42.5,325.5 42.5,319.5C 42.5,309.833 42.5,300.167 42.5,290.5C 42.5,281.833 42.5,273.167 42.5,264.5 Z"/></g>
<g><path style="opacity:1" fill="#50504f" d="M 585.5,291.5 C 585.833,291.5 586.167,291.5 586.5,291.5C 586.333,307.17 586.5,322.837 587,338.5C 589.444,336.444 591.277,333.944 592.5,331C 593.448,330.517 594.448,330.351 595.5,330.5C 595.5,340.833 595.5,351.167 595.5,361.5C 593.519,366.478 590.185,370.144 585.5,372.5C 585.5,345.5 585.5,318.5 585.5,291.5 Z"/></g>
<g><path style="opacity:1" fill="#4f4f4f" d="M 42.5,337.5 C 42.5,341.5 42.5,345.5 42.5,349.5C 47.263,349.226 51.9296,349.559 56.5,350.5C 65.5233,353.178 72.5233,358.512 77.5,366.5C 80.533,374.066 81.1997,381.732 79.5,389.5C 79.44,388.957 79.1067,388.624 78.5,388.5C 72.2968,391.768 65.9634,394.768 59.5,397.5C 66.4978,389.543 67.3311,380.876 62,371.5C 54.0828,364.209 45.2494,362.709 35.5,367C 36.448,367.483 37.448,367.649 38.5,367.5C 37.205,368.488 35.8717,369.488 34.5,370.5C 34.631,369.761 34.4643,369.094 34,368.5C 31.4598,370.705 29.2932,373.205 27.5,376C 28.056,376.383 28.3893,376.883 28.5,377.5C 27.6618,377.842 27.3284,378.508 27.5,379.5C 25.9809,393.99 32.6476,401.324 47.5,401.5C 43.6652,402.658 40.6652,404.991 38.5,408.5C 30.1667,408.5 21.8333,408.5 13.5,408.5C 13.5,390.5 13.5,372.5 13.5,354.5C 23.6321,349.602 33.2988,343.935 42.5,337.5 Z M 49.5,366.5 C 50.6594,368.25 52.326,369.25 54.5,369.5C 54.6535,371.97 55.6535,373.97 57.5,375.5C 57.5,377.833 57.5,380.167 57.5,382.5C 53.1084,381.652 48.7751,380.652 44.5,379.5C 41.6462,377.271 38.3129,375.938 34.5,375.5C 33.438,373.901 33.438,372.234 34.5,370.5C 35.8717,369.488 37.205,368.488 38.5,367.5C 42.0991,366.656 45.7657,366.323 49.5,366.5 Z"/></g>
<g><path style="opacity:1" fill="#757575" d="M -0.5,288.5 C -0.166667,288.5 0.166667,288.5 0.5,288.5C 0.167063,307.845 0.500396,327.178 1.5,346.5C 2.98138,345.52 4.31471,344.353 5.5,343C 7.13414,342.506 8.80081,342.34 10.5,342.5C 10.6665,353.505 10.4998,364.505 10,375.5C 6.8385,377.329 3.67183,378.996 0.5,380.5C 0.827933,369.321 0.4946,358.321 -0.5,347.5C -0.5,327.833 -0.5,308.167 -0.5,288.5 Z"/></g>
<g><path style="opacity:1" fill="#151515" d="M 11.5,226.5 C 11.8333,226.5 12.1667,226.5 12.5,226.5C 12.168,269.337 12.5013,312.003 13.5,354.5C 13.5,372.5 13.5,390.5 13.5,408.5C 12.8333,407.5 12.1667,406.5 11.5,405.5C 11.5,384.167 11.5,362.833 11.5,341.5C 11.5,303.167 11.5,264.833 11.5,226.5 Z"/></g>
<g><path style="opacity:0.792" fill="#737373" d="M 539.5,345.5 C 541.199,345.34 542.866,345.506 544.5,346C 541.558,347.124 538.558,347.458 535.5,347C 537.058,346.79 538.391,346.29 539.5,345.5 Z"/></g>
<g><path style="opacity:0.047" fill="#c4c4c4" d="M 63.5,347.5 C 66.721,347.896 69.3877,349.229 71.5,351.5C 68.4553,350.721 65.7886,349.387 63.5,347.5 Z"/></g>
<g><path style="opacity:1" fill="#161616" d="M 77.5,366.5 C 72.5233,358.512 65.5233,353.178 56.5,350.5C 57.2506,349.427 58.2506,349.26 59.5,350C 68.2744,352.613 74.2744,358.113 77.5,366.5 Z"/></g>
<g><path style="opacity:0.129" fill="#a7a7a7" d="M 71.5,351.5 C 73.7727,351.957 75.106,353.29 75.5,355.5C 73.6593,354.598 72.326,353.264 71.5,351.5 Z"/></g>
<g><path style="opacity:0.004" fill="#dfdfdf" d="M 75.5,355.5 C 77.5,355.5 78.5,356.5 78.5,358.5C 77.1667,357.833 76.1667,356.833 75.5,355.5 Z"/></g>
<g><path style="opacity:0.999" fill="#363636" d="M 583.5,354.5 C 583.5,372.5 583.5,390.5 583.5,408.5C 556.167,408.5 528.833,408.5 501.5,408.5C 503.668,405.5 506.334,403 509.5,401C 517.395,395.56 525.395,390.393 533.5,385.5C 534.492,385.328 535.158,385.662 535.5,386.5C 534.414,386.62 533.747,387.287 533.5,388.5C 540.301,402.152 550.301,404.985 563.5,397C 566.125,394.256 568.125,391.089 569.5,387.5C 568.675,386.614 567.675,386.281 566.5,386.5C 567.209,385.596 568.209,385.263 569.5,385.5C 569.5,384.167 569.5,382.833 569.5,381.5C 557.5,381.5 545.5,381.5 533.5,381.5C 532.693,377.192 534.193,373.526 538,370.5C 538.399,370.728 538.565,371.062 538.5,371.5C 538.5,374.167 538.5,376.833 538.5,379.5C 547.167,379.5 555.833,379.5 564.5,379.5C 565.34,373.287 563.006,368.954 557.5,366.5C 565.692,361.967 574.359,357.967 583.5,354.5 Z"/></g>
<g><path style="opacity:0.067" fill="#e3e3e3" d="M 521.5,354.5 C 520.833,355.833 519.833,356.833 518.5,357.5C 518.5,355.5 519.5,354.5 521.5,354.5 Z"/></g>
<g><path style="opacity:0.141" fill="#d6d6d6" d="M 518.5,357.5 C 518.262,359.404 517.262,360.738 515.5,361.5C 515.738,359.596 516.738,358.262 518.5,357.5 Z"/></g>
<g><path style="opacity:0.063" fill="#b9b9b9" d="M 78.5,358.5 C 79.9063,358.973 80.573,359.973 80.5,361.5C 79.0937,361.027 78.427,360.027 78.5,358.5 Z"/></g>
<g><path style="opacity:0.086" fill="#c5c5c5" d="M 80.5,361.5 C 81.9063,361.973 82.573,362.973 82.5,364.5C 81.0937,364.027 80.427,363.027 80.5,361.5 Z"/></g>
<g><path style="opacity:0.315" fill="#bebebe" d="M 556.5,366.5 C 552.833,366.5 549.167,366.5 545.5,366.5C 545.611,365.883 545.944,365.383 546.5,365C 547.833,364.833 549.167,364.667 550.5,364.5C 552.883,364.361 554.883,365.028 556.5,366.5 Z"/></g>
<g><path style="opacity:0.075" fill="#d5d5d5" d="M 82.5,364.5 C 83.6737,365.514 84.3404,366.847 84.5,368.5C 82.8958,367.713 82.2291,366.38 82.5,364.5 Z"/></g>
<g><path style="opacity:0.071" fill="#c5c5c5" d="M 49.5,366.5 C 51.674,366.75 53.3406,367.75 54.5,369.5C 52.326,369.25 50.6594,368.25 49.5,366.5 Z"/></g>
<g><path style="opacity:0.004" fill="#e4e4e4" d="M 545.5,366.5 C 545.027,367.906 544.027,368.573 542.5,368.5C 542.973,367.094 543.973,366.427 545.5,366.5 Z"/></g>
<g><path style="opacity:1" fill="#1e1e1c" d="M 595.5,361.5 C 595.5,380.5 595.5,399.5 595.5,418.5C 572.167,418.5 548.833,418.5 525.5,418.5C 526.773,416.287 527.773,413.954 528.5,411.5C 547.503,411.667 566.503,411.5 585.5,411C 586.192,398.24 586.192,385.406 585.5,372.5C 590.185,370.144 593.519,366.478 595.5,361.5 Z"/></g>
<g><path style="opacity:0.999" fill="#8d8d8d" d="M 533.5,347.5 C 534.738,347.81 534.738,348.31 533.5,349C 528.446,351.389 523.946,354.555 520,358.5C 519.812,360.061 520.645,360.728 522.5,360.5C 514.729,369.158 512.396,379.158 515.5,390.5C 494.833,390.5 474.167,390.5 453.5,390.5C 454.183,388.824 455.517,388.157 457.5,388.5C 475.17,388.667 492.836,388.5 510.5,388C 511.824,383.067 511.824,378.234 510.5,373.5C 510.5,372.833 510.5,372.167 510.5,371.5C 511.132,367.569 512.799,364.235 515.5,361.5C 517.262,360.738 518.262,359.404 518.5,357.5C 519.833,356.833 520.833,355.833 521.5,354.5C 524.55,350.638 528.55,348.305 533.5,347.5 Z"/></g>
<g><path style="opacity:0.018" fill="#e0e0e0" d="M 84.5,368.5 C 86.2227,370.78 86.8893,373.447 86.5,376.5C 85.469,374.039 84.8023,371.373 84.5,368.5 Z"/></g>
<g><path style="opacity:1" fill="#131312" d="M 585.5,254.5 C 585.5,266.833 585.5,279.167 585.5,291.5C 585.5,318.5 585.5,345.5 585.5,372.5C 586.192,385.406 586.192,398.24 585.5,411C 566.503,411.5 547.503,411.667 528.5,411.5C 375.668,410.294 223.001,410.294 70.5,411.5C 70.1667,411.5 69.8333,411.5 69.5,411.5C 50.1667,411.5 30.8333,411.5 11.5,411.5C 11.5,409.5 11.5,407.5 11.5,405.5C 12.1667,406.5 12.8333,407.5 13.5,408.5C 21.8333,408.5 30.1667,408.5 38.5,408.5C 78.1667,408.5 117.833,408.5 157.5,408.5C 168.5,408.5 179.5,408.5 190.5,408.5C 243.833,408.5 297.167,408.5 350.5,408.5C 361.167,408.5 371.833,408.5 382.5,408.5C 400.167,408.5 417.833,408.5 435.5,408.5C 457.5,408.5 479.5,408.5 501.5,408.5C 528.833,408.5 556.167,408.5 583.5,408.5C 583.5,390.5 583.5,372.5 583.5,354.5C 583.5,338.167 583.5,321.833 583.5,305.5C 584.167,288.5 584.833,271.5 585.5,254.5 Z"/></g>
<g><path style="opacity:1" fill="#4d4d4d" d="M 11.5,341.5 C 11.5,362.833 11.5,384.167 11.5,405.5C 11.5,407.5 11.5,409.5 11.5,411.5C 9.52111,414.146 7.18777,416.479 4.5,418.5C 2.83333,418.5 1.16667,418.5 -0.5,418.5C -0.5,394.833 -0.5,371.167 -0.5,347.5C 0.4946,358.321 0.827933,369.321 0.5,380.5C 3.67183,378.996 6.8385,377.329 10,375.5C 10.4998,364.505 10.6665,353.505 10.5,342.5C 10.5,341.833 10.8333,341.5 11.5,341.5 Z"/></g>
<g><path style="opacity:0.071" fill="#bebebe" d="M 557.5,366.5 C 563.006,368.954 565.34,373.287 564.5,379.5C 555.833,379.5 547.167,379.5 538.5,379.5C 538.5,376.833 538.5,374.167 538.5,371.5C 538.833,371.5 539.167,371.5 539.5,371.5C 539.5,373.833 539.5,376.167 539.5,378.5C 547.5,378.5 555.5,378.5 563.5,378.5C 563.084,373.669 561.084,369.669 557.5,366.5 Z"/></g>
<g><path style="opacity:1" fill="#121212" d="M 59.5,397.5 C 55.8451,399.829 51.8451,401.163 47.5,401.5C 32.6476,401.324 25.9809,393.99 27.5,379.5C 27.8333,380.5 28.5,381.167 29.5,381.5C 31.081,390.249 36.2477,395.582 45,397.5C 50.1195,397.188 54.2861,395.188 57.5,391.5C 60.0644,393.291 61.731,392.624 62.5,389.5C 51.1993,385.522 39.866,381.522 28.5,377.5C 28.3893,376.883 28.056,376.383 27.5,376C 29.2932,373.205 31.4598,370.705 34,368.5C 34.4643,369.094 34.631,369.761 34.5,370.5C 31.9521,372.296 31.9521,373.962 34.5,375.5C 37.335,377.785 40.6684,379.118 44.5,379.5C 47.8004,381.642 51.467,382.975 55.5,383.5C 57.1708,385.008 59.0041,385.341 61,384.5C 61.6667,381.5 61.6667,378.5 61,375.5C 59.9887,374.663 58.8221,374.33 57.5,374.5C 57.2503,372.326 56.2503,370.659 54.5,369.5C 53.3406,367.75 51.674,366.75 49.5,366.5C 45.7657,366.323 42.0991,366.656 38.5,367.5C 37.448,367.649 36.448,367.483 35.5,367C 45.2494,362.709 54.0828,364.209 62,371.5C 67.3311,380.876 66.4978,389.543 59.5,397.5 Z"/></g>
<g><path style="opacity:0.184" fill="#b7b7b7" d="M 34.5,375.5 C 38.3129,375.938 41.6462,377.271 44.5,379.5C 40.6684,379.118 37.335,377.785 34.5,375.5 Z"/></g>
<g><path style="opacity:0.106" fill="#cbcbcb" d="M 54.5,369.5 C 56.2503,370.659 57.2503,372.326 57.5,374.5C 57.5,374.833 57.5,375.167 57.5,375.5C 55.6535,373.97 54.6535,371.97 54.5,369.5 Z"/></g>
<g><path style="opacity:0.02" fill="#bebebe" d="M 34.5,370.5 C 33.438,372.234 33.438,373.901 34.5,375.5C 31.9521,373.962 31.9521,372.296 34.5,370.5 Z"/></g>
<g><path style="opacity:0.086" fill="#cbcbcb" d="M 44.5,379.5 C 48.7751,380.652 53.1084,381.652 57.5,382.5C 57.1583,383.338 56.4916,383.672 55.5,383.5C 51.467,382.975 47.8004,381.642 44.5,379.5 Z"/></g>
<g><path style="opacity:0.975" fill="#474747" d="M 57.5,374.5 C 58.8221,374.33 59.9887,374.663 61,375.5C 61.6667,378.5 61.6667,381.5 61,384.5C 59.0041,385.341 57.1708,385.008 55.5,383.5C 56.4916,383.672 57.1583,383.338 57.5,382.5C 57.5,380.167 57.5,377.833 57.5,375.5C 57.5,375.167 57.5,374.833 57.5,374.5 Z"/></g>
<g><path style="opacity:1" fill="#c0c0c0" d="M 28.5,377.5 C 39.866,381.522 51.1993,385.522 62.5,389.5C 61.731,392.624 60.0644,393.291 57.5,391.5C 56.4863,390.326 55.153,389.66 53.5,389.5C 46.9346,387.182 40.2679,384.849 33.5,382.5C 32.2921,381.766 30.9587,381.433 29.5,381.5C 28.5,381.167 27.8333,380.5 27.5,379.5C 27.3284,378.508 27.6618,377.842 28.5,377.5 Z"/></g>
<g><path style="opacity:1" fill="#898989" d="M 533.5,381.5 C 545.5,381.5 557.5,381.5 569.5,381.5C 569.5,382.833 569.5,384.167 569.5,385.5C 568.209,385.263 567.209,385.596 566.5,386.5C 566.167,386.5 565.833,386.5 565.5,386.5C 556.167,386.5 546.833,386.5 537.5,386.5C 536.833,386.5 536.167,386.5 535.5,386.5C 535.158,385.662 534.492,385.328 533.5,385.5C 533.5,384.167 533.5,382.833 533.5,381.5 Z"/></g>
<g><path style="opacity:0.043" fill="#eaeaea" d="M 86.5,376.5 C 87.4767,379.287 87.81,382.287 87.5,385.5C 88.791,385.263 89.791,385.596 90.5,386.5C 89.1667,386.5 87.8333,386.5 86.5,386.5C 86.5,385.167 86.5,383.833 86.5,382.5C 86.5,380.5 86.5,378.5 86.5,376.5 Z"/></g>
<g><path style="opacity:1" fill="#7f7f7f" d="M 33.5,382.5 C 40.2679,384.849 46.9346,387.182 53.5,389.5C 44.0482,395.107 37.3816,392.774 33.5,382.5 Z"/></g>
<g><path style="opacity:0.097" fill="#dfdfdf" d="M 510.5,371.5 C 510.5,372.167 510.5,372.833 510.5,373.5C 510.5,377.833 510.5,382.167 510.5,386.5C 507.5,386.5 504.5,386.5 501.5,386.5C 503.607,385.532 505.941,385.198 508.5,385.5C 508.123,380.547 508.789,375.881 510.5,371.5 Z"/></g>
<g><path style="opacity:0.405" fill="#b7b7b7" d="M 110.5,386.5 C 125.845,385.449 141.179,385.449 156.5,386.5C 155.5,386.5 154.5,386.5 153.5,386.5C 139.169,387.77 124.835,387.77 110.5,386.5 Z"/></g>
<g><path style="opacity:0.301" fill="#cccccc" d="M 159.5,386.5 C 164.854,386.292 170.187,386.292 175.5,386.5C 170.176,387.704 164.843,387.704 159.5,386.5 Z"/></g>
<g><path style="opacity:0.571" fill="#7d7d7d" d="M 398.5,386.5 C 398.5,386.833 398.5,387.167 398.5,387.5C 398.5,387.833 398.5,388.167 398.5,388.5C 388.833,388.5 379.167,388.5 369.5,388.5C 374.5,387.833 379.5,387.167 384.5,386.5C 389.095,385.622 393.761,385.622 398.5,386.5 Z"/></g>
<g><path style="opacity:0.227" fill="#9e9e9e" d="M 477.5,386.5 C 470.869,387.331 464.202,387.664 457.5,387.5C 437.833,387.5 418.167,387.5 398.5,387.5C 398.5,387.167 398.5,386.833 398.5,386.5C 425.108,386.348 451.441,386.348 477.5,386.5 Z"/></g>
<g><path style="opacity:1" fill="#070707" d="M 535.5,386.5 C 536.167,386.5 536.833,386.5 537.5,386.5C 540.853,395.247 547.186,398.414 556.5,396C 559.341,394.414 562.007,392.58 564.5,390.5C 565.246,389.264 565.579,387.93 565.5,386.5C 565.833,386.5 566.167,386.5 566.5,386.5C 567.675,386.281 568.675,386.614 569.5,387.5C 568.125,391.089 566.125,394.256 563.5,397C 550.301,404.985 540.301,402.152 533.5,388.5C 533.747,387.287 534.414,386.62 535.5,386.5 Z"/></g>
<g><path style="opacity:1" fill="#4d4d4d" d="M 537.5,386.5 C 546.833,386.5 556.167,386.5 565.5,386.5C 565.579,387.93 565.246,389.264 564.5,390.5C 562.007,392.58 559.341,394.414 556.5,396C 547.186,398.414 540.853,395.247 537.5,386.5 Z"/></g>
<g><path style="opacity:1" fill="#545454" d="M 86.5,382.5 C 86.5,383.833 86.5,385.167 86.5,386.5C 87.8333,386.5 89.1667,386.5 90.5,386.5C 97.2642,385.898 103.931,385.898 110.5,386.5C 124.835,387.77 139.169,387.77 153.5,386.5C 151.031,387.317 148.365,387.817 145.5,388C 144.748,388.671 144.414,389.504 144.5,390.5C 123.5,390.5 102.5,390.5 81.5,390.5C 81.372,388.345 81.872,386.345 83,384.5C 83.414,384.957 83.914,385.291 84.5,385.5C 85.1757,384.398 85.8423,383.398 86.5,382.5 Z"/></g>
<g><path style="opacity:0.808" fill="#b0b0b0" d="M 353.5,386.5 C 363.833,386.5 374.167,386.5 384.5,386.5C 379.5,387.167 374.5,387.833 369.5,388.5C 363.491,388.666 357.491,388.499 351.5,388C 352.416,387.722 353.082,387.222 353.5,386.5 Z"/></g>
<g><path style="opacity:0.838" fill="#747474" d="M 510.5,373.5 C 511.824,378.234 511.824,383.067 510.5,388C 492.836,388.5 475.17,388.667 457.5,388.5C 457.5,388.167 457.5,387.833 457.5,387.5C 464.202,387.664 470.869,387.331 477.5,386.5C 485.558,386.317 493.558,386.317 501.5,386.5C 504.5,386.5 507.5,386.5 510.5,386.5C 510.5,382.167 510.5,377.833 510.5,373.5 Z"/></g>
<g><path style="opacity:1" fill="#adadad" d="M 213.5,386.5 C 209.476,387.443 205.476,387.443 201.5,386.5C 200.263,386.556 199.263,387.056 198.5,388C 220.833,388.667 243.167,388.667 265.5,388C 262.146,387.545 258.813,387.045 255.5,386.5C 277.345,385.56 299.345,385.56 321.5,386.5C 323.482,386.995 325.482,387.495 327.5,388C 323.833,388.333 320.167,388.667 316.5,389C 315.944,389.383 315.611,389.883 315.5,390.5C 258.5,390.5 201.5,390.5 144.5,390.5C 144.414,389.504 144.748,388.671 145.5,388C 148.365,387.817 151.031,387.317 153.5,386.5C 154.5,386.5 155.5,386.5 156.5,386.5C 157.5,386.5 158.5,386.5 159.5,386.5C 164.843,387.704 170.176,387.704 175.5,386.5C 188.346,385.923 201.012,385.923 213.5,386.5 Z"/></g>
<g><path style="opacity:0.789" fill="#979797" d="M 226.5,386.5 C 234.849,386.659 243.182,386.659 251.5,386.5C 252.833,386.5 254.167,386.5 255.5,386.5C 258.813,387.045 262.146,387.545 265.5,388C 243.167,388.667 220.833,388.667 198.5,388C 199.263,387.056 200.263,386.556 201.5,386.5C 205.476,387.443 209.476,387.443 213.5,386.5C 217.833,385.167 222.167,385.167 226.5,386.5 Z"/></g>
<g><path style="opacity:0.267" fill="#c6c6c6" d="M 226.5,386.5 C 234.833,385.167 243.167,385.167 251.5,386.5C 243.182,386.659 234.849,386.659 226.5,386.5 Z"/></g>
<g><path style="opacity:0.958" fill="#cfcfcf" d="M 321.5,386.5 C 332.191,386.477 342.858,386.477 353.5,386.5C 353.082,387.222 352.416,387.722 351.5,388C 357.491,388.499 363.491,388.666 369.5,388.5C 379.167,388.5 388.833,388.5 398.5,388.5C 401.388,387.99 403.721,388.656 405.5,390.5C 390.167,390.5 374.833,390.5 359.5,390.5C 347.5,390.5 335.5,390.5 323.5,390.5C 320.833,390.5 318.167,390.5 315.5,390.5C 315.611,389.883 315.944,389.383 316.5,389C 320.167,388.667 323.833,388.333 327.5,388C 325.482,387.495 323.482,386.995 321.5,386.5 Z"/></g>
<g><path style="opacity:0.995" fill="#474747" d="M 398.5,388.5 C 398.5,388.167 398.5,387.833 398.5,387.5C 418.167,387.5 437.833,387.5 457.5,387.5C 457.5,387.833 457.5,388.167 457.5,388.5C 455.517,388.157 454.183,388.824 453.5,390.5C 437.5,390.5 421.5,390.5 405.5,390.5C 403.721,388.656 401.388,387.99 398.5,388.5 Z"/></g>
<g><path style="opacity:1" fill="#818181" d="M 79.5,389.5 C 79.5,390.167 79.5,390.833 79.5,391.5C 103.994,392.498 128.661,392.831 153.5,392.5C 151.763,394.55 149.763,396.383 147.5,398C 142.135,401.014 136.801,404.014 131.5,407C 140.343,407.17 149.01,407.67 157.5,408.5C 117.833,408.5 78.1667,408.5 38.5,408.5C 40.6652,404.991 43.6652,402.658 47.5,401.5C 51.8451,401.163 55.8451,399.829 59.5,397.5C 65.9634,394.768 72.2968,391.768 78.5,388.5C 79.1067,388.624 79.44,388.957 79.5,389.5 Z"/></g>
<g><path style="opacity:1" fill="#434343" d="M 144.5,390.5 C 201.5,390.5 258.5,390.5 315.5,390.5C 272.167,391.167 228.833,391.833 185.5,392.5C 174.833,392.5 164.167,392.5 153.5,392.5C 128.661,392.831 103.994,392.498 79.5,391.5C 101.34,391.831 123.006,391.497 144.5,390.5 Z"/></g>
<g><path style="opacity:1" fill="#202020" d="M 405.5,390.5 C 421.5,390.5 437.5,390.5 453.5,390.5C 474.167,390.5 494.833,390.5 515.5,390.5C 516.738,390.81 516.738,391.31 515.5,392C 495.503,392.5 475.503,392.667 455.5,392.5C 438.833,391.833 422.167,391.167 405.5,390.5 Z"/></g>
<g><path style="opacity:1" fill="#353535" d="M 29.5,381.5 C 30.9587,381.433 32.2921,381.766 33.5,382.5C 37.3816,392.774 44.0482,395.107 53.5,389.5C 55.153,389.66 56.4863,390.326 57.5,391.5C 54.2861,395.188 50.1195,397.188 45,397.5C 36.2477,395.582 31.081,390.249 29.5,381.5 Z"/></g>
<g><path style="opacity:1" fill="#656565" d="M 315.5,390.5 C 318.167,390.5 320.833,390.5 323.5,390.5C 324.167,391.167 324.833,391.833 325.5,392.5C 324.833,392.5 324.167,392.5 323.5,392.5C 289.167,392.5 254.833,392.5 220.5,392.5C 208.833,392.5 197.167,392.5 185.5,392.5C 228.833,391.833 272.167,391.167 315.5,390.5 Z"/></g>
<g><path style="opacity:1" fill="#4e4e4e" d="M 323.5,390.5 C 335.5,390.5 347.5,390.5 359.5,390.5C 372.833,391.167 386.167,391.833 399.5,392.5C 399.167,392.5 398.833,392.5 398.5,392.5C 388.167,392.5 377.833,392.5 367.5,392.5C 353.5,392.5 339.5,392.5 325.5,392.5C 324.833,391.833 324.167,391.167 323.5,390.5 Z"/></g>
<g><path style="opacity:1" fill="#373737" d="M 359.5,390.5 C 374.833,390.5 390.167,390.5 405.5,390.5C 422.167,391.167 438.833,391.833 455.5,392.5C 455.167,392.5 454.833,392.5 454.5,392.5C 436.167,392.5 417.833,392.5 399.5,392.5C 386.167,391.833 372.833,391.167 359.5,390.5 Z"/></g>
<g><path style="opacity:1" fill="#aaaaaa" d="M 153.5,392.5 C 164.167,392.5 174.833,392.5 185.5,392.5C 179.229,398.309 172.229,403.143 164.5,407C 173.343,407.17 182.01,407.67 190.5,408.5C 179.5,408.5 168.5,408.5 157.5,408.5C 149.01,407.67 140.343,407.17 131.5,407C 136.801,404.014 142.135,401.014 147.5,398C 149.763,396.383 151.763,394.55 153.5,392.5 Z"/></g>
<g><path style="opacity:1" fill="#a9a9a9" d="M 367.5,392.5 C 377.833,392.5 388.167,392.5 398.5,392.5C 392.806,397.527 387.473,402.86 382.5,408.5C 371.833,408.5 361.167,408.5 350.5,408.5C 350.859,406.629 351.859,405.129 353.5,404C 358.691,400.627 363.358,396.794 367.5,392.5 Z"/></g>
<g><path style="opacity:1" fill="#818181" d="M 398.5,392.5 C 398.833,392.5 399.167,392.5 399.5,392.5C 417.833,392.5 436.167,392.5 454.5,392.5C 449.951,397.452 444.617,401.452 438.5,404.5C 437.066,405.588 436.066,406.922 435.5,408.5C 417.833,408.5 400.167,408.5 382.5,408.5C 387.473,402.86 392.806,397.527 398.5,392.5 Z"/></g>
<g><path style="opacity:1" fill="#cecece" d="M 185.5,392.5 C 197.167,392.5 208.833,392.5 220.5,392.5C 215.852,396.143 211.185,399.81 206.5,403.5C 203.209,405.721 199.543,406.887 195.5,407C 232.833,407.667 270.167,407.667 307.5,407C 312.758,401.907 318.092,397.073 323.5,392.5C 324.167,392.5 324.833,392.5 325.5,392.5C 339.5,392.5 353.5,392.5 367.5,392.5C 363.358,396.794 358.691,400.627 353.5,404C 351.859,405.129 350.859,406.629 350.5,408.5C 297.167,408.5 243.833,408.5 190.5,408.5C 182.01,407.67 173.343,407.17 164.5,407C 172.229,403.143 179.229,398.309 185.5,392.5 Z"/></g>
<g><path style="opacity:1" fill="#ececec" d="M 220.5,392.5 C 254.833,392.5 289.167,392.5 323.5,392.5C 318.092,397.073 312.758,401.907 307.5,407C 270.167,407.667 232.833,407.667 195.5,407C 199.543,406.887 203.209,405.721 206.5,403.5C 211.185,399.81 215.852,396.143 220.5,392.5 Z"/></g>
<g><path style="opacity:1" fill="#626262" d="M 11.5,411.5 C 30.8333,411.5 50.1667,411.5 69.5,411.5C 68.0115,413.645 67.0115,415.978 66.5,418.5C 45.8333,418.5 25.1667,418.5 4.5,418.5C 7.18777,416.479 9.52111,414.146 11.5,411.5 Z"/></g>
<g><path style="opacity:1" fill="#a9a9a9" d="M 69.5,411.5 C 69.8333,411.5 70.1667,411.5 70.5,411.5C 96.5,411.5 122.5,411.5 148.5,411.5C 147.42,413.996 146.086,416.33 144.5,418.5C 118.5,418.5 92.5,418.5 66.5,418.5C 67.0115,415.978 68.0115,413.645 69.5,411.5 Z"/></g>
<g><path style="opacity:1" fill="#cecece" d="M 148.5,411.5 C 160.5,411.5 172.5,411.5 184.5,411.5C 182.1,413.296 180.433,415.63 179.5,418.5C 167.833,418.5 156.167,418.5 144.5,418.5C 146.086,416.33 147.42,413.996 148.5,411.5 Z"/></g>
<g><path style="opacity:0.949" fill="#ebebeb" d="M 184.5,411.5 C 220.833,411.5 257.167,411.5 293.5,411.5C 290.973,413.605 288.64,415.939 286.5,418.5C 250.833,418.5 215.167,418.5 179.5,418.5C 180.433,415.63 182.1,413.296 184.5,411.5 Z"/></g>
<g><path style="opacity:1" fill="#cfcfcf" d="M 293.5,411.5 C 305.833,411.5 318.167,411.5 330.5,411.5C 328.552,413.789 326.552,416.122 324.5,418.5C 311.833,418.5 299.167,418.5 286.5,418.5C 288.64,415.939 290.973,413.605 293.5,411.5 Z"/></g>
<g><path style="opacity:1" fill="#a9a9a9" d="M 330.5,411.5 C 347.5,411.5 364.5,411.5 381.5,411.5C 378.973,413.605 376.64,415.939 374.5,418.5C 357.833,418.5 341.167,418.5 324.5,418.5C 326.552,416.122 328.552,413.789 330.5,411.5 Z"/></g>
<g><path style="opacity:1" fill="#777777" d="M 381.5,411.5 C 404.836,411.333 428.169,411.5 451.5,412C 448.706,413.535 446.706,415.702 445.5,418.5C 421.833,418.5 398.167,418.5 374.5,418.5C 376.64,415.939 378.973,413.605 381.5,411.5 Z"/></g>
<g><path style="opacity:1" fill="#494949" d="M 70.5,411.5 C 223.001,410.294 375.668,410.294 528.5,411.5C 527.773,413.954 526.773,416.287 525.5,418.5C 498.833,418.5 472.167,418.5 445.5,418.5C 446.706,415.702 448.706,413.535 451.5,412C 428.169,411.5 404.836,411.333 381.5,411.5C 364.5,411.5 347.5,411.5 330.5,411.5C 318.167,411.5 305.833,411.5 293.5,411.5C 257.167,411.5 220.833,411.5 184.5,411.5C 172.5,411.5 160.5,411.5 148.5,411.5C 122.5,411.5 96.5,411.5 70.5,411.5 Z"/></g>
</svg>
