<?xml version="1.0" encoding="UTF-8"?>
<!-- Generator: visioncortex VTracer 0.6.4 -->
<svg version="1.1" xmlns="http://www.w3.org/2000/svg" width="546" height="357">
<path d="M0 0 C14.883765 0.004566 29.767523 0.003609 44.651288 -0.00091 C62.249101 -0.006252 79.846908 -0.008383 97.444721 -0.005298 C99.310317 -0.00498 101.175913 -0.004665 103.041509 -0.004355 C103.958081 -0.004201 104.874654 -0.004046 105.819001 -0.003887 C112.237659 -0.003028 118.656314 -0.00447 125.074971 -0.006835 C132.806981 -0.009623 140.538981 -0.008909 148.270989 -0.003554 C152.201191 -0.00092 156.131376 0.000092 160.061578 -0.003203 C163.648636 -0.006166 167.23566 -0.004573 170.822715 0.000775 C172.741522 0.002432 174.660332 -0.000856 176.579136 -0.004283 C177.705736 -0.001675 178.832335 0.000933 179.993074 0.00362 C180.970742 0.003782 181.948411 0.003944 182.955706 0.004112 C185.268476 0.129461 185.268476 0.129461 187.268476 1.129461 C187.420383 32.559572 187.565493 63.989706 187.701723 95.419889 C187.717985 99.170411 187.734302 102.920932 187.750654 106.671453 C187.753906 107.417796 187.757159 108.16414 187.760511 108.9331 C187.812614 120.85754 187.869137 132.781955 187.927434 144.706366 C187.987604 157.035082 188.0427 169.363813 188.093531 181.692571 C188.122054 188.578147 188.152725 195.463697 188.18901 202.349237 C188.390479 240.95889 188.040998 279.528805 187.268476 318.129461 C170.385032 319.255032 153.513876 319.274171 136.602122 319.260185 C132.491302 319.257894 128.380485 319.261431 124.269666 319.264165 C116.21768 319.268593 108.165704 319.267657 100.113718 319.264753 C93.510432 319.262473 86.907148 319.262197 80.303861 319.263277 C79.355275 319.26343 78.406689 319.263583 77.429358 319.263741 C75.49979 319.264061 73.570221 319.264385 71.640653 319.264713 C53.546831 319.267563 35.453014 319.264297 17.359193 319.258913 C2.093599 319.254509 -13.171986 319.255212 -28.437579 319.259832 C-117.207012 319.286003 -205.967933 319.276783 -294.731524 318.129461 C-296.043478 315.505553 -295.857421 313.57421 -295.858508 310.634283 C-295.86133 309.460298 -295.864152 308.286312 -295.86706 307.076752 C-295.865034 305.776402 -295.863007 304.476052 -295.860919 303.136297 C-295.862254 301.750823 -295.864012 300.365349 -295.86616 298.979876 C-295.87071 295.164918 -295.868832 291.349987 -295.865749 287.535029 C-295.863848 284.275092 -295.865453 281.01516 -295.867086 277.755222 C-295.871483 268.916095 -295.868484 260.076985 -295.862089 251.23786 C-295.85744 244.754837 -295.855044 238.271817 -295.853839 231.788793 C-295.844609 190.119259 -295.754223 148.450633 -295.504962 106.781805 C-295.500115 105.9669 -295.495269 105.151995 -295.490276 104.312396 C-295.284589 69.91777 -295.001959 35.523625 -294.731524 1.129461 C-206.136626 0.279071 -117.547149 -0.017804 0 0 Z M-115.293109 37.155523 C-130.22285 37.207792 -145.152413 37.274561 -160.081956 37.368391 C-161.441911 37.376915 -162.801866 37.385427 -164.161822 37.393926 C-165.169046 37.400225 -165.169046 37.400225 -166.196617 37.406652 C-170.943221 37.4356 -175.689824 37.457016 -180.43648 37.475347 C-186.872637 37.500368 -193.308575 37.54118 -199.744576 37.592521 C-202.140868 37.609235 -204.537202 37.620827 -206.933545 37.627109 C-210.222678 37.63664 -213.511154 37.664493 -216.800128 37.697088 C-217.770295 37.695652 -218.740461 37.694216 -219.740027 37.692737 C-220.623859 37.705276 -221.507692 37.717815 -222.418307 37.730733 C-223.183988 37.735342 -223.949669 37.739951 -224.738552 37.7447 C-227.274871 38.234359 -228.117916 39.153156 -229.731524 41.129461 C-230.74921 42.730619 -231.725861 44.358303 -232.669024 46.004461 C-236.047758 51.896972 -239.25708 56.166146 -245.106524 59.754461 C-246.021759 60.324226 -246.936993 60.893992 -247.879962 61.481023 C-250.777459 63.156015 -253.722848 64.665061 -256.731524 66.129461 C-257.926111 92.629591 -257.9082 119.114878 -257.746661 145.636213 C-257.736069 147.380815 -257.725668 149.125419 -257.715411 150.870023 C-257.632578 164.953199 -257.531393 179.03614 -257.412127 193.119054 C-257.374202 197.621496 -257.340466 202.12394 -257.310198 206.62644 C-257.273598 212.004001 -257.227194 217.381394 -257.173587 222.758811 C-257.155076 224.770221 -257.139872 226.781664 -257.128146 228.793125 C-257.111276 231.578258 -257.082294 234.363019 -257.050372 237.148015 C-257.048212 237.959205 -257.046053 238.770394 -257.043828 239.606165 C-256.972483 244.465509 -256.40236 248.547245 -254.731524 253.129461 C-252.677725 254.977476 -252.677725 254.977476 -250.106524 256.129461 C-240.216789 261.54459 -234.443532 268.133293 -229.692462 278.367742 C-228.852215 280.307059 -228.852215 280.307059 -226.731524 281.129461 C-224.847929 281.228564 -222.960777 281.262295 -221.074581 281.266475 C-219.863711 281.27155 -218.65284 281.276624 -217.405277 281.281853 C-216.049432 281.282454 -214.693586 281.282953 -213.337741 281.283361 C-211.906846 281.287374 -210.475952 281.291812 -209.045059 281.29664 C-205.099025 281.308628 -201.153002 281.314259 -197.206953 281.318822 C-192.956712 281.324769 -188.706486 281.336381 -184.456256 281.347112 C-174.186322 281.371652 -163.916384 281.386264 -153.646431 281.399172 C-150.747763 281.402882 -147.849096 281.406856 -144.950429 281.410925 C-126.964675 281.436156 -108.97892 281.458217 -90.993152 281.470653 C-86.825783 281.473583 -82.658415 281.476545 -78.491046 281.479558 C-77.45522 281.480304 -76.419395 281.481051 -75.352181 281.481819 C-58.557481 281.494484 -41.762886 281.527721 -24.968235 281.56936 C-7.741117 281.611723 9.485946 281.635341 26.713116 281.640574 C36.391959 281.643994 46.070638 281.65582 55.749431 281.688676 C63.988978 281.716601 72.228325 281.72771 80.467916 281.716481 C84.674939 281.711275 88.881545 281.714305 93.088508 281.738946 C96.935851 281.761294 100.782473 281.760814 104.629827 281.741743 C106.025514 281.738922 107.421249 281.744654 108.81686 281.759555 C110.706379 281.778505 112.596148 281.763955 114.485691 281.747493 C115.537572 281.74885 116.589452 281.750206 117.673208 281.751604 C120.482806 281.371092 120.482806 281.371092 122.037859 278.754164 C122.443962 277.888012 122.850066 277.02186 123.268476 276.129461 C129.481677 265.103913 136.75045 258.364927 148.268476 253.129461 C149.950416 251.447521 149.390679 249.377202 149.397557 247.13218 C149.393188 246.050975 149.393188 246.050975 149.38873 244.947927 C149.389585 244.187532 149.390439 243.427137 149.39132 242.643699 C149.392977 240.076348 149.387449 237.509062 149.382001 234.941717 C149.381719 233.10908 149.381877 231.276444 149.382444 229.443807 C149.382732 224.45228 149.376834 219.460777 149.36987 214.469256 C149.363638 209.25887 149.363033 204.048483 149.361844 198.838094 C149.358731 188.964151 149.350517 179.090218 149.340495 169.216279 C149.329335 157.978261 149.323824 146.740242 149.318799 135.50222 C149.308334 112.37796 149.290734 89.253711 149.268476 66.129461 C148.130473 65.518113 148.130473 65.518113 146.96948 64.894414 C145.976071 64.357419 144.982662 63.820424 143.95915 63.267156 C142.480834 62.470183 142.480834 62.470183 140.972654 61.65711 C131.575431 56.348414 125.999309 48.591128 121.268476 39.129461 C118.415632 38.178513 116.679334 38.007834 113.723554 38.015935 C112.324455 38.016041 112.324455 38.016041 110.897092 38.016149 C109.874961 38.021315 108.85283 38.026482 107.799726 38.031805 C106.720997 38.033265 105.642268 38.034725 104.530851 38.03623 C102.180235 38.040042 99.829622 38.046165 97.479017 38.054296 C93.732805 38.067083 89.986629 38.073584 86.2404 38.078435 C77.579633 38.090846 68.918899 38.112248 60.258153 38.134664 C51.74353 38.156675 43.228922 38.174503 34.714277 38.1854 C31.07086 38.19176 27.4275 38.204279 23.784101 38.217107 C11.058282 38.244616 -1.625579 38.013509 -14.341048 37.493568 C-23.08659 37.137466 -31.80711 36.98251 -40.559649 36.996648 C-42.07941 36.995492 -43.59917 36.994008 -45.11893 36.992238 C-49.216715 36.989247 -53.314458 36.99346 -57.412238 37.000284 C-60.016784 37.004518 -62.62133 37.007456 -65.225878 37.010168 C-78.219129 37.025285 -91.212234 37.066879 -104.205393 37.116315 C-107.901296 37.130094 -111.597202 37.142868 -115.293109 37.155523 Z " fill="#B7D0D2" transform="translate(320.73152416944504,12.870539218187332)"/>
<path d="M0 0 C145.86 0 291.72 0 442 0 C442 92.07 442 184.14 442 279 C295.81 279 149.62 279 -1 279 C-0.67 186.93 -0.34 94.86 0 0 Z M159.438416 17.026062 C144.508674 17.078331 129.579111 17.1451 114.649569 17.23893 C113.289613 17.247454 111.929658 17.255966 110.569702 17.264465 C109.562479 17.270765 109.562479 17.270765 108.534907 17.277191 C103.788303 17.306139 99.0417 17.327555 94.295044 17.345886 C87.858888 17.370907 81.422949 17.411719 74.986948 17.46306 C72.590656 17.479775 70.194322 17.491366 67.797979 17.497648 C64.508846 17.507179 61.22037 17.535033 57.931396 17.567627 C56.96123 17.566191 55.991063 17.564756 54.991497 17.563276 C54.107665 17.575815 53.223832 17.588354 52.313217 17.601273 C51.547536 17.605882 50.781856 17.610491 49.992972 17.615239 C47.456653 18.104898 46.613608 19.023695 45 21 C43.982315 22.601159 43.005663 24.228842 42.0625 25.875 C38.683767 31.767511 35.474444 36.036685 29.625 39.625 C28.709766 40.194766 27.794531 40.764531 26.851562 41.351562 C23.954065 43.026554 21.008676 44.5356 18 46 C16.805413 72.50013 16.823325 98.985417 16.984863 125.506752 C16.995455 127.251354 17.005856 128.995958 17.016113 130.740562 C17.098946 144.823738 17.200132 158.906679 17.319397 172.989594 C17.357322 177.492035 17.391058 181.994479 17.421326 186.496979 C17.457926 191.87454 17.50433 197.251933 17.557938 202.629351 C17.576448 204.64076 17.591652 206.652203 17.603378 208.663664 C17.620248 211.448797 17.64923 214.233559 17.681152 217.018555 C17.683312 217.829744 17.685471 218.640934 17.687696 219.476705 C17.759041 224.336048 18.329164 228.417784 20 233 C22.053799 234.848015 22.053799 234.848015 24.625 236 C34.514735 241.415129 40.287992 248.003833 45.039062 258.238281 C45.879309 260.177598 45.879309 260.177598 48 261 C49.883595 261.099103 51.770747 261.132835 53.656943 261.137014 C54.867814 261.142089 56.078684 261.147163 57.326247 261.152392 C58.682093 261.152994 60.037938 261.153493 61.393784 261.1539 C62.824679 261.157913 64.255572 261.162351 65.686465 261.16718 C69.6325 261.179167 73.578522 261.184799 77.524572 261.189361 C81.774812 261.195309 86.025038 261.20692 90.275269 261.217651 C100.545202 261.242191 110.81514 261.256803 121.085093 261.269711 C123.983761 261.273422 126.882428 261.277395 129.781095 261.281464 C147.766849 261.306695 165.752604 261.328756 183.738372 261.341192 C187.905741 261.344122 192.07311 261.347084 196.240479 261.350098 C197.276304 261.350844 198.312129 261.35159 199.379343 261.352358 C216.174044 261.365023 232.968638 261.39826 249.763289 261.439899 C266.990407 261.482263 284.21747 261.505881 301.44464 261.511113 C311.123484 261.514533 320.802162 261.526359 330.480955 261.559216 C338.720502 261.58714 346.959849 261.598249 355.19944 261.58702 C359.406463 261.581814 363.613069 261.584845 367.820032 261.609486 C371.667375 261.631833 375.513997 261.631353 379.361351 261.612282 C380.757039 261.609461 382.152773 261.615193 383.548384 261.630095 C385.437904 261.649045 387.327672 261.634494 389.217216 261.618032 C390.269096 261.619389 391.320976 261.620746 392.404732 261.622143 C395.21433 261.241631 395.21433 261.241631 396.769383 258.624703 C397.175487 257.758551 397.58159 256.892399 398 256 C404.213201 244.974452 411.481974 238.235466 423 233 C424.68194 231.31806 424.122203 229.247742 424.129081 227.002719 C424.124712 225.921514 424.124712 225.921514 424.120255 224.818466 C424.121109 224.058071 424.121963 223.297676 424.122844 222.514238 C424.124501 219.946888 424.118973 217.379601 424.113525 214.812256 C424.113244 212.979619 424.113401 211.146983 424.113968 209.314346 C424.114256 204.322819 424.108358 199.331316 424.101394 194.339795 C424.095162 189.129409 424.094557 183.919023 424.093369 178.708633 C424.090255 168.83469 424.082041 158.960757 424.072019 149.086818 C424.060859 137.8488 424.055348 126.610781 424.050324 115.372759 C424.039858 92.2485 424.022258 69.12425 424 46 C422.861997 45.388652 422.861997 45.388652 421.701004 44.764954 C420.707595 44.227958 419.714186 43.690963 418.690674 43.137695 C417.212358 42.340722 417.212358 42.340722 415.704178 41.527649 C406.306955 36.218953 400.730834 28.461667 396 19 C393.147156 18.049052 391.410858 17.878374 388.455078 17.886475 C387.05598 17.88658 387.05598 17.88658 385.628616 17.886688 C384.606485 17.891855 383.584355 17.897021 382.53125 17.902344 C381.452521 17.903804 380.373792 17.905264 379.262375 17.906769 C376.911759 17.910581 374.561146 17.916705 372.210541 17.924835 C368.464329 17.937622 364.718153 17.944123 360.971924 17.948975 C352.311157 17.961385 343.650423 17.982787 334.989677 18.005203 C326.475054 18.027215 317.960446 18.045042 309.445801 18.055939 C305.802384 18.062299 302.159024 18.074818 298.515625 18.087646 C285.789806 18.115155 273.105945 17.884048 260.390476 17.364107 C251.644934 17.008005 242.924414 16.85305 234.171875 16.867188 C232.652115 16.866031 231.132354 16.864547 229.612595 16.862778 C225.514809 16.859787 221.417066 16.863999 217.319286 16.870823 C214.71474 16.875057 212.110194 16.877995 209.505646 16.880707 C196.512396 16.895825 183.519291 16.937418 170.526131 16.986855 C166.830228 17.000633 163.134322 17.013408 159.438416 17.026062 Z " fill="#363848" transform="translate(46,33)"/>
<path d="M0 0 C154.44 0 308.88 0 468 0 C466.02 2.31 464.04 4.62 462 7 C460.566257 8.678722 460.566257 8.678722 459.103549 10.391357 C456.438492 12.987543 454.252465 13.70697 450.449166 13.786051 C449.754203 13.770289 449.05924 13.754527 448.343218 13.738287 C447.210909 13.748672 447.210909 13.748672 446.055725 13.759266 C443.523176 13.775164 440.992911 13.748226 438.46048 13.721527 C436.628009 13.724143 434.795541 13.729397 432.963085 13.737062 C427.925457 13.750492 422.888593 13.72646 417.851062 13.696394 C412.419624 13.67051 406.98823 13.679249 401.556747 13.683807 C392.14567 13.686955 382.734841 13.668112 373.323826 13.63438 C359.717081 13.585641 346.110456 13.569994 332.503633 13.562452 C310.428135 13.549317 288.35277 13.509377 266.277344 13.452637 C244.831713 13.397528 223.386117 13.355028 201.94043 13.32959 C201.279352 13.328801 200.618274 13.328012 199.937164 13.327198 C192.639587 13.318502 185.34201 13.310151 178.044432 13.301942 C123.029529 13.23973 68.014771 13.134041 13 13 C13.004177 13.588295 13.008354 14.176589 13.012657 14.782711 C13.258965 49.6714 13.447626 84.559939 13.561719 119.449317 C13.575476 123.641099 13.589714 127.832879 13.604248 132.024658 C13.608576 133.276388 13.608576 133.276388 13.612992 134.553406 C13.66082 148.054823 13.74753 161.555723 13.848681 175.056833 C13.951649 188.916456 14.012668 202.775809 14.034973 216.635799 C14.050047 225.184384 14.097599 233.731508 14.187081 242.279642 C14.245354 248.146265 14.262773 254.012136 14.248515 259.879026 C14.241486 263.262125 14.258092 266.640633 14.31126 270.023624 C14.646673 292.469188 14.646673 292.469188 8.977485 298.75166 C6.800395 300.757022 4.516239 302.446252 2 304 C1.34 303.67 0.68 303.34 0 303 C-1.313989 273.07159 -1.054514 243.133848 -0.908977 213.185484 C-0.873103 205.762101 -0.844763 198.3387 -0.816284 190.915283 C-0.737877 171.40183 -0.64961 151.888417 -0.5625 132.375 C-0.376875 88.69125 -0.19125 45.0075 0 0 Z " fill="#BDD1D3" transform="translate(33,20)"/>
<path d="M0 0 C14.883765 0.004566 29.767523 0.003609 44.651288 -0.00091 C62.249101 -0.006252 79.846908 -0.008383 97.444721 -0.005298 C99.310317 -0.00498 101.175913 -0.004665 103.041509 -0.004355 C103.958081 -0.004201 104.874654 -0.004046 105.819001 -0.003887 C112.237659 -0.003028 118.656314 -0.00447 125.074971 -0.006835 C132.806981 -0.009623 140.538981 -0.008909 148.270989 -0.003554 C152.201191 -0.00092 156.131376 0.000092 160.061578 -0.003203 C163.648636 -0.006166 167.23566 -0.004573 170.822715 0.000775 C172.741522 0.002432 174.660332 -0.000856 176.579136 -0.004283 C177.705736 -0.001675 178.832335 0.000933 179.993074 0.00362 C180.970742 0.003782 181.948411 0.003944 182.955706 0.004112 C185.268476 0.129461 185.268476 0.129461 187.268476 1.129461 C187.420383 32.559572 187.565493 63.989706 187.701723 95.419889 C187.717985 99.170411 187.734302 102.920932 187.750654 106.671453 C187.753906 107.417796 187.757159 108.16414 187.760511 108.9331 C187.812614 120.85754 187.869137 132.781955 187.927434 144.706366 C187.987604 157.035082 188.0427 169.363813 188.093531 181.692571 C188.122054 188.578147 188.152725 195.463697 188.18901 202.349237 C188.390479 240.95889 188.040998 279.528805 187.268476 318.129461 C170.385032 319.255032 153.513876 319.274171 136.602122 319.260185 C132.491302 319.257894 128.380485 319.261431 124.269666 319.264165 C116.21768 319.268593 108.165704 319.267657 100.113718 319.264753 C93.510432 319.262473 86.907148 319.262197 80.303861 319.263277 C79.355275 319.26343 78.406689 319.263583 77.429358 319.263741 C75.49979 319.264061 73.570221 319.264385 71.640653 319.264713 C53.546831 319.267563 35.453014 319.264297 17.359193 319.258913 C2.093599 319.254509 -13.171986 319.255212 -28.437579 319.259832 C-117.207012 319.286003 -205.967933 319.276783 -294.731524 318.129461 C-296.043478 315.505553 -295.857421 313.57421 -295.858508 310.634283 C-295.86133 309.460298 -295.864152 308.286312 -295.86706 307.076752 C-295.865034 305.776402 -295.863007 304.476052 -295.860919 303.136297 C-295.862254 301.750823 -295.864012 300.365349 -295.86616 298.979876 C-295.87071 295.164918 -295.868832 291.349987 -295.865749 287.535029 C-295.863848 284.275092 -295.865453 281.01516 -295.867086 277.755222 C-295.871483 268.916095 -295.868484 260.076985 -295.862089 251.23786 C-295.85744 244.754837 -295.855044 238.271817 -295.853839 231.788793 C-295.844609 190.119259 -295.754223 148.450633 -295.504962 106.781805 C-295.500115 105.9669 -295.495269 105.151995 -295.490276 104.312396 C-295.284589 69.91777 -295.001959 35.523625 -294.731524 1.129461 C-206.136626 0.279071 -117.547149 -0.017804 0 0 Z M-288.731524 6.129461 C-288.731524 107.439461 -288.731524 208.749461 -288.731524 313.129461 C-133.631524 313.129461 21.468476 313.129461 181.268476 313.129461 C181.268476 211.819461 181.268476 110.509461 181.268476 6.129461 C26.168476 6.129461 -128.931524 6.129461 -288.731524 6.129461 Z " fill="#00040A" transform="translate(320.73152416944504,12.870539218187332)"/>
<path d="M0 0 C145.86 0 291.72 0 442 0 C442 92.07 442 184.14 442 279 C295.81 279 149.62 279 -1 279 C-0.67 186.93 -0.34 94.86 0 0 Z M22 4 C22.5775 4.268125 23.155 4.53625 23.75 4.8125 C24.4925 5.204375 25.235 5.59625 26 6 C26.7425 6.37125 27.485 6.7425 28.25 7.125 C30 9 30 9 30.4375 12.8125 C30.233206 16.774345 29.163498 19.634558 27 23 C26.01 23.66 25.02 24.32 24 25 C24 24.34 24 23.68 24 23 C24.99 22.67 25.98 22.34 27 22 C24.997649 20.881255 24.997649 20.881255 22.5625 20.5625 C20 20 20 20 17 18 C17.350625 18.515625 17.70125 19.03125 18.0625 19.5625 C19.451259 23.173273 19.118132 25.31674 18 29 C12.634315 33.161144 10.339293 33.082588 3 34 C3 103.63 3 173.26 3 245 C3.99 245.33 4.98 245.66 6 246 C5.01 246.773438 5.01 246.773438 4 247.5625 C1.676306 249.938936 1.676306 249.938936 1.625 253.5625 C1.745486 257.117857 1.745486 257.117857 4 260 C4.66 260 5.32 260 6 260 C6 261.65 6 263.3 6 265 C6.66 264.01 7.32 263.02 8 262 C8.99 261.34 9.98 260.68 11 260 C9.02 259.34 7.04 258.68 5 258 C4.197601 254.790405 3.704687 252.748126 4.9375 249.625 C7.57447 247.547387 9.759628 247.439485 13.066406 247.609375 C16.042324 248.210571 17.255137 249.584036 19 252 C20.25 254.25 20.25 254.25 21 256 C22.65 255.67 24.3 255.34 26 255 C26.103125 255.639375 26.20625 256.27875 26.3125 256.9375 C26.539375 257.618125 26.76625 258.29875 27 259 C27.99 259.33 28.98 259.66 30 260 C30.053955 261.624638 30.092772 263.249785 30.125 264.875 C30.148203 265.779922 30.171406 266.684844 30.195312 267.617188 C30 270 30 270 28 272 C25.28545 272.327522 22.747692 272.130842 20 272 C19 271 19 271 18.9375 267.4375 C18.958125 266.303125 18.97875 265.16875 19 264 C20.98 264.33 22.96 264.66 25 265 C24.67 265 24.34 265 24 265 C22.66432 265.323801 21.33077 265.656576 20 266 C20.33 267.65 20.66 269.3 21 271 C22.98 270.67 24.96 270.34 27 270 C27.166811 267.083478 27.166811 267.083478 27 264 C26.34 263.34 25.68 262.68 25 262 C21.471051 262.087437 21.471051 262.087437 18 263 C15.6302 265.953775 15.6302 265.953775 16 270 C14.68 270 13.36 270 12 270 C12.66 268.02 13.32 266.04 14 264 C11.69 264.66 9.38 265.32 7 266 C7.66 266.66 8.32 267.32 9 268 C9 268.99 9 269.98 9 271 C8.01 271.66 7.02 272.32 6 273 C7.138887 272.839512 7.138887 272.839512 8.300781 272.675781 C9.294648 272.555898 10.288516 272.436016 11.3125 272.3125 C12.791699 272.121074 12.791699 272.121074 14.300781 271.925781 C17 272 17 272 18.644531 273.453125 C19.091836 273.963594 19.539141 274.474063 20 275 C24.32352 275.560456 26.297048 275.478606 29.9375 273 C30.618125 272.34 31.29875 271.68 32 271 C32.495 272.98 32.495 272.98 33 275 C157.08 275 281.16 275 409 275 C409.33 273.68 409.66 272.36 410 271 C410.680625 271.66 411.36125 272.32 412.0625 273 C415.702952 275.478606 417.67648 275.560456 422 275 C423.020196 274.020612 424.021498 273.021046 425 272 C428.837029 271.666345 432.263542 272.120833 436 273 C435.01 272.34 434.02 271.68 433 271 C431.8125 268.875 431.8125 268.875 431 267 C430.67 267.66 430.34 268.32 430 269 C427.9375 269.625 427.9375 269.625 426 270 C425.67 268.68 425.34 267.36 425 266 C424.01 267.98 423.02 269.96 422 272 C415.945313 272.195312 415.945313 272.195312 414 272 C412 270 412 270 411.5625 266.125 C411.631755 262.64967 411.770561 262.229439 414.375 259.625 C415.24125 259.08875 416.1075 258.5525 417 258 C417.66 257.34 418.32 256.68 419 256 C417.68 256 416.36 256 415 256 C416.241961 254.845458 417.493928 253.701674 418.75 252.5625 C419.446094 251.924414 420.142187 251.286328 420.859375 250.628906 C425.148644 247.364992 429.802108 247.587469 435 248 C436.875 249.75 436.875 249.75 438 252 C438.391875 252.7425 438.78375 253.485 439.1875 254.25 C439.455625 254.8275 439.72375 255.405 440 256 C440.334483 253.167832 440.334483 253.167832 440 250 C438.124981 247.622803 438.124981 247.622803 436 246 C436.99 245.67 437.98 245.34 439 245 C439.069992 217.653961 439.12294 190.307935 439.155437 162.961824 C439.170924 150.265372 439.19205 137.568975 439.226318 124.872559 C439.256162 113.810071 439.275561 102.747624 439.282265 91.685098 C439.286186 85.824216 439.29544 79.963449 439.31719 74.102604 C439.337476 68.591866 439.34385 63.081291 439.339323 57.570518 C439.340152 55.542752 439.346164 53.514981 439.357616 51.487247 C439.372437 48.728935 439.368992 45.971247 439.360764 43.212921 C439.369502 42.401648 439.378241 41.590374 439.387244 40.754517 C439.403027 38.304382 439.403027 38.304382 439 35 C438.01 34.34 437.02 33.68 436 33 C436.66 32.484375 437.32 31.96875 438 31.4375 C440.656375 28.200042 440.313421 26.074477 440 22 C439.34 21.67 438.68 21.34 438 21 C438.092812 22.36125 438.092812 22.36125 438.1875 23.75 C438 27 438 27 437 29.375 C434.445983 31.450139 432.319418 31.610622 429.074219 31.472656 C425.478044 30.653189 423.572144 28.572144 421 26 C420.67 26.66 420.34 27.32 420 28 C418.02 25.525 418.02 25.525 416 23 C416.680625 23.309375 417.36125 23.61875 418.0625 23.9375 C421.01694 24.311924 421.01694 24.311924 422.890625 22.507812 C424.657388 20.719503 426.355211 18.900751 428 17 C428 19 428 19 427.3125 22.4375 C426.67437 25.861501 426.67437 25.861501 428.125 28 C430.718964 29.383447 432.251423 28.817145 435 28 C435.679586 25.602806 435.679586 25.602806 436 23 C435.34 22.34 434.68 21.68 434 21 C431.907088 21.085717 431.907088 21.085717 430 22 C429.67 22.99 429.34 23.98 429 25 C429.1875 23.125 429.1875 23.125 430 21 C432.5625 19.75 432.5625 19.75 435 19 C433.02 18.505 433.02 18.505 431 18 C431 15.36 431 12.72 431 10 C430.67 10.99 430.34 11.98 430 13 C428.68 13 427.36 13 426 13 C425.67 11.68 425.34 10.36 425 9 C424.34 10.65 423.68 12.3 423 14 C421.02 14 419.04 14 417 14 C418.666667 14 420.333333 14 422 14 C422 12.35 422 10.7 422 9 C419.602806 8.320414 419.602806 8.320414 417 8 C414.750809 9.827032 414.750809 9.827032 414.75 12.5 C414.750809 15.172968 414.750809 15.172968 417 17 C421.13831 16.699032 423.51847 16.32102 427 14 C425.192959 16.569587 423.37239 18.928865 421 21 C417.647095 21.131486 416.002777 20.568241 413.125 18.9375 C411.295736 15.787101 411.450758 12.49966 412 9 C413.5 6.5 413.5 6.5 415 5 C412.309447 6.220079 412.309447 6.220079 410 8 C409.67 6.68 409.34 5.36 409 4 C284.92 4 160.84 4 33 4 C32.67 5.32 32.34 6.64 32 8 C31.278125 7.34 30.55625 6.68 29.8125 6 C26.784021 3.846415 25.602966 3.588232 22 4 Z " fill="#181C25" transform="translate(46,33)"/>
<path d="M0 0 C155.1 0 310.2 0 470 0 C470 101.31 470 202.62 470 307 C314.9 307 159.8 307 0 307 C0 296.11 0 285.22 0 274 C0.33 274 0.66 274 1 274 C1.495 289.345 1.495 289.345 2 305 C155.78 305 309.56 305 468 305 C464.04 301.04 460.08 297.08 456 293 C454.785594 288.335443 454.357801 285.656366 454.476196 281.045776 C454.457476 279.904679 454.438757 278.763582 454.419469 277.587905 C454.371915 273.795597 454.409376 270.009139 454.447266 266.216797 C454.437587 263.485643 454.410048 260.754732 454.383545 258.023697 C454.330382 251.395315 454.341618 244.76857 454.376497 238.140126 C454.403677 232.749934 454.407239 227.360197 454.394211 221.969955 C454.392372 221.20072 454.390533 220.431485 454.388639 219.63894 C454.384802 218.075904 454.380911 216.512868 454.376968 214.949832 C454.342807 200.31751 454.382 185.686093 454.446572 171.053919 C454.500181 158.518078 454.490868 145.983571 454.435547 133.447754 C454.371224 118.86535 454.346102 104.283738 454.382894 89.701212 C454.386716 88.144157 454.390489 86.587101 454.394211 85.030045 C454.396062 84.264086 454.397913 83.498128 454.399821 82.708959 C454.410151 77.329658 454.392761 71.950862 454.364456 66.57164 C454.330682 60.009284 454.340144 53.448648 454.403825 46.886486 C454.435223 43.541601 454.441458 40.201927 454.408035 36.856707 C454.375056 33.219725 454.416539 29.590702 454.476196 25.954224 C454.449428 24.911789 454.422659 23.869354 454.395079 22.79533 C454.744139 11.770588 458.940404 11.059596 468 2 C313.89 1.67 159.78 1.34 1 1 C1 89.77 1 178.54 1 270 C0.67 270 0.34 270 0 270 C0 180.9 0 91.8 0 0 Z " fill="#95AAAD" transform="translate(32,19)"/>
<path d="M0 0 C5.502925 0.001856 11.005849 0.001416 16.508774 0.00051 C17.450451 0.000357 18.392129 0.000203 19.362342 0.000045 C21.279488 -0.000275 23.196635 -0.000599 25.113781 -0.000927 C42.532472 -0.003691 59.951157 -0.000634 77.369846 0.004873 C92.260195 0.009433 107.150536 0.008475 122.040884 0.003954 C139.64345 -0.001387 157.246012 -0.003518 174.848579 -0.000433 C176.714752 -0.000115 178.580925 0.000199 180.447098 0.00051 C181.822399 0.000741 181.822399 0.000741 183.225484 0.000977 C189.646635 0.001836 196.067783 0.000395 202.488934 -0.00197 C210.224628 -0.004759 217.960311 -0.004045 225.696004 0.001311 C229.628224 0.003945 233.560427 0.004957 237.492647 0.001662 C241.081595 -0.001301 244.67051 0.000291 248.259455 0.005639 C250.179304 0.007296 252.099155 0.004009 254.019002 0.000582 C255.146218 0.00319 256.273434 0.005798 257.434808 0.008484 C258.413019 0.008647 259.39123 0.008809 260.399083 0.008976 C262.713003 0.134326 262.713003 0.134326 264.713003 1.134326 C264.86491 32.564437 265.010021 63.994571 265.146251 95.424754 C265.162513 99.175275 265.17883 102.925797 265.195181 106.676318 C265.198434 107.422661 265.201687 108.169005 265.205038 108.937965 C265.257141 120.862405 265.313665 132.78682 265.371962 144.711231 C265.432131 157.039947 265.487228 169.368678 265.538059 181.697435 C265.566582 188.583012 265.597252 195.468561 265.633538 202.354102 C265.835007 240.963754 265.485526 279.53367 264.713003 318.134326 C243.333422 319.287296 243.333422 319.287296 233.24816 319.26372 C231.775056 319.266349 231.775056 319.266349 230.272192 319.26903 C227.10661 319.27334 223.941086 319.270548 220.775503 319.267138 C218.51704 319.267815 216.258576 319.268788 214.000113 319.270037 C209.293888 319.2715 204.587683 319.269408 199.88146 319.264697 C193.935848 319.259026 187.99028 319.262376 182.044668 319.268118 C140.249994 319.302828 140.249994 319.302828 122.650503 318.751513 C121.551578 318.72115 120.452652 318.690786 119.320425 318.659503 C118.345249 318.621385 117.370074 318.583267 116.365347 318.543993 C115.550579 318.513368 114.735811 318.482743 113.896353 318.45119 C111.497046 318.102984 109.808594 317.328978 107.713003 316.134326 C157.191328 303.764744 209.711914 315.134326 260.713003 315.134326 C260.713003 212.504326 260.713003 109.874326 260.713003 4.134326 C103.963003 4.134326 -52.786997 4.134326 -214.286997 4.134326 C-214.286997 107.094326 -214.286997 210.054326 -214.286997 316.134326 C-188.546997 316.134326 -162.806997 316.134326 -136.286997 316.134326 C-136.286997 316.464326 -136.286997 316.794326 -136.286997 317.134326 C-162.686997 317.134326 -189.086997 317.134326 -216.286997 317.134326 C-216.286997 212.854326 -216.286997 108.574326 -216.286997 1.134326 C-62.127788 -0.024766 -62.127788 -0.024766 0 0 Z " fill="#69787F" transform="translate(243.28699660301208,12.865674495697021)"/>
<path d="M0 0 C6.523077 0.615385 6.523077 0.615385 8.9375 2.5625 C9.288125 3.036875 9.63875 3.51125 10 4 C10.33 2.68 10.66 1.36 11 0 C97.79 0 184.58 0 274 0 C274 0.33 274 0.66 274 1 C261.252729 2.23901 248.53025 2.134391 235.736816 2.113525 C233.301285 2.113243 230.865753 2.113402 228.430222 2.113968 C223.212272 2.114195 217.994333 2.111385 212.776386 2.10573 C205.232364 2.097559 197.688348 2.094994 190.144323 2.093742 C177.900899 2.09156 165.657482 2.084924 153.414062 2.075439 C141.529623 2.066243 129.645185 2.059173 117.760742 2.054932 C117.026632 2.054669 116.292523 2.054406 115.536167 2.054136 C111.85289 2.05283 108.169614 2.051567 104.486337 2.050324 C73.990886 2.039978 43.495444 2.022309 13 2 C12.853047 3.26457 12.706094 4.529141 12.554688 5.832031 C11.552688 14.4545 7.152937 20.835133 0.542969 26.304688 C-4.848939 29.899292 -10.520625 32 -17 32 C-17 100.31 -17 168.62 -17 239 C-14.36 239.33 -11.72 239.66 -9 240 C-0.286446 242.836971 6.129914 248.543594 10.382812 256.628906 C12.314325 261.160533 13 263.949923 13 269 C135.76 269 258.52 269 385 269 C385.33 266.36 385.66 263.72 386 261 C388.836971 252.286446 394.543594 245.870086 402.628906 241.617188 C407.160533 239.685675 409.949923 239 415 239 C415 170.69 415 102.38 415 32 C411.04 31.505 411.04 31.505 407 31 C398.286446 28.163029 391.870086 22.456406 387.617188 14.371094 C385.764062 10.023376 384.925358 6.731892 385 2 C384.132481 2.003331 384.132481 2.003331 383.247437 2.006729 C377.146247 2.029111 371.045069 2.044041 364.943848 2.054932 C362.67659 2.059914 360.409336 2.066703 358.14209 2.075439 C345.385526 2.123312 332.719138 2.05794 320 1 C320 0.67 320 0.34 320 0 C342.11 0 364.22 0 387 0 C387.33 1.32 387.66 2.64 388 4 C389.485 2.515 389.485 2.515 391 1 C391.66 1.33 392.32 1.66 393 2 C392.2575 2.495 392.2575 2.495 391.5 3 C389.549364 5.600848 389.458026 7.85418 389.582031 11.054688 C389.902652 13.296788 389.902652 13.296788 392.1875 15.5625 C394.845706 17.163578 394.845706 17.163578 397.5 17.125 C401.111288 15.49992 402.644632 13.162923 405 10 C404.278125 10.495 403.55625 10.99 402.8125 11.5 C399.825331 13.093157 398.319999 13.448649 395 13 C393 11 393 11 392.75 8.5 C393 6 393 6 395 4 C397.625 4.375 397.625 4.375 400 5 C400 6.65 400 8.3 400 10 C398.35 9.67 396.7 9.34 395 9 C395 9.33 395 9.66 395 10 C396.98 10 398.96 10 401 10 C401.66 8.35 402.32 6.7 403 5 C403.33 6.32 403.66 7.64 404 9 C405.32 9 406.64 9 408 9 C408.33 8.01 408.66 7.02 409 6 C409 8.64 409 11.28 409 14 C410.98 14.495 410.98 14.495 413 15 C411.35 15.66 409.7 16.32 408 17 C408 17.33 408 17.66 408 18 C408.61875 17.79375 409.2375 17.5875 409.875 17.375 C410.57625 17.25125 411.2775 17.1275 412 17 C412.66 17.66 413.32 18.32 414 19 C413.625 21.625 413.625 21.625 413 24 C408.585683 25.312364 408.585683 25.312364 406.125 24 C404.392544 20.920079 405.375882 18.370235 406 15 C405.67 14.67 405.34 14.34 405 14 C404.636484 14.444727 404.272969 14.889453 403.898438 15.347656 C402.342443 17.099147 400.892734 18.614553 399 20 C395.625 19.875 395.625 19.875 393 19 C394.98 20.65 396.96 22.3 399 24 C399.33 23.34 399.66 22.68 400 22 C400.66 22.825 401.32 23.65 402 24.5 C404.975587 26.979656 405.523194 27.409656 409.125 27.5625 C412.918542 27.349828 412.918542 27.349828 415 25.375 C416.233189 22.446177 416.214576 20.147112 416 17 C416.66 17.33 417.32 17.66 418 18 C418.492308 24.4 418.492308 24.4 416 27.4375 C415.34 27.953125 414.68 28.46875 414 29 C414.99 29.66 415.98 30.32 417 31 C417.294236 33.810292 417.391059 36.40032 417.360764 39.212921 C417.363327 40.072176 417.36589 40.931431 417.368531 41.816724 C417.373495 44.712801 417.356932 47.608364 417.340576 50.504395 C417.33973 52.573629 417.340204 54.642864 417.341904 56.712097 C417.342767 62.344109 417.325082 67.97593 417.304182 73.607897 C417.285476 79.488253 417.283669 85.368612 417.280106 91.248993 C417.270767 102.390832 417.246129 113.532583 417.216057 124.674383 C417.182569 137.356159 417.166041 150.037939 417.150971 162.719748 C417.119581 188.813214 417.066786 214.906602 417 241 C416.01 241.33 415.02 241.66 414 242 C414.66 242.53625 415.32 243.0725 416 243.625 C418 246 418 246 418.25 249.25 C418.1675 250.1575 418.085 251.065 418 252 C417.731875 251.4225 417.46375 250.845 417.1875 250.25 C416.795625 249.5075 416.40375 248.765 416 248 C415.62875 247.2575 415.2575 246.515 414.875 245.75 C412.964576 243.620194 412.964576 243.620194 409.25 243.5625 C403.632511 243.872288 399.387718 245.469952 395.5625 249.6875 C395.046875 250.450625 394.53125 251.21375 394 252 C394.99 252.33 395.98 252.66 397 253 C395.545937 253.959063 395.545937 253.959063 394.0625 254.9375 C391.239637 256.696526 391.239637 256.696526 390 258 C389.770818 262.016571 389.770818 262.016571 390 266 C391.761364 268.183317 391.761364 268.183317 393.945312 268.195312 C395.963542 268.130208 397.981771 268.065104 400 268 C400.99 266.02 401.98 264.04 403 262 C403.33 263.32 403.66 264.64 404 266 C406.867247 265.426551 407.861452 265.138548 410 263 C410.103125 263.61875 410.20625 264.2375 410.3125 264.875 C410.875254 267.365265 410.875254 267.365265 414 269 C413.240742 268.893008 412.481484 268.786016 411.699219 268.675781 C410.705352 268.555898 409.711484 268.436016 408.6875 268.3125 C407.701367 268.184883 406.715234 268.057266 405.699219 267.925781 C402.971626 267.712059 402.971626 267.712059 401.355469 269.453125 C400.684512 270.218828 400.684512 270.218828 400 271 C395.67648 271.560456 393.702952 271.478606 390.0625 269 C389.381875 268.34 388.70125 267.68 388 267 C387.67 268.32 387.34 269.64 387 271 C262.92 271 138.84 271 11 271 C10.505 269.02 10.505 269.02 10 267 C9.319375 267.66 8.63875 268.32 7.9375 269 C4.280603 271.489802 2.345791 271.553101 -2 271 C-3.361613 270.038861 -4.698552 269.041158 -6 268 C-9.484994 267.642565 -12.599945 268.222845 -16 269 C-15.01 268.34 -14.02 267.68 -13 267 C-13 266.01 -13 265.02 -13 264 C-13.66 263.34 -14.32 262.68 -15 262 C-12.69 261.34 -10.38 260.68 -8 260 C-8.66 261.98 -9.32 263.96 -10 266 C-8.68 266 -7.36 266 -6 266 C-5.896875 265.05125 -5.79375 264.1025 -5.6875 263.125 C-5 260 -5 260 -2 258 C0.5625 257.75 0.5625 257.75 3 258 C5 260 5 260 5.125 263.125 C5.08375 264.07375 5.0425 265.0225 5 266 C3.02 266.33 1.04 266.66 -1 267 C-1.33 265.35 -1.66 263.7 -2 262 C-0.68 261.67 0.64 261.34 2 261 C0.35 260.67 -1.3 260.34 -3 260 C-3.042417 262.332948 -3.040929 264.667026 -3 267 C-1.10511 268.89489 1.571391 268.180191 4.089844 268.230469 C6.241264 268.170279 6.241264 268.170279 8 266 C8.242875 263.559871 8.242875 263.559871 8.125 260.875 C8.106953 259.964922 8.088906 259.054844 8.070312 258.117188 C8.047109 257.418516 8.023906 256.719844 8 256 C6.68 255.34 5.36 254.68 4 254 C4 253.01 4 252.02 4 251 C2.35 251.33 0.7 251.66 -1 252 C-1.976562 250.209635 -2.953125 248.419271 -3.929688 246.628906 C-4.9141 244.833817 -4.9141 244.833817 -7 244 C-12.444264 243.356648 -12.444264 243.356648 -17.0625 245.625 C-18.295313 248.748126 -17.802399 250.790405 -17 254 C-15.02 254.66 -13.04 255.32 -11 256 C-11.99 256.66 -12.98 257.32 -14 258 C-14.66 258.99 -15.32 259.98 -16 261 C-16 259.35 -16 257.7 -16 256 C-16.99 255.67 -17.98 255.34 -19 255 C-20.545869 251.908262 -20.293595 249.405704 -20 246 C-18 243.5625 -18 243.5625 -16 242 C-16.99 241.67 -17.98 241.34 -19 241 C-19 171.37 -19 101.74 -19 30 C-13.555 29.01 -13.555 29.01 -8 28 C-4.72508 25.624077 -3.245843 24.439935 -2.5625 20.4375 C-3.008315 17.953674 -3.718 16.163375 -5 14 C-4.46375 14.495 -3.9275 14.99 -3.375 15.5 C-0.406416 17.374895 1.553124 17.235014 5 17 C4.67 17.66 4.34 18.32 4 19 C3.34 19 2.68 19 2 19 C2 19.66 2 20.32 2 21 C5.515326 18.773627 6.924489 17.033166 8 13 C8.369697 10.137646 8.284336 7.938139 8 5 C6.346265 3.009664 6.346265 3.009664 4 2 C3.2575 1.608125 2.515 1.21625 1.75 0.8125 C1.1725 0.544375 0.595 0.27625 0 0 Z " fill="#888F98" transform="translate(68,37)"/>
<path d="M0 0 C0.33 0 0.66 0 1 0 C1 81.18 1 162.36 1 246 C-134.96 246 -270.92 246 -411 246 C-410.01 245.01 -410.01 245.01 -409 244 C-408.833227 240.41656 -408.833227 240.41656 -409 237 C-408.67 237 -408.34 237 -408 237 C-408 238.98 -408 240.96 -408 243 C-283.92 243 -159.84 243 -32 243 C-32 241.02 -32 239.04 -32 237 C-31.154375 237.825 -30.30875 238.65 -29.4375 239.5 C-26.785957 241.711713 -25.944942 242.007466 -22.3125 242.5 C-18.672771 241.950607 -18.381777 241.485332 -16 239 C-12.875 238.8125 -12.875 238.8125 -10 239 C-9.67 239 -9.34 239 -9 239 C-9.33 238.34 -9.66 237.68 -10 237 C-10.804375 237.185625 -11.60875 237.37125 -12.4375 237.5625 C-13.705938 237.779063 -13.705938 237.779063 -15 238 C-15.33 237.67 -15.66 237.34 -16 237 C-16.33 237.66 -16.66 238.32 -17 239 C-19.298515 241.298515 -19.874531 241.339829 -23 241.4375 C-25.404189 241.291658 -26.832868 241.083566 -29 240 C-30.638813 236.722373 -30.766272 233.516642 -30 230 C-27.5 227 -27.5 227 -25 225 C-25.66 224.67 -26.32 224.34 -27 224 C-25.591481 222.678761 -24.172843 221.368302 -22.75 220.0625 C-21.961094 219.331602 -21.172188 218.600703 -20.359375 217.847656 C-16.534058 214.852002 -12.65552 214.615091 -7.90625 214.632812 C-6 215 -6 215 -3.5 217.5 C-3.005 218.325 -2.51 219.15 -2 220 C-2.398036 217.114242 -2.790091 216.178105 -5.0625 214.25 C-5.701875 213.8375 -6.34125 213.425 -7 213 C-5.35 213 -3.7 213 -2 213 C-2.002765 211.380722 -2.002765 211.380722 -2.005587 209.728732 C-2.049939 183.490375 -2.082829 157.252023 -2.103624 131.013637 C-2.113947 118.325077 -2.128027 105.636542 -2.150879 92.947998 C-2.170782 81.891727 -2.183709 70.835474 -2.188177 59.779186 C-2.19079 53.922213 -2.196952 48.065291 -2.21146 42.208334 C-2.224995 36.700079 -2.229231 31.191896 -2.226215 25.683626 C-2.226767 23.657898 -2.230769 21.632167 -2.238411 19.606453 C-2.248308 16.848604 -2.245988 14.091031 -2.240509 11.333176 C-2.249248 10.120635 -2.249248 10.120635 -2.258163 8.883598 C-2.237478 5.052873 -2.177037 3.265555 0 0 Z " fill="#050813" transform="translate(487,65)"/>
<path d="M0 0 C156.42 0 312.84 0 474 0 C473.67 0.99 473.34 1.98 473 3 C239.855 2.505 239.855 2.505 2 2 C2.33 103.64 2.66 205.28 3 310 C2.01 310.33 1.02 310.66 0 311 C0 208.37 0 105.74 0 0 Z " fill="#00050A" transform="translate(30,17)"/>
<path d="M0 0 C21.582737 0.658982 43.165311 0.964303 64.756134 1.205185 C69.330743 1.256845 73.905314 1.31175 78.479889 1.366318 C87.340533 1.471566 96.20121 1.573454 105.06192 1.672958 C101.901378 3.779987 101.174971 3.922473 97.569791 3.919054 C96.180971 3.925027 96.180971 3.925027 94.764094 3.93112 C93.745913 3.925295 92.727731 3.919469 91.678696 3.913467 C90.061683 3.916035 90.061683 3.916035 88.412003 3.918655 C84.770259 3.921979 81.128696 3.910897 77.486969 3.900009 C74.84335 3.899397 72.199742 3.899574 69.556125 3.90074 C63.178985 3.901804 56.801901 3.892558 50.424775 3.879737 C43.050363 3.865354 35.675971 3.863748 28.301544 3.862167 C8.825827 3.851661 -10.649877 3.823738 -30.12558 3.797958 C-95.372767 3.736083 -95.372767 3.736083 -161.93808 3.672958 C-161.93808 106.632958 -161.93808 209.592958 -161.93808 315.672958 C-136.19808 315.672958 -110.45808 315.672958 -83.93808 315.672958 C-83.93808 316.002958 -83.93808 316.332958 -83.93808 316.672958 C-110.33808 316.672958 -136.73808 316.672958 -163.93808 316.672958 C-163.93808 212.392958 -163.93808 108.112958 -163.93808 0.672958 C-14.432176 -0.451146 -14.432176 -0.451146 0 0 Z " fill="#E4F8FB" transform="translate(190.93807983398438,13.327041625976563)"/>
<path d="M0 0 C145.86 0 291.72 0 442 0 C442 36.789786 442 36.789786 441.908203 55.09375 C441.898286 57.187113 441.888436 59.280477 441.878647 61.37384 C441.852463 66.933755 441.825364 72.493664 441.798071 78.053574 C441.769489 83.909737 441.741791 89.765904 441.713989 95.62207 C441.661475 106.656623 441.608192 117.691172 441.554617 128.725719 C441.49355 141.311467 441.433363 153.897219 441.373242 166.482971 C441.249792 192.321985 441.125264 218.160994 441 244 C440.67 244 440.34 244 440 244 C440 175.03 440 106.06 440 35 C438.02 34.67 436.04 34.34 434 34 C435.2375 32.824375 435.2375 32.824375 436.5 31.625 C439.229885 29.362787 439.229885 29.362787 439 27 C438.2575 28.2375 438.2575 28.2375 437.5 29.5 C435 32 435 32 431.0625 32.5625 C426.991694 32.327937 425.00246 30.745106 422 28 C421.01 28 420.02 28 419 28 C417.075035 26.178062 415.624645 24.107647 414 22 C415.010625 22.309375 416.02125 22.61875 417.0625 22.9375 C420.890741 23.396195 420.890741 23.396195 423.023438 21.507812 C424.771265 19.731449 426.419632 17.926223 428 16 C428.66 16.99 429.32 17.98 430 19 C429.34 19 428.68 19 428 19 C427.833227 22.41656 427.833227 22.41656 428 26 C428.66 26.66 429.32 27.32 430 28 C432.602806 27.679586 432.602806 27.679586 435 27 C434.67 25.35 434.34 23.7 434 22 C433.01 22 432.02 22 431 22 C430.34 23.32 429.68 24.64 429 26 C428.3125 24.25 428.3125 24.25 428 22 C428.7425 21.040937 428.7425 21.040937 429.5 20.0625 C431.319305 18.049272 431.319305 18.049272 430.6875 15.25 C430.460625 14.5075 430.23375 13.765 430 13 C427.583542 12.833126 427.583542 12.833126 425 13 C424.34 13.66 423.68 14.32 423 15 C419.875 15.125 419.875 15.125 417 15 C416.67 13.68 416.34 12.36 416 11 C416.66 11.66 417.32 12.32 418 13 C420.06874 13.642524 420.06874 13.642524 422 14 C421.67 12.35 421.34 10.7 421 9 C419.35 9.33 417.7 9.66 416 10 C415.957279 11.666119 415.959362 13.333829 416 15 C416.33 15.33 416.66 15.66 417 16 C420.497342 15.611406 423.657883 15.114039 427 14 C425.553696 17.37471 423.95743 19.781928 421 22 C417.469196 22 415.567716 21.373497 412.625 19.4375 C410.184658 15.776987 410.58459 13.3618 411 9 C411.66 8.01 412.32 7.02 413 6 C411.68 7.32 410.36 8.64 409 10 C409 7.69 409 5.38 409 3 C385.9 3 362.8 3 339 3 C339 2.67 339 2.34 339 2 C171.195 1.505 171.195 1.505 0 1 C0 0.67 0 0.34 0 0 Z " fill="#232A34" transform="translate(46,33)"/>
<path d="M0 0 C22.11 0 44.22 0 67 0 C67.495 1.98 67.495 1.98 68 4 C68.99 3.01 69.98 2.02 71 1 C71.99 1.495 71.99 1.495 73 2 C72.505 2.33 72.01 2.66 71.5 3 C69.549364 5.600848 69.458026 7.85418 69.582031 11.054688 C69.902652 13.296788 69.902652 13.296788 72.1875 15.5625 C74.845706 17.163578 74.845706 17.163578 77.5 17.125 C81.111288 15.49992 82.644632 13.162923 85 10 C84.278125 10.495 83.55625 10.99 82.8125 11.5 C79.825331 13.093157 78.319999 13.448649 75 13 C73 11 73 11 72.75 8.5 C73 6 73 6 75 4 C77.625 4.375 77.625 4.375 80 5 C80 6.65 80 8.3 80 10 C78.35 9.67 76.7 9.34 75 9 C75 9.33 75 9.66 75 10 C76.98 10 78.96 10 81 10 C81.66 8.35 82.32 6.7 83 5 C83.495 6.98 83.495 6.98 84 9 C85.32 9 86.64 9 88 9 C88.33 8.01 88.66 7.02 89 6 C89 8.64 89 11.28 89 14 C90.32 14.33 91.64 14.66 93 15 C91.35 15.66 89.7 16.32 88 17 C88 17.33 88 17.66 88 18 C88.61875 17.79375 89.2375 17.5875 89.875 17.375 C90.57625 17.25125 91.2775 17.1275 92 17 C92.99 17.99 92.99 17.99 94 19 C93.625 21.625 93.625 21.625 93 24 C88.585683 25.312364 88.585683 25.312364 86.125 24 C84.392544 20.920079 85.375882 18.370235 86 15 C85.505 14.505 85.505 14.505 85 14 C84.636484 14.444727 84.272969 14.889453 83.898438 15.347656 C82.342443 17.099147 80.892734 18.614553 79 20 C75.625 19.875 75.625 19.875 73 19 C74.98 20.65 76.96 22.3 79 24 C79.33 23.34 79.66 22.68 80 22 C80.99 23.2375 80.99 23.2375 82 24.5 C84.975587 26.979656 85.523194 27.409656 89.125 27.5625 C92.918542 27.349828 92.918542 27.349828 95 25.375 C96.233189 22.446177 96.214576 20.147112 96 17 C96.66 17.33 97.32 17.66 98 18 C98.492308 24.4 98.492308 24.4 96 27.4375 C95.34 27.953125 94.68 28.46875 94 29 C94.99 29.66 95.98 30.32 97 31 C97.294236 33.810292 97.391059 36.40032 97.360764 39.212921 C97.363327 40.072176 97.36589 40.931431 97.368531 41.816724 C97.373495 44.712801 97.356932 47.608364 97.340576 50.504395 C97.33973 52.573629 97.340204 54.642864 97.341904 56.712097 C97.342767 62.344109 97.325082 67.97593 97.304182 73.607897 C97.285476 79.488253 97.283669 85.368612 97.280106 91.248993 C97.270767 102.390832 97.246129 113.532583 97.216057 124.674383 C97.182569 137.356159 97.166041 150.037939 97.150971 162.719748 C97.119581 188.813214 97.066786 214.906602 97 241 C96.01 241.33 95.02 241.66 94 242 C94.66 242.53625 95.32 243.0725 96 243.625 C98 246 98 246 98.25 249.25 C98.1675 250.1575 98.085 251.065 98 252 C97.731875 251.4225 97.46375 250.845 97.1875 250.25 C96.599688 249.13625 96.599688 249.13625 96 248 C95.62875 247.2575 95.2575 246.515 94.875 245.75 C92.964576 243.620194 92.964576 243.620194 89.25 243.5625 C83.632511 243.872288 79.387718 245.469952 75.5625 249.6875 C75.046875 250.450625 74.53125 251.21375 74 252 C74.99 252.33 75.98 252.66 77 253 C76.030625 253.639375 75.06125 254.27875 74.0625 254.9375 C71.239637 256.696526 71.239637 256.696526 70 258 C69.770818 262.016571 69.770818 262.016571 70 266 C71.761364 268.183317 71.761364 268.183317 73.945312 268.195312 C75.963542 268.130208 77.981771 268.065104 80 268 C80.99 266.02 81.98 264.04 83 262 C83.33 263.32 83.66 264.64 84 266 C86.867247 265.426551 87.861452 265.138548 90 263 C90.103125 263.61875 90.20625 264.2375 90.3125 264.875 C90.875254 267.365265 90.875254 267.365265 94 269 C92.861113 268.839512 92.861113 268.839512 91.699219 268.675781 C90.208418 268.495957 90.208418 268.495957 88.6875 268.3125 C87.701367 268.184883 86.715234 268.057266 85.699219 267.925781 C82.971626 267.712059 82.971626 267.712059 81.355469 269.453125 C80.908164 269.963594 80.460859 270.474063 80 271 C75.67648 271.560456 73.702952 271.478606 70.0625 269 C69.381875 268.34 68.70125 267.68 68 267 C67.67 268.32 67.34 269.64 67 271 C44.89 271 22.78 271 0 271 C0 270.67 0 270.34 0 270 C21.641587 268.565765 43.323766 268.9044 65 269 C65.146953 267.73543 65.293906 266.470859 65.445312 265.167969 C66.453326 256.493746 70.875447 250.181184 77.527344 244.695312 C83.157503 240.83514 88.180837 239 95 239 C95 170.69 95 102.38 95 32 C92.36 31.67 89.72 31.34 87 31 C78.286446 28.163029 71.870086 22.456406 67.617188 14.371094 C65.764062 10.023376 64.925358 6.731892 65 2 C64.132481 2.003331 64.132481 2.003331 63.247437 2.006729 C57.146247 2.029111 51.045069 2.044041 44.943848 2.054932 C42.67659 2.059914 40.409336 2.066703 38.14209 2.075439 C25.385526 2.123312 12.719138 2.05794 0 1 C0 0.67 0 0.34 0 0 Z " fill="#AAAEB9" transform="translate(388,37)"/>
<path d="M0 0 C0.33 0 0.66 0 1 0 C1 1.98 1 3.96 1 6 C1.638756 5.99962 2.277512 5.999241 2.935624 5.998849 C41.109414 5.976289 79.283204 5.959223 117.457 5.948935 C122.078755 5.947685 126.70051 5.94639 131.322266 5.945068 C132.242065 5.944806 133.161864 5.944544 134.109536 5.944273 C148.846899 5.939966 163.584258 5.932107 178.321619 5.922847 C193.534145 5.913371 208.746669 5.907916 223.959198 5.905912 C232.465607 5.904683 240.972007 5.901799 249.478413 5.89427 C291.663441 5.857988 333.822691 6.150509 376 7 C376 7.33 376 7.66 376 8 C333.106799 8.884537 290.232243 9.140973 247.330956 9.103538 C238.658378 9.096182 229.985802 9.09487 221.313222 9.093742 C205.862539 9.091584 190.411862 9.085014 174.961182 9.075439 C160.002849 9.06618 145.044517 9.059142 130.086182 9.054932 C129.15533 9.054669 128.224479 9.054406 127.26542 9.054136 C122.592978 9.05283 117.920536 9.051566 113.248094 9.050324 C74.832059 9.040052 36.41603 9.022525 -2 9 C-1.34 8.34 -0.68 7.68 0 7 C0.166773 3.41656 0.166773 3.41656 0 0 Z " fill="#070715" transform="translate(78,302)"/>
<path d="M0 0 C124.74 0 249.48 0 378 0 C377.67 0.99 377.34 1.98 377 3 C252.92 3 128.84 3 1 3 C0.67 2.01 0.34 1.02 0 0 Z " fill="#020611" transform="translate(78,34)"/>
<path d="M0 0 C0.33 0 0.66 0 1 0 C1 104.28 1 208.56 1 316 C1.66 315.67 2.32 315.34 3 315 C3 212.04 3 109.08 3 3 C3.33 3 3.66 3 4 3 C4 105.63 4 208.26 4 314 C39.97 314 75.94 314 113 314 C113 314.66 113 315.32 113 316 C101.281203 317.396325 89.514672 317.126547 77.734375 317.097656 C75.487081 317.095788 73.239787 317.094366 70.992493 317.093369 C65.113737 317.089573 59.235008 317.079769 53.356262 317.068665 C47.34298 317.058385 41.329694 317.053857 35.316406 317.048828 C23.54426 317.038144 11.772132 317.021104 0 317 C-1.311954 314.376092 -1.125897 312.444749 -1.126984 309.504822 C-1.129806 308.330837 -1.132628 307.156852 -1.135536 305.947291 C-1.133509 304.646941 -1.131483 303.346591 -1.129395 302.006836 C-1.13073 300.621362 -1.132488 299.235888 -1.134636 297.850415 C-1.139186 294.035458 -1.137307 290.220526 -1.134224 286.405568 C-1.132323 283.145631 -1.133929 279.885699 -1.135561 276.625761 C-1.139958 267.786635 -1.13696 258.947524 -1.130565 250.108399 C-1.125915 243.625377 -1.123519 237.142356 -1.122314 230.659332 C-1.105283 153.770463 -0.63812 76.885962 0 0 Z " fill="#606E73" transform="translate(26,14)"/>
<path d="M0 0 C31.68 0 63.36 0 96 0 C96 104.28 96 208.56 96 316 C64.32 315.67 32.64 315.34 0 315 C0 314.67 0 314.34 0 314 C31.02 314 62.04 314 94 314 C94 210.71 94 107.42 94 1 C62.98 1 31.96 1 0 1 C0 0.67 0 0.34 0 0 Z " fill="#E4F7FC" transform="translate(411,15)"/>
<path d="M0 0 C10.137706 -0.05305 20.254998 0.102495 30.387901 0.41188 C51.225508 1.041143 72.064443 1.316278 92.909588 1.548841 C97.484197 1.600501 102.058767 1.655406 106.633343 1.709974 C115.493986 1.815222 124.354664 1.91711 133.215374 2.016615 C130.063426 4.117913 129.340195 4.267179 125.747242 4.271091 C124.826986 4.276923 123.90673 4.282755 122.958587 4.288764 C121.946053 4.284984 120.933518 4.281205 119.890301 4.277311 C118.278669 4.28305 118.278669 4.28305 116.63448 4.288904 C113.016213 4.299264 109.398104 4.295236 105.779827 4.291273 C103.193151 4.295618 100.606475 4.3008 98.019802 4.306761 C91.712562 4.319526 85.405365 4.321299 79.098114 4.318961 C73.973301 4.317179 68.848501 4.318923 63.72369 4.323185 C62.630719 4.324078 62.630719 4.324078 61.515668 4.324989 C60.035558 4.3262 58.555449 4.327414 57.07534 4.328631 C43.187627 4.339513 29.299938 4.337341 15.412224 4.331246 C2.697987 4.326075 -10.016174 4.337336 -22.730396 4.356344 C-35.776506 4.3757 -48.82258 4.383983 -61.868704 4.380221 C-69.196696 4.378306 -76.524623 4.380829 -83.852604 4.394936 C-90.740656 4.408061 -97.628552 4.405621 -104.516603 4.392525 C-107.050286 4.390148 -109.58398 4.392933 -112.117651 4.401148 C-115.565133 4.411523 -119.01209 4.403589 -122.459553 4.390837 C-123.978355 4.401898 -123.978355 4.401898 -125.527839 4.413183 C-126.448095 4.405976 -127.368351 4.39877 -128.316494 4.391345 C-129.11266 4.3914 -129.908826 4.391455 -130.729119 4.391512 C-133.27209 3.927708 -134.164192 2.976652 -135.784626 1.016615 C-118.754459 0.885392 -101.724286 0.754967 -84.694105 0.625463 C-76.784823 0.5653 -68.875542 0.504887 -60.966267 0.443861 C-54.064049 0.390606 -47.161828 0.337844 -40.259602 0.285648 C-36.612673 0.258053 -32.965747 0.230228 -29.318825 0.201811 C-19.545932 0.125802 -9.773015 0.058312 0 0 Z " fill="#C4CDD1" transform="translate(162.78462600708008,12.98338508605957)"/>
<path d="M0 0 C23.43 0 46.86 0 71 0 C71 0.33 71 0.66 71 1 C69.854874 1.015461 69.854874 1.015461 68.686615 1.031235 C61.4775 1.129382 54.268467 1.23192 47.059484 1.339339 C43.35365 1.394406 39.647808 1.447799 35.941895 1.497314 C32.362713 1.545199 28.783621 1.597549 25.204548 1.652941 C23.841897 1.673255 22.479222 1.691986 21.116528 1.709074 C19.201813 1.733361 17.28718 1.763902 15.372559 1.794678 C14.284459 1.810222 13.196359 1.825766 12.075287 1.841782 C8.983346 2.000857 6.040875 2.430601 3 3 C2.853047 3.617461 2.706094 4.234922 2.554688 4.871094 C-0.128286 15.001632 -4.820261 22.633649 -14 28 C-18.69175 30.248865 -22.801622 31.133604 -28 32 C-28 98.99 -28 165.98 -28 235 C-25.03 235.66 -22.06 236.32 -19 237 C-19 237.66 -19 238.32 -19 239 C-22.63 238.34 -26.26 237.68 -30 237 C-30 168.69 -30 100.38 -30 30 C-25.71 28.68 -21.42 27.36 -17 26 C-8.397091 20.461141 -4.220461 14.676503 -1 5 C-0.67 3.35 -0.34 1.7 0 0 Z " fill="#050A13" transform="translate(81,39)"/>
<path d="M0 0 C85.14 0 170.28 0 258 0 C258 0.33 258 0.66 258 1 C237.54 1.33 217.08 1.66 196 2 C202.27 2.33 208.54 2.66 215 3 C215 3.33 215 3.66 215 4 C177.05 4 139.1 4 100 4 C100 3.67 100 3.34 100 3 C99.086412 2.989693 98.172824 2.979385 97.231552 2.968765 C88.511995 2.869728 79.79249 2.767089 71.07302 2.660661 C66.593052 2.606099 62.113077 2.552806 57.633057 2.502686 C38.406489 2.286708 19.203277 2.053421 0 1 C0 0.67 0 0.34 0 0 Z " fill="#576064" transform="translate(193,13)"/>
<path d="M0 0 C5.118534 2.047414 5.118534 2.047414 6.4375 4.375 C6.985478 9.94611 6.627562 13.589907 3.4375 18.375 C1.25 19.75 1.25 19.75 -0.5625 20.375 C-0.5625 18.375 -0.5625 18.375 0.4375 17.375 C-2.538243 16.672334 -2.538243 16.672334 -5.5625 16.375 C-5.2325 16.705 -4.9025 17.035 -4.5625 17.375 C-4.718985 21.521845 -4.912943 23.689356 -7.8125 26.75 C-10.619411 28.408629 -12.30833 29.293646 -15.5625 29.375 C-18.399636 27.989422 -20.332517 26.604983 -22.5625 24.375 C-23.024293 19.387636 -22.633017 17.213147 -19.5625 13.375 C-19.228243 10.748749 -19.228243 10.748749 -19.5625 8.375 C-19.8925 8.045 -20.2225 7.715 -20.5625 7.375 C-20.6875 4.875 -20.6875 4.875 -20.5625 2.375 C-19.5625 1.375 -19.5625 1.375 -17.125 1.25 C-14.5625 1.375 -14.5625 1.375 -12.5625 2.375 C-10.146662 2.708743 -10.146662 2.708743 -7.5625 2.375 C-6.94375 1.83875 -6.325 1.3025 -5.6875 0.75 C-3.5625 -0.625 -3.5625 -0.625 0 0 Z " fill="#1E232F" transform="translate(70.5625,37.625)"/>
<path d="M0 0 C2.883825 2.514104 3.819025 4.445765 5 8.0625 C5 11 5 11 3.0625 13.375 C2.381875 13.91125 1.70125 14.4475 1 15 C1.33 15.721875 1.66 16.44375 2 17.1875 C3.006035 20.016974 3.169774 22.028955 3 25 C2.34 25.33 1.68 25.66 1 26 C-2.735849 24.528302 -2.735849 24.528302 -4 22 C-4.804375 22.185625 -5.60875 22.37125 -6.4375 22.5625 C-7.283125 22.706875 -8.12875 22.85125 -9 23 C-9.33 22.67 -9.66 22.34 -10 22 C-10.33 22.66 -10.66 23.32 -11 24 C-13.298515 26.298515 -13.874531 26.339829 -17 26.4375 C-19.404189 26.291658 -20.832868 26.083566 -23 25 C-24.638813 21.722373 -24.766272 18.516642 -24 15 C-21.5 12 -21.5 12 -19 10 C-19.66 9.67 -20.32 9.34 -21 9 C-19.591481 7.678761 -18.172843 6.368302 -16.75 5.0625 C-15.961094 4.331602 -15.172188 3.600703 -14.359375 2.847656 C-10.244115 -0.375056 -5.109891 -0.923348 0 0 Z " fill="#5F6570" transform="translate(481,280)"/>
<path d="M0 0 C2.64 0.33 5.28 0.66 8 1 C8 69.31 8 137.62 8 208 C1.565 209.98 1.565 209.98 -5 212 C-12.090125 216.294019 -16.304137 221.608274 -20 229 C-20.99 228.67 -21.98 228.34 -23 228 C-18.782768 217.923248 -13.351753 212.035136 -3.273438 207.726562 C-1 207 -1 207 5 206 C5.33 139.01 5.66 72.02 6 3 C3.03 2.505 3.03 2.505 0 2 C0 1.34 0 0.68 0 0 Z " fill="#050914" transform="translate(475,68)"/>
<path d="M0 0 C20.312493 -0.031494 40.624986 -0.051266 60.9375 -0.0625 C61.699899 -0.062934 62.462298 -0.063369 63.2478 -0.063816 C110.854985 -0.090191 158.457197 0.07161 206.0625 0.5 C206.7272 0.505974 207.3919 0.511947 208.076742 0.518102 C224.717937 0.667868 241.35902 0.827941 258 1 C258 1.33 258 1.66 258 2 C240.854282 2.17913 223.708447 2.3444 206.5625 2.5 C204.600507 2.517816 204.600507 2.517816 202.598877 2.535992 C155.732256 2.95734 108.868404 3.089184 62 3.0625 C61.232509 3.062076 60.465018 3.061652 59.674269 3.061214 C40.116167 3.050219 20.558083 3.030277 1 3 C0.67 2.01 0.34 1.02 0 0 Z " fill="#0B111B" transform="translate(78,34)"/>
<path d="M0 0 C3.219546 2.534537 4.704324 4.112973 6 8 C7.65 7.67 9.3 7.34 11 7 C13 10 13 10 13 12 C13.495 12.37125 13.99 12.7425 14.5 13.125 C16.598999 15.748749 16.430327 17.842398 16.273438 21.125 C16 23 16 23 15 25 C11.630443 26.684778 8.735989 26.296507 5 26 C4.34 25.34 3.68 24.68 3 24 C3.375 20.375 3.375 20.375 4 17 C5.8125 16.375 5.8125 16.375 8 16 C8.99 16.66 9.98 17.32 11 18 C10.67 18.99 10.34 19.98 10 21 C9.67 20.34 9.34 19.68 9 19 C8.01 19 7.02 19 6 19 C6 20.32 6 21.64 6 23 C7.98 23 9.96 23 12 23 C11.34 20.69 10.68 18.38 10 16 C7.69 16.33 5.38 16.66 3 17 C2.34 18.98 1.68 20.96 1 23 C-0.32 23 -1.64 23 -3 23 C-2.67 21.35 -2.34 19.7 -2 18 C-3.98 18.99 -3.98 18.99 -6 20 C-5.67 21.32 -5.34 22.64 -5 24 C-6.65 24.66 -8.3 25.32 -10 26 C-11 25 -11 25 -11.3125 22.8125 C-10.897603 19.078427 -9.213068 16.973811 -7 14 C-7.845625 13.29875 -8.69125 12.5975 -9.5625 11.875 C-12 9 -12 9 -12 5.875 C-9.888281 -0.196191 -6.299641 -1.33852 0 0 Z " fill="#566068" transform="translate(61,280)"/>
<path d="M0 0 C1.55781 0.000282 3.115621 0.000123 4.673431 -0.000443 C8.883579 -0.000728 13.093698 0.005135 17.303839 0.012131 C21.710736 0.0184 26.117635 0.018972 30.524536 0.020157 C38.861195 0.02326 47.19784 0.03146 55.534493 0.041506 C65.029055 0.052699 74.523617 0.058186 84.018184 0.063202 C103.541427 0.073643 123.064658 0.091223 142.587891 0.113525 C142.587891 0.443525 142.587891 0.773525 142.587891 1.113525 C123.606306 2.755499 104.813655 3.408283 85.761531 3.349245 C82.217997 3.340231 78.674464 3.342226 75.13092 3.342606 C69.211606 3.341681 63.292344 3.333152 57.373047 3.319336 C50.55389 3.303477 43.734789 3.298344 36.915615 3.299071 C29.584963 3.299748 22.254333 3.292819 14.923688 3.283625 C12.833582 3.281506 10.74348 3.280785 8.653374 3.280386 C4.764013 3.27919 0.874698 3.26946 -3.014648 3.258789 C-4.728915 3.259469 -4.728915 3.259469 -6.477814 3.260162 C-12.217394 3.237164 -17.735867 2.977541 -23.412109 2.113525 C-23.412109 1.783525 -23.412109 1.453525 -23.412109 1.113525 C-15.631532 -0.149368 -7.858169 -0.019987 0 0 Z " fill="#CDDBDB" transform="translate(207.412109375,327.886474609375)"/>
<path d="M0 0 C3.29533 0.549222 4.391051 1.543288 7 3.5 C10.125869 3.833978 10.125869 3.833978 13 3.5 C13.33 3.17 13.66 2.84 14 2.5 C16.5 2.375 16.5 2.375 19 2.5 C20 3.5 20 3.5 20.1875 5.625 C19.960038 9.112758 19.04349 12.173875 18 15.5 C18.99 15.83 19.98 16.16 21 16.5 C21.307887 20.425561 21.308541 22.895774 19.5 26.4375 C16.619028 28.814302 14.676523 29.155501 10.960938 28.941406 C7.991006 28.272876 6.20777 26.518533 4 24.5 C3.01 24.5 2.02 24.5 1 24.5 C-0.924965 22.678062 -2.375355 20.607647 -4 18.5 C-2.989375 18.809375 -1.97875 19.11875 -0.9375 19.4375 C2.890741 19.896195 2.890741 19.896195 5.023438 18.007812 C6.771265 16.231449 8.419632 14.426223 10 12.5 C10.99 13.985 10.99 13.985 12 15.5 C11.34 15.5 10.68 15.5 10 15.5 C9.833227 18.91656 9.833227 18.91656 10 22.5 C10.66 23.16 11.32 23.82 12 24.5 C14.602806 24.179586 14.602806 24.179586 17 23.5 C16.505 21.025 16.505 21.025 16 18.5 C15.01 18.5 14.02 18.5 13 18.5 C12.34 19.82 11.68 21.14 11 22.5 C10.3125 20.75 10.3125 20.75 10 18.5 C10.7425 17.540937 10.7425 17.540937 11.5 16.5625 C13.319305 14.549272 13.319305 14.549272 12.6875 11.75 C12.460625 11.0075 12.23375 10.265 12 9.5 C9.583542 9.333126 9.583542 9.333126 7 9.5 C6.34 10.16 5.68 10.82 5 11.5 C1.875 11.625 1.875 11.625 -1 11.5 C-1.33 10.18 -1.66 8.86 -2 7.5 C-1.34 8.16 -0.68 8.82 0 9.5 C2.06874 10.142524 2.06874 10.142524 4 10.5 C3.67 8.85 3.34 7.2 3 5.5 C1.35 5.83 -0.3 6.16 -2 6.5 C-2.042721 8.166119 -2.040638 9.833829 -2 11.5 C-1.67 11.83 -1.34 12.16 -1 12.5 C2.497342 12.111406 5.657883 11.614039 9 10.5 C7.553696 13.87471 5.95743 16.281928 3 18.5 C-0.530804 18.5 -2.432284 17.873497 -5.375 15.9375 C-7.65423 12.518655 -7.76222 9.427768 -7 5.5 C-5.026306 1.856258 -4.121764 0.686961 0 0 Z " fill="#555962" transform="translate(464,36.5)"/>
<path d="M0 0 C1.901433 -0.002062 1.901433 -0.002062 3.841278 -0.004166 C5.243531 -0.000627 6.645783 0.003008 8.048035 0.006729 C9.526438 0.007011 11.004842 0.006853 12.483246 0.006287 C16.49529 0.006 20.507304 0.011881 24.519341 0.018861 C28.712722 0.02511 32.906103 0.025699 37.099487 0.026886 C45.039621 0.029995 52.97974 0.038202 60.919867 0.048235 C69.959689 0.059411 78.999512 0.064911 88.03934 0.069931 C106.634368 0.080385 125.229384 0.097976 143.824402 0.120255 C143.824402 0.450255 143.824402 0.780255 143.824402 1.120255 C142.731277 1.244005 141.638152 1.367755 140.511902 1.495255 C136.750584 1.874903 136.750584 1.874903 133.824402 4.120255 C131.784326 4.369143 131.784326 4.369143 129.400101 4.367493 C128.494056 4.371687 127.588011 4.375882 126.65451 4.380203 C125.662003 4.374584 124.669495 4.368964 123.646912 4.363174 C122.59905 4.365073 121.551188 4.366971 120.471573 4.368927 C116.986243 4.372647 113.50112 4.361895 110.015808 4.350723 C107.576106 4.34953 105.136403 4.349079 102.696701 4.349335 C97.559307 4.347767 92.421983 4.339465 87.284607 4.326065 C80.782253 4.309299 74.279977 4.305244 67.777604 4.30601 C62.72124 4.305734 57.664892 4.300182 52.608534 4.293009 C50.217387 4.289878 47.826239 4.287868 45.435091 4.287115 C32.411343 4.278541 19.39716 4.125833 6.378845 3.734756 C5.181609 3.704548 3.984372 3.674339 2.750855 3.643214 C1.640544 3.605329 0.530233 3.567445 -0.613724 3.528412 C-1.593155 3.49806 -2.572586 3.467708 -3.581697 3.436437 C-6.212466 3.11576 -7.908552 2.457241 -10.175598 1.120255 C-6.736222 0.070805 -3.586104 -0.002998 0 0 Z " fill="#A7B9BD" transform="translate(361.17559814453125,327.87974548339844)"/>
<path d="M0 0 C22.11 0 44.22 0 67 0 C67.495 1.98 67.495 1.98 68 4 C68.99 3.01 69.98 2.02 71 1 C71.99 1.495 71.99 1.495 73 2 C72.505 2.33 72.01 2.66 71.5 3 C69.549364 5.600848 69.458026 7.85418 69.582031 11.054688 C69.902652 13.296788 69.902652 13.296788 72.1875 15.5625 C74.845706 17.163578 74.845706 17.163578 77.5 17.125 C81.111288 15.49992 82.644632 13.162923 85 10 C84.278125 10.495 83.55625 10.99 82.8125 11.5 C79.825331 13.093157 78.319999 13.448649 75 13 C73 11 73 11 72.75 8.5 C73 6 73 6 75 4 C77.625 4.375 77.625 4.375 80 5 C80 6.65 80 8.3 80 10 C78.35 9.67 76.7 9.34 75 9 C75 9.33 75 9.66 75 10 C76.98 10 78.96 10 81 10 C81.66 8.35 82.32 6.7 83 5 C83.495 6.98 83.495 6.98 84 9 C85.32 9 86.64 9 88 9 C88.33 8.01 88.66 7.02 89 6 C89 8.64 89 11.28 89 14 C90.32 14.33 91.64 14.66 93 15 C91.35 15.66 89.7 16.32 88 17 C88 17.33 88 17.66 88 18 C88.61875 17.79375 89.2375 17.5875 89.875 17.375 C90.57625 17.25125 91.2775 17.1275 92 17 C92.99 17.99 92.99 17.99 94 19 C93.625 21.625 93.625 21.625 93 24 C88.585683 25.312364 88.585683 25.312364 86.125 24 C84.392544 20.920079 85.375882 18.370235 86 15 C85.505 14.505 85.505 14.505 85 14 C84.636484 14.444727 84.272969 14.889453 83.898438 15.347656 C82.342443 17.099147 80.892734 18.614553 79 20 C75.625 19.875 75.625 19.875 73 19 C74.98 20.65 76.96 22.3 79 24 C79.33 23.34 79.66 22.68 80 22 C80.7425 22.763125 81.485 23.52625 82.25 24.3125 C84.426332 26.43937 86.521678 28.255996 89 30 C82.489612 29.728734 78.722877 27.425298 74 23 C68.44384 16.930771 64.738285 10.418488 65 2 C64.132481 2.003331 64.132481 2.003331 63.247437 2.006729 C57.146247 2.029111 51.045069 2.044041 44.943848 2.054932 C42.67659 2.059914 40.409336 2.066703 38.14209 2.075439 C25.385526 2.123312 12.719138 2.05794 0 1 C0 0.67 0 0.34 0 0 Z " fill="#A2A9B2" transform="translate(388,37)"/>
<path d="M0 0 C1.344316 0.022654 2.688636 0.045067 4.032959 0.067261 C7.438887 0.124093 10.844751 0.184026 14.25061 0.244812 C17.779018 0.307167 21.30748 0.366303 24.835938 0.425781 C31.661512 0.541277 38.487024 0.660076 45.3125 0.78125 C45.3125 1.11125 45.3125 1.44125 45.3125 1.78125 C38.291814 1.917764 31.271034 2.048103 24.25012 2.172401 C20.982769 2.230402 17.715492 2.290434 14.448242 2.354004 C-32.597124 3.265159 -79.657037 2.76608 -126.705017 2.317688 C-133.285099 2.255532 -139.865207 2.196276 -146.445312 2.136719 C-159.192734 2.020942 -171.940127 1.90226 -184.6875 1.78125 C-184.6875 1.45125 -184.6875 1.12125 -184.6875 0.78125 C-167.507976 0.64938 -150.328442 0.518939 -133.148895 0.390099 C-125.168269 0.330215 -117.187646 0.269902 -109.207031 0.208496 C-102.233632 0.154841 -95.260227 0.102075 -88.286814 0.050283 C-84.610373 0.022949 -80.933937 -0.004766 -77.257507 -0.033554 C-24.332258 -0.446879 -24.332258 -0.446879 0 0 Z " fill="#191927" transform="translate(408.6875,308.21875)"/>
<path d="M0 0 C23.013191 0.796018 46.040455 0.994738 69.064209 1.267548 C70.926473 1.289808 72.788737 1.312086 74.651001 1.334381 C85.288698 1.461446 95.926431 1.585006 106.564209 1.705048 C103.235572 3.924139 102.219701 3.953148 98.34407 3.945557 C97.262935 3.948306 96.181799 3.951055 95.067902 3.953888 C93.881793 3.946697 92.695684 3.939507 91.473633 3.932098 C90.224738 3.93239 88.975843 3.932682 87.689102 3.932983 C84.263675 3.931828 80.838488 3.921789 77.413103 3.907835 C73.833652 3.895343 70.254198 3.894159 66.674728 3.891785 C59.896181 3.885566 53.117698 3.869149 46.33918 3.849086 C38.622216 3.82674 30.90525 3.815737 23.188263 3.805695 C7.313541 3.784783 -8.561117 3.749599 -24.435791 3.705048 C-24.765791 2.715048 -25.095791 1.725048 -25.435791 0.705048 C-16.91375 -0.249212 -8.555174 -0.300911 0 0 Z " fill="#C4D4D6" transform="translate(189.435791015625,13.294952392578125)"/>
<path d="M0 0 C2 2 2 2 2.125 5.125 C2.08375 6.07375 2.0425 7.0225 2 8 C0.02 8.33 -1.96 8.66 -4 9 C-4.33 7.35 -4.66 5.7 -5 4 C-3.68 3.67 -2.36 3.34 -1 3 C-3.475 2.505 -3.475 2.505 -6 2 C-6.042417 4.332948 -6.040929 6.667026 -6 9 C-4.10511 10.89489 -1.428609 10.180191 1.089844 10.230469 C3.241264 10.170279 3.241264 10.170279 5 8 C5.397643 6.011787 5.737753 4.010557 6 2 C6.99 2.33 7.98 2.66 9 3 C9.33 5.64 9.66 8.28 10 11 C33.43 11 56.86 11 81 11 C81 11.66 81 12.32 81 13 C56.91 13 32.82 13 8 13 C7.67 11.68 7.34 10.36 7 9 C6.319375 9.66 5.63875 10.32 4.9375 11 C1.280603 13.489802 -0.654209 13.553101 -5 13 C-6.361613 12.038861 -7.698552 11.041158 -9 10 C-12.484994 9.642565 -15.599945 10.222845 -19 11 C-18.01 10.34 -17.02 9.68 -16 9 C-16 8.01 -16 7.02 -16 6 C-16.66 5.34 -17.32 4.68 -18 4 C-15.69 3.34 -13.38 2.68 -11 2 C-11.66 3.98 -12.32 5.96 -13 8 C-11.68 8 -10.36 8 -9 8 C-8.845312 6.576875 -8.845312 6.576875 -8.6875 5.125 C-7.573773 0.062604 -4.727294 -0.484851 0 0 Z " fill="#909BA5" transform="translate(71,295)"/>
<path d="M0 0 C9.909955 9.343672 9.909955 9.343672 10.125 15.6875 C8.779536 19.649144 7.575228 20.887365 4 23 C1.5 23.9375 1.5 23.9375 -1 24 C-3.837136 22.614422 -5.770017 21.229983 -8 19 C-8.461763 14.012964 -8.085978 11.826613 -5 8 C-4.855625 6.96875 -4.71125 5.9375 -4.5625 4.875 C-4.376875 3.92625 -4.19125 2.9775 -4 2 C-1.9375 0.625 -1.9375 0.625 0 0 Z " fill="#757F86" transform="translate(56,43)"/>
<path d="M0 0 C1.964006 -0.369143 1.964006 -0.369143 4.416534 -0.360764 C5.344841 -0.364888 6.273147 -0.369012 7.229584 -0.37326 C8.250974 -0.362475 9.272365 -0.351689 10.324707 -0.340576 C11.397892 -0.341014 12.471077 -0.341452 13.576782 -0.341904 C17.137308 -0.339807 20.697368 -0.316436 24.257812 -0.292969 C26.721179 -0.287376 29.184548 -0.283104 31.647919 -0.280106 C38.141756 -0.268633 44.635393 -0.239145 51.12915 -0.205994 C57.751437 -0.175344 64.373756 -0.161611 70.996094 -0.146484 C83.997481 -0.114278 96.99873 -0.063627 110 0 C110 0.66 110 1.32 110 2 C98.35136 3.382083 86.662574 3.126669 74.953125 3.097656 C72.728251 3.095788 70.503378 3.094366 68.278503 3.093369 C62.458932 3.089574 56.639386 3.07977 50.819824 3.068665 C44.866865 3.058385 38.913903 3.053857 32.960938 3.048828 C21.307281 3.038144 9.653642 3.021105 -2 3 C-1.34 2.01 -0.68 1.02 0 0 Z " fill="#BBC5CD" transform="translate(29,328)"/>
<path d="M0 0 C17.49 0 34.98 0 53 0 C53 0.66 53 1.32 53 2 C58.94 2.33 64.88 2.66 71 3 C71 3.33 71 3.66 71 4 C61.211731 4.023208 51.423468 4.040958 41.635177 4.051812 C37.089701 4.057023 32.544244 4.064087 27.998779 4.075439 C23.609175 4.086334 19.21959 4.092291 14.829973 4.094877 C13.158313 4.09672 11.486653 4.100318 9.815001 4.10573 C7.467059 4.113027 5.119191 4.113987 2.77124 4.113525 C1.743006 4.118918 1.743006 4.118918 0.694 4.12442 C-3.646118 4.115229 -7.730051 3.698232 -12 3 C-12 2.67 -12 2.34 -12 2 C-8.04 2 -4.08 2 0 2 C0 1.34 0 0.68 0 0 Z " fill="#454C51" transform="translate(139,328)"/>
<path d="M0 0 C1.42382 -0.010627 1.42382 -0.010627 2.876404 -0.021469 C3.921134 -0.018992 4.965863 -0.016514 6.042252 -0.013962 C7.139878 -0.019073 8.237505 -0.024184 9.368393 -0.029449 C13.011768 -0.043397 16.654956 -0.042385 20.298355 -0.040085 C22.821798 -0.043969 25.345241 -0.048303 27.868683 -0.05307 C33.164031 -0.060543 38.459309 -0.060371 43.754654 -0.054977 C49.878167 -0.048937 56.00145 -0.061249 62.124924 -0.082547 C68.012108 -0.102273 73.899221 -0.105339 79.78644 -0.101812 C82.293153 -0.102327 84.799869 -0.107593 87.306562 -0.117624 C90.807182 -0.129913 94.307266 -0.123242 97.807877 -0.111618 C98.850582 -0.119262 99.893288 -0.126906 100.96759 -0.134781 C102.39564 -0.124259 102.39564 -0.124259 103.852539 -0.113525 C104.680477 -0.113693 105.508415 -0.113861 106.361442 -0.114034 C108.958606 0.343245 109.844897 1.253691 111.489761 3.260696 C99.205221 3.28404 86.920686 3.301722 74.636128 3.312509 C68.929698 3.31769 63.223283 3.324699 57.516861 3.336136 C51.992519 3.347136 46.468191 3.353009 40.943838 3.355574 C38.853922 3.357397 36.764007 3.360957 34.674097 3.366426 C20.914082 3.400948 7.228071 3.044155 -6.510239 2.260696 C-4.049764 -0.199778 -3.38209 0.00839 0 0 Z " fill="#B8C6CD" transform="translate(393.51023864746094,13.739303588867188)"/>
<path d="M0 0 C0.886875 0.804375 1.77375 1.60875 2.6875 2.4375 C5.38287 4.703916 7.420635 5.684174 11 6 C11 6.33 11 6.66 11 7 C15.95 7.495 15.95 7.495 21 8 C21 8.33 21 8.66 21 9 C-6.39 9 -33.78 9 -62 9 C-62.33 8.01 -62.66 7.02 -63 6 C-42.21 6 -21.42 6 0 6 C0 4.02 0 2.04 0 0 Z " fill="#02040F" transform="translate(455,302)"/>
<path d="M0 0 C6.523077 0.615385 6.523077 0.615385 8.9375 2.5625 C9.288125 3.036875 9.63875 3.51125 10 4 C10.33 2.68 10.66 1.36 11 0 C35.09 0 59.18 0 84 0 C84 0.33 84 0.66 84 1 C60.57 1 37.14 1 13 1 C12.67 3.97 12.34 6.94 12 10 C9.888122 16.01073 6.828754 20.861068 2 25 C1.34 24.67 0.68 24.34 0 24 C0.33 23.34 0.66 22.68 1 22 C0.175 21.236875 -0.65 20.47375 -1.5 19.6875 C-4 17 -4 17 -4 14 C-3.62875 14.495 -3.2575 14.99 -2.875 15.5 C-0.253056 17.597555 1.738425 17.217438 5 17 C4.67 17.66 4.34 18.32 4 19 C3.34 19 2.68 19 2 19 C2 19.66 2 20.32 2 21 C5.515326 18.773627 6.924489 17.033166 8 13 C8.369697 10.137646 8.284336 7.938139 8 5 C6.346265 3.009664 6.346265 3.009664 4 2 C3.2575 1.608125 2.515 1.21625 1.75 0.8125 C1.1725 0.544375 0.595 0.27625 0 0 Z " fill="#ACB2BA" transform="translate(68,37)"/>
<path d="M0 0 C0.66 0.99 1.32 1.98 2 3 C1.34 3 0.68 3 0 3 C-0.166773 6.41656 -0.166773 6.41656 0 10 C0.66 10.66 1.32 11.32 2 12 C4.602806 11.679586 4.602806 11.679586 7 11 C6.67 9.35 6.34 7.7 6 6 C5.01 6 4.02 6 3 6 C2.34 7.32 1.68 8.64 1 10 C0.375 8.125 0.375 8.125 0 6 C2 4 2 4 4.9375 3.6875 C8 4 8 4 9.9375 5.125 C11 7 11 7 10.875 10 C9.558252 14.514563 9.558252 14.514563 7 16 C0.096129 16.779469 0.096129 16.779469 -3.8125 14 C-4.534375 13.34 -5.25625 12.68 -6 12 C-6.99 12 -7.98 12 -9 12 C-10.924965 10.178062 -12.375355 8.107647 -14 6 C-12.484062 6.464062 -12.484062 6.464062 -10.9375 6.9375 C-7.109259 7.396195 -7.109259 7.396195 -4.976562 5.507812 C-3.228735 3.731449 -1.580368 1.926223 0 0 Z " fill="#111722" transform="translate(474,49)"/>
<path d="M0 0 C2.5625 2.125 2.5625 2.125 4 5 C3.9375 8.1875 3.9375 8.1875 3 11 C0 13 0 13 -2.5625 12.75 C-5 12 -5 12 -7 10 C-6.625 7.875 -6.625 7.875 -6 6 C-5.34 7.32 -4.68 8.64 -4 10 C-2.68 9.67 -1.36 9.34 0 9 C0 7.68 0 6.36 0 5 C-2.397194 4.320414 -2.397194 4.320414 -5 4 C-7.411219 5.95634 -7.411219 5.95634 -7.125 9.625 C-7.08375 10.73875 -7.0425 11.8525 -7 13 C-6.34 13 -5.68 13 -5 13 C-5.33 13.99 -5.66 14.98 -6 16 C-7.149263 15.045782 -8.294305 14.08648 -9.4375 13.125 C-10.075586 12.591328 -10.713672 12.057656 -11.371094 11.507812 C-13 10 -13 10 -14 8 C-11.148802 1.157126 -7.526087 -1.465925 0 0 Z " fill="#0C101C" transform="translate(481,280)"/>
<path d="M0 0 C3.51449 1.712188 5.109642 4.061519 7.4375 7.1875 C4.4375 7.1875 4.4375 7.1875 0.8125 6.625 C-0.30125 6.480625 -1.415 6.33625 -2.5625 6.1875 C-3.858836 7.253951 -3.858836 7.253951 -3.625 9.75 C-3.604375 10.554375 -3.58375 11.35875 -3.5625 12.1875 C-1.9125 12.5175 -0.2625 12.8475 1.4375 13.1875 C1.4375 11.8675 1.4375 10.5475 1.4375 9.1875 C0.4475 9.1875 -0.5425 9.1875 -1.5625 9.1875 C-2.2225 9.8475 -2.8825 10.5075 -3.5625 11.1875 C-3.2325 9.8675 -2.9025 8.5475 -2.5625 7.1875 C-0.75 6.5625 -0.75 6.5625 1.4375 6.1875 C2.4275 6.8475 3.4175 7.5075 4.4375 8.1875 C4.75 11.1875 4.75 11.1875 4.4375 14.1875 C2.4375 16.1875 2.4375 16.1875 -1.5 16.5 C-3.954261 16.41537 -5.350646 16.293427 -7.5625 15.1875 C-9.217172 11.878157 -9.413983 8.723902 -8.5625 5.1875 C-6.372759 2.070769 -3.89475 0.284982 0 0 Z " fill="#121823" transform="translate(465.5625,289.8125)"/>
<path d="M0 0 C3.50831 1.169437 4.942642 1.913963 7 5 C7.630519 8.513906 7.631147 11.737707 6 15 C2.630443 16.684778 -0.264011 16.296507 -4 16 C-4.66 15.34 -5.32 14.68 -6 14 C-5.625 10.375 -5.625 10.375 -5 7 C-3.1875 6.375 -3.1875 6.375 -1 6 C-0.01 6.66 0.98 7.32 2 8 C1.67 8.99 1.34 9.98 1 11 C0.67 10.34 0.34 9.68 0 9 C-0.99 9 -1.98 9 -3 9 C-3 10.32 -3 11.64 -3 13 C-1.02 13 0.96 13 3 13 C2.34 10.69 1.68 8.38 1 6 C-2.469415 6.458225 -5.67395 6.891317 -9 8 C-7.092272 3.548635 -5.193505 0 0 0 Z " fill="#10141E" transform="translate(70,290)"/>
<path d="M0 0 C2 2 2 2 2.1875 5.0625 C2 8 2 8 1 9 C-0.999584 9.040808 -3.000453 9.042544 -5 9 C-5.33 7.68 -5.66 6.36 -6 5 C-5.34 5.66 -4.68 6.32 -4 7 C-1.93126 7.642524 -1.93126 7.642524 0 8 C-0.33 6.35 -0.66 4.7 -1 3 C-2.65 3.33 -4.3 3.66 -6 4 C-6.042721 5.666119 -6.040638 7.333829 -6 9 C-5.67 9.33 -5.34 9.66 -5 10 C-1.502658 9.611406 1.657883 9.114039 5 8 C3.553696 11.37471 1.95743 13.781928 -1 16 C-4.530804 16 -6.432284 15.373497 -9.375 13.4375 C-11.833665 9.749502 -11.488042 7.392379 -11 3 C-8.818532 -1.362936 -4.252134 -0.337471 0 0 Z " fill="#10171F" transform="translate(468,39)"/>
<path d="M0 0 C2.625 0.375 2.625 0.375 5 1 C5 2.65 5 4.3 5 6 C3.35 5.67 1.7 5.34 0 5 C0 5.33 0 5.66 0 6 C1.98 6 3.96 6 6 6 C6.66 4.35 7.32 2.7 8 1 C8.33 2.32 8.66 3.64 9 5 C10.32 5 11.64 5 13 5 C13.33 4.01 13.66 3.02 14 2 C14 4.64 14 7.28 14 10 C15.32 10.33 16.64 10.66 18 11 C16.35 11.66 14.7 12.32 13 13 C13 13.33 13 13.66 13 14 C13.61875 13.79375 14.2375 13.5875 14.875 13.375 C15.926875 13.189375 15.926875 13.189375 17 13 C17.66 13.66 18.32 14.32 19 15 C18.625 17.625 18.625 17.625 18 20 C13.585683 21.312364 13.585683 21.312364 11.125 20 C9.363057 16.867657 10.268479 14.413763 11 11 C11.33 10.01 11.66 9.02 12 8 C11.34 8 10.68 8 10 8 C10 7.34 10 6.68 10 6 C9.278125 6.495 8.55625 6.99 7.8125 7.5 C4.825331 9.093157 3.319999 9.448649 0 9 C-2 7 -2 7 -2.25 4.5 C-2 2 -2 2 0 0 Z " fill="#858F96" transform="translate(463,41)"/>
<path d="M0 0 C0 0.33 0 0.66 0 1 C-1.98 1 -3.96 1 -6 1 C-5.505 2.485 -5.505 2.485 -5 4 C-20.84 4 -36.68 4 -53 4 C-49.173732 0.173732 -46.410382 0.527649 -41.308594 0.488281 C-40.448714 0.47033 -39.588833 0.452379 -38.702896 0.433884 C-35.947815 0.379718 -33.192903 0.345947 -30.4375 0.3125 C-28.6087 0.279314 -26.779922 0.244823 -24.951172 0.208984 C-16.633438 0.055176 -8.319192 -0.017916 0 0 Z " fill="#6C727A" transform="translate(170,13)"/>
<path d="M0 0 C2.760504 2.114428 4.452448 3.742658 5.84375 6.9375 C6 9 6 9 4.566406 10.921875 C3.905117 11.525156 3.243828 12.128438 2.5625 12.75 C1.574434 13.670391 1.574434 13.670391 0.566406 14.609375 C0.049492 15.068281 -0.467422 15.527188 -1 16 C-1.66 15.01 -2.32 14.02 -3 13 C-2.34 13 -1.68 13 -1 13 C-0.67 10.36 -0.34 7.72 0 5 C-2.64 4.67 -5.28 4.34 -8 4 C-8 5.65 -8 7.3 -8 9 C-6.68 9.33 -5.36 9.66 -4 10 C-3.34 8.68 -2.68 7.36 -2 6 C-1.375 7.875 -1.375 7.875 -1 10 C-3 12 -3 12 -6.5 12.3125 C-8.2325 12.157812 -8.2325 12.157812 -10 12 C-12 9 -12 9 -11.8125 6 C-10.107076 -0.29695 -6.259437 -1.317776 0 0 Z " fill="#0D101B" transform="translate(61,280)"/>
<path d="M0 0 C2.615303 1.780493 4.954892 3.573421 7 6 C7.198564 9.905087 6.901908 11.881634 4.4375 14.9375 C0.722716 16.556765 -1.948924 16.385817 -6 16 C-8.754558 14.400579 -8.963625 13.113975 -9.9375 10.0625 C-10 7 -10 7 -8.375 4.5625 C-6 3 -6 3 -3.375 3.125 C-1 4 -1 4 1 6 C0.625 8.125 0.625 8.125 0 10 C-0.66 8.68 -1.32 7.36 -2 6 C-3.32 6.33 -4.64 6.66 -6 7 C-6 8.65 -6 10.3 -6 12 C-3.69 12 -1.38 12 1 12 C1 9.03 1 6.06 1 3 C0.34 2.67 -0.32 2.34 -1 2 C-0.67 1.34 -0.34 0.68 0 0 Z " fill="#141A23" transform="translate(59,49)"/>
<path d="M0 0 C7.930486 0.288381 13.202477 3.242962 18.832031 8.8125 C21.379777 11.688788 23.493128 14.438303 25 18 C24.625 20.25 24.625 20.25 24 22 C23.7525 21.05125 23.505 20.1025 23.25 19.125 C22.314292 15.913068 22.314292 15.913068 19.875 14.625 C19.25625 14.41875 18.6375 14.2125 18 14 C18 13.01 18 12.02 18 11 C16.35 11.33 14.7 11.66 13 12 C12.023438 10.209635 11.046875 8.419271 10.070312 6.628906 C9.0859 4.833817 9.0859 4.833817 7 4 C1.555736 3.356648 1.555736 3.356648 -3.0625 5.625 C-4.295313 8.748126 -3.802399 10.790405 -3 14 C-1.02 14.66 0.96 15.32 3 16 C2.01 16.66 1.02 17.32 0 18 C-0.66 18.99 -1.32 19.98 -2 21 C-2 19.35 -2 17.7 -2 16 C-2.99 15.67 -3.98 15.34 -5 15 C-6.545869 11.908262 -6.293595 9.405704 -6 6 C-4.125 3.5625 -4.125 3.5625 -2 2 C-1.34 2 -0.68 2 0 2 C0 1.34 0 0.68 0 0 Z " fill="#A9B0BA" transform="translate(54,277)"/>
<path d="M0 0 C2 2 2 2 2 7 C-20.11 7 -42.22 7 -65 7 C-65 6.67 -65 6.34 -65 6 C-43.358413 4.565765 -21.676234 4.9044 0 5 C0 3.35 0 1.7 0 0 Z " fill="#99A2AB" transform="translate(453,301)"/>
<path d="M0 0 C3.769015 0.348983 7.34379 1.056462 11 2 C12.997884 2.345788 14.997595 2.681435 17 3 C17.66 2.01 18.32 1.02 19 0 C20.603551 3.507768 21.220369 6.143549 21 10 C20.01 10.495 20.01 10.495 19 11 C15.264151 9.528302 15.264151 9.528302 14 7 C13.21625 7.185625 12.4325 7.37125 11.625 7.5625 C9 8 9 8 7 7 C6.375 4.9375 6.375 4.9375 6 3 C4.053967 2.4093 4.053967 2.4093 2 2 C1.67 2.33 1.34 2.66 1 3 C2.32 3.33 3.64 3.66 5 4 C4.67 5.65 4.34 7.3 4 9 C-0.875 8.125 -0.875 8.125 -2 7 C-2.1875 4.5625 -2.1875 4.5625 -2 2 C-1.34 1.34 -0.68 0.68 0 0 Z " fill="#717A84" transform="translate(463,295)"/>
<path d="M0 0 C6.773876 1.524122 11.526082 5.654727 15.585938 11.144531 C19.044551 16.852242 19.181982 19.637841 20 27 C29.57 27.33 39.14 27.66 49 28 C49 28.33 49 28.66 49 29 C38.77 29 28.54 29 18 29 C16.68 24.71 15.36 20.42 14 16 C10.021444 9.430757 5.582057 5.861474 -1 2 C-0.67 1.34 -0.34 0.68 0 0 Z " fill="#0A0D1A" transform="translate(63,277)"/>
<path d="M0 0 C0.802819 -0.0057 1.605638 -0.0114 2.432785 -0.017273 C4.114275 -0.026649 5.795783 -0.033227 7.477295 -0.037109 C10.053539 -0.046915 12.629017 -0.078046 15.205078 -0.109375 C16.845047 -0.115897 18.485022 -0.121151 20.125 -0.125 C21.278124 -0.14352 21.278124 -0.14352 22.454544 -0.162415 C27.777568 -0.140063 27.777568 -0.140063 30.237061 1.723633 C30.564885 2.211865 30.89271 2.700098 31.230469 3.203125 C25.680342 3.227971 20.130248 3.246054 14.580078 3.258057 C12.694656 3.263064 10.809237 3.269872 8.923828 3.278564 C6.203115 3.290788 3.482454 3.296389 0.761719 3.300781 C-0.488773 3.308523 -0.488773 3.308523 -1.764526 3.316422 C-6.856609 3.316902 -11.728906 2.934421 -16.769531 2.203125 C-16.769531 1.873125 -16.769531 1.543125 -16.769531 1.203125 C-11.144967 0.409106 -5.676962 0.031803 0 0 Z " fill="#B0C1C8" transform="translate(200.76953125,327.796875)"/>
<path d="M0 0 C0 0.66 0 1.32 0 2 C4.95 2.33 9.9 2.66 15 3 C15 3.33 15 3.66 15 4 C-0.51 4 -16.02 4 -32 4 C-32.33 3.34 -32.66 2.68 -33 2 C-28.437711 1.663742 -23.875137 1.331502 -19.3125 1 C-18.018926 0.904609 -16.725352 0.809219 -15.392578 0.710938 C-13.521826 0.575586 -13.521826 0.575586 -11.613281 0.4375 C-10.466418 0.353711 -9.319556 0.269922 -8.137939 0.183594 C-5.414594 0.024257 -2.726789 -0.035732 0 0 Z " fill="#42494D" transform="translate(355,328)"/>
<path d="M0 0 C1.11375 0.340313 1.11375 0.340313 2.25 0.6875 C2.25 1.0175 2.25 1.3475 2.25 1.6875 C-0.06 2.3475 -2.37 3.0075 -4.75 3.6875 C-5.083978 6.561631 -5.083978 6.561631 -4.75 9.6875 C-2.869221 11.600067 -2.869221 11.600067 -0.75 12.6875 C-5.919756 11.801256 -10.226841 10.766948 -13.75 6.6875 C-15.4 7.3475 -17.05 8.0075 -18.75 8.6875 C-19.75 7.6875 -19.75 7.6875 -19.875 5.1875 C-19.75 2.6875 -19.75 2.6875 -18.75 1.6875 C-14.215116 1.454942 -14.215116 1.454942 -11.75 2.6875 C-8.630112 3.015909 -7.265951 3.090587 -4.75 1.125 C-2.75 -0.3125 -2.75 -0.3125 0 0 Z " fill="#505761" transform="translate(69.75,37.3125)"/>
<path d="M0 0 C19.47 0 38.94 0 59 0 C59 0.33 59 0.66 59 1 C44.288711 2.279983 29.641139 3.21591 14.875 3.3125 C12.991317 3.338604 12.991317 3.338604 11.06958 3.365234 C9.909666 3.36459 8.749751 3.363945 7.554688 3.363281 C6.015305 3.367753 6.015305 3.367753 4.444824 3.372314 C3.234636 3.188019 3.234636 3.188019 2 3 C1.34 2.01 0.68 1.02 0 0 Z " fill="#879699" transform="translate(291,328)"/>
<path d="M0 0 C-2.589689 1.726459 -4.926522 2.871095 -7.75 4.125 C-15.153044 7.788696 -19.799566 13.469566 -23 21 C-23.99 20.67 -24.98 20.34 -26 20 C-21.724665 9.784416 -16.187972 4.040678 -6.078125 -0.46875 C-3.679141 -1.082024 -2.316864 -0.793161 0 0 Z " fill="#0E121F" transform="translate(478,276)"/>
<path d="M0 0 C1.580713 -0.018369 1.580713 -0.018369 3.193359 -0.037109 C4.20334 -0.039043 5.21332 -0.040977 6.253906 -0.042969 C7.176311 -0.047078 8.098716 -0.051187 9.049072 -0.05542 C11.4375 0.1875 11.4375 0.1875 14.4375 2.1875 C9.717822 3.760726 4.942605 3.371977 0 3.375 C-1.049941 3.387246 -2.099883 3.399492 -3.181641 3.412109 C-4.698545 3.41501 -4.698545 3.41501 -6.246094 3.417969 C-7.631393 3.424132 -7.631393 3.424132 -9.044678 3.43042 C-11.673817 3.17676 -13.305427 2.52139 -15.5625 1.1875 C-10.455008 -0.311625 -5.279665 0.003241 0 0 Z " fill="#D3DEE2" transform="translate(366.5625,327.8125)"/>
<path d="M0 0 C1.480303 1.947767 2.929863 3.895008 4.289062 5.929688 C8.430546 11.960269 13.479941 15.73997 20 19 C20 19.66 20 20.32 20 21 C13.371557 20.378583 7.988119 16.373665 3.625 11.5625 C1.224892 8.56727 -0.203787 5.804131 -1 2 C-0.67 1.34 -0.34 0.68 0 0 Z " fill="#0D111E" transform="translate(454,48)"/>
<path d="M0 0 C1.9375 0.75 1.9375 0.75 3.9375 1.75 C4.263636 6.424619 3.643328 8.916744 0.9375 12.75 C-2.9375 11 -2.9375 11 -4.0625 8.75 C-2.0825 8.09 -0.1025 7.43 1.9375 6.75 C1.9375 5.76 1.9375 4.77 1.9375 3.75 C1.2775 5.07 0.6175 6.39 -0.0625 7.75 C-1.3825 7.42 -2.7025 7.09 -4.0625 6.75 C-4.75 4.9375 -4.75 4.9375 -5.0625 2.75 C-3.51729 0.391522 -2.860804 -0.346764 0 0 Z " fill="#656D78" transform="translate(57.0625,283.25)"/>
<path d="M0 0 C2.0625 2.9375 2.0625 2.9375 2.0625 6.125 C1.0625 8.9375 1.0625 8.9375 -1.9375 10.9375 C-5.259903 10.613363 -6.545263 10.329737 -8.9375 7.9375 C-8.5625 5.8125 -8.5625 5.8125 -7.9375 3.9375 C-7.2775 5.2575 -6.6175 6.5775 -5.9375 7.9375 C-4.6175 7.6075 -3.2975 7.2775 -1.9375 6.9375 C-1.9375 5.6175 -1.9375 4.2975 -1.9375 2.9375 C-4.2475 1.9475 -6.5575 0.9575 -8.9375 -0.0625 C-8.9375 -0.3925 -8.9375 -0.7225 -8.9375 -1.0625 C-4.866707 -2.293205 -3.565433 -2.503389 0 0 Z " fill="#151925" transform="translate(482.9375,282.0625)"/>
<path d="M0 0 C0.66 0.99 1.32 1.98 2 3 C1.34 3 0.68 3 0 3 C-0.33 4.98 -0.66 6.96 -1 9 C-1.66 9 -2.32 9 -3 9 C-3 9.66 -3 10.32 -3 11 C-6 12 -6 12 -9 12 C-10.924965 10.178062 -12.375355 8.107647 -14 6 C-12.484062 6.464062 -12.484062 6.464062 -10.9375 6.9375 C-7.109259 7.396195 -7.109259 7.396195 -4.976562 5.507812 C-3.228735 3.731449 -1.580368 1.926223 0 0 Z " fill="#1F2730" transform="translate(474,49)"/>
<path d="M0 0 C1.65 0 3.3 0 5 0 C5 0.66 5 1.32 5 2 C5.66 2 6.32 2 7 2 C8.330781 8.411945 8.330781 8.411945 6.875 11 C4.281036 12.383447 2.748577 11.817145 0 11 C-0.625 8.625 -0.625 8.625 -1 6 C-0.34 5.34 0.32 4.68 1 4 C3.0625 4.1875 3.0625 4.1875 5 5 C5.33 5.99 5.66 6.98 6 8 C5.886933 6.041056 5.886933 6.041056 5 4 C2.509656 2.703396 2.509656 2.703396 0 2 C0 1.34 0 0.68 0 0 Z " fill="#9AA6AB" transform="translate(53,50)"/>
<path d="M0 0 C2.454261 0.08463 3.850646 0.206573 6.0625 1.3125 C7.702339 4.592178 7.240956 7.683887 7.0625 11.3125 C6.0725 11.8075 6.0725 11.8075 5.0625 12.3125 C5.10375 11.57 5.145 10.8275 5.1875 10.0625 C5.058519 7.22491 4.491988 5.724761 3.0625 3.3125 C1.0825 3.3125 -0.8975 3.3125 -2.9375 3.3125 C-2.6075 5.2925 -2.2775 7.2725 -1.9375 9.3125 C-3.2575 8.9825 -4.5775 8.6525 -5.9375 8.3125 C-6.0625 5.4375 -6.0625 5.4375 -5.9375 2.3125 C-3.9375 0.3125 -3.9375 0.3125 0 0 Z " fill="#0C101A" transform="translate(69.9375,38.6875)"/>
<path d="M0 0 C0.33 0 0.66 0 1 0 C0.396865 7.539185 -2.53833 11.928449 -8 17 C-8.66 16.67 -9.32 16.34 -10 16 C-9.67 15.34 -9.34 14.68 -9 14 C-9.825 13.236875 -10.65 12.47375 -11.5 11.6875 C-14 9 -14 9 -14 6 C-13.62875 6.495 -13.2575 6.99 -12.875 7.5 C-10.253056 9.597555 -8.261575 9.217438 -5 9 C-5.33 9.66 -5.66 10.32 -6 11 C-6.66 11 -7.32 11 -8 11 C-8 11.66 -8 12.32 -8 13 C-4.42497 10.739319 -3.185251 8.75944 -1.75 4.8125 C-1.414844 3.911445 -1.079688 3.010391 -0.734375 2.082031 C-0.492031 1.394961 -0.249687 0.707891 0 0 Z " fill="#C5CCD9" transform="translate(78,45)"/>
<path d="M0 0 C2 2 2 2 2.125 5.125 C2.08375 6.07375 2.0425 7.0225 2 8 C0.02 8.33 -1.96 8.66 -4 9 C-4.33 7.35 -4.66 5.7 -5 4 C-3.68 3.67 -2.36 3.34 -1 3 C-2.65 2.67 -4.3 2.34 -6 2 C-6.33 2.66 -6.66 3.32 -7 4 C-7 3.01 -7 2.02 -7 1 C-4.487182 -0.256409 -2.783029 -0.208727 0 0 Z " fill="#707882" transform="translate(71,295)"/>
<path d="M0 0 C1 2 1 2 1 5 C1.66 3.68 2.32 2.36 3 1 C4.32 1.33 5.64 1.66 7 2 C7.33 3.65 7.66 5.3 8 7 C5 9 5 9 2.9375 8.75 C1 8 1 8 -1 6 C-1.1875 3.4375 -1.1875 3.4375 -1 1 C-0.67 0.67 -0.34 0.34 0 0 Z " fill="#8D9CA3" transform="translate(474,53)"/>
<path d="M0 0 C1.65 0.33 3.3 0.66 5 1 C4 4 4 4 2 5 C2.33 6.32 2.66 7.64 3 9 C1.35 9.66 -0.3 10.32 -2 11 C-3 10 -3 10 -3.25 7.75 C-2.952776 4.480539 -1.837658 2.679918 0 0 Z " fill="#323B45" transform="translate(53,295)"/>
<path d="M0 0 C0.66 0.33 1.32 0.66 2 1 C1.34 2.65 0.68 4.3 0 6 C1.32 6 2.64 6 4 6 C4.33 4.35 4.66 2.7 5 1 C5.33 1 5.66 1 6 1 C6.309375 2.11375 6.61875 3.2275 6.9375 4.375 C7.823265 7.794515 7.823265 7.794515 9 10 C8.278125 9.67 7.55625 9.34 6.8125 9 C2.287445 7.391092 -1.385916 7.945352 -6 9 C-5.01 8.34 -4.02 7.68 -3 7 C-3 6.01 -3 5.02 -3 4 C-3.66 3.34 -4.32 2.68 -5 2 C-2.625 0.9375 -2.625 0.9375 0 0 Z " fill="#ADBAC3" transform="translate(58,297)"/>
<path d="M0 0 C0 0.99 0 1.98 0 3 C-3.041727 3.027104 -6.08321 3.04689 -9.125 3.0625 C-9.980938 3.070879 -10.836875 3.079258 -11.71875 3.087891 C-16.266784 3.105383 -20.523832 2.931924 -25 2 C-25 1.67 -25 1.34 -25 1 C-16.6438 0.245246 -8.390047 -0.136055 0 0 Z " fill="#85949A" transform="translate(192,328)"/>
<path d="M0 0 C0.870117 0.004512 1.740234 0.009023 2.636719 0.013672 C4.757843 0.025326 6.878931 0.043256 9 0.0625 C6.674867 2.748926 6.262973 3.037929 2.488281 3.390625 C1.096142 3.381282 -0.295961 3.354437 -1.6875 3.3125 C-2.404863 3.301543 -3.122227 3.290586 -3.861328 3.279297 C-8.641332 3.179442 -13.287567 2.847905 -18 2.0625 C-18 1.7325 -18 1.4025 -18 1.0625 C-11.951802 0.173471 -6.107765 -0.060984 0 0 Z " fill="#9BACB3" transform="translate(202,327.9375)"/>
<path d="M0 0 C4.646295 -0.316793 6.391541 0.206354 10 3 C12.667618 3.251248 12.667618 3.251248 15 3 C15 4.98 15 6.96 15 9 C13.02 9 11.04 9 9 9 C8.34 7.02 7.68 5.04 7 3 C4.69 2.67 2.38 2.34 0 2 C0 1.34 0 0.68 0 0 Z " fill="#484C54" transform="translate(461,37)"/>
<path d="M0 0 C0.99 0.33 1.98 0.66 3 1 C2.67 2.98 2.34 4.96 2 7 C3.32 7.33 4.64 7.66 6 8 C6.66 6.68 7.32 5.36 8 4 C8.625 5.875 8.625 5.875 9 8 C7 10 7 10 3.5 10.3125 C1.7675 10.157812 1.7675 10.157812 0 10 C-2 7 -2 7 -1.6875 3.875 C-1 1 -1 1 0 0 Z " fill="#161A26" transform="translate(51,282)"/>
<path d="M0 0 C0.707695 0.005156 1.415391 0.010312 2.144531 0.015625 C5.914496 0.071788 9.459374 0.35875 13.125 1.25 C13.125 1.58 13.125 1.91 13.125 2.25 C8.209972 3.542357 3.352099 3.361355 -1.6875 3.3125 C-2.571152 3.307988 -3.454805 3.303477 -4.365234 3.298828 C-6.535186 3.287099 -8.705102 3.269165 -10.875 3.25 C-7.68053 -0.459944 -4.635291 -0.13363 0 0 Z " fill="#979FA4" transform="translate(127.875,13.75)"/>
<path d="M0 0 C0.66 0.33 1.32 0.66 2 1 C2.492308 7.4 2.492308 7.4 0 10.4375 C-0.99 11.210938 -0.99 11.210938 -2 12 C-1.34 12.66 -0.68 13.32 0 14 C-0.33 14.33 -0.66 14.66 -1 15 C-3.690829 14.823645 -6.328514 14.381641 -9 14 C-9.33 13.01 -9.66 12.02 -10 11 C-8.906875 10.9175 -7.81375 10.835 -6.6875 10.75 C-3.053301 10.326562 -3.053301 10.326562 -1.0625 8.3125 C0.27148 5.409131 0.215366 3.158694 0 0 Z " fill="#94A0A9" transform="translate(484,54)"/>
<path d="M0 0 C2.97 0.495 2.97 0.495 6 1 C6 2.98 6 4.96 6 7 C5.01 7 4.02 7 3 7 C3 6.67 3 6.34 3 6 C1.68 5.67 0.36 5.34 -1 5 C-0.67 3.35 -0.34 1.7 0 0 Z " fill="#777B86" transform="translate(67,41)"/>
</svg>
