<?xml version="1.0" encoding="UTF-8"?>
<!-- Generator: visioncortex VTracer 0.6.4 -->
<svg version="1.1" xmlns="http://www.w3.org/2000/svg" width="792" height="88">
<path d="M0 0 C261.36 0 522.72 0 792 0 C792 29.04 792 58.08 792 88 C530.64 88 269.28 88 0 88 C0 58.96 0 29.92 0 0 Z " fill="#39342E" transform="translate(0,0)"/>
<path d="M0 0 C261.36 0 522.72 0 792 0 C792 11.55 792 23.1 792 35 C530.64 35 269.28 35 0 35 C0 23.45 0 11.9 0 0 Z " fill="#3E3C38" transform="translate(0,0)"/>
<path d="M0 0 C261.36 0 522.72 0 792 0 C792 3.3 792 6.6 792 10 C530.64 10 269.28 10 0 10 C0 6.7 0 3.4 0 0 Z " fill="#49443C" transform="translate(0,78)"/>
<path d="M0 0 C0.82177 0.00038 1.64354 0.000759 2.490212 0.001151 C3.434969 -0.00084 4.379727 -0.002831 5.353114 -0.004883 C6.928369 -0.000514 6.928369 -0.000514 8.535447 0.003944 C10.194576 0.002662 10.194576 0.002662 11.887223 0.001355 C15.624559 -0.000303 19.361851 0.005227 23.099183 0.010673 C25.766003 0.010955 28.432821 0.010841 31.099641 0.010231 C36.857478 0.009705 42.615303 0.012854 48.373138 0.018468 C56.700269 0.026582 65.027394 0.029199 73.354529 0.030456 C86.866259 0.032647 100.377983 0.039309 113.88971 0.048759 C127.013408 0.057929 140.137104 0.065012 153.260804 0.069267 C154.472928 0.069661 154.472928 0.069661 155.709538 0.070063 C159.763569 0.071368 163.817599 0.072632 167.87163 0.073875 C200.96627 0.084074 234.060902 0.101222 267.155537 0.123048 C268.483839 0.123818 269.812141 0.124198 271.140443 0.124198 C350.449388 0.124198 429.758332 0.124198 733.140443 0.124198 C733.140443 1.774198 733.140443 3.424198 733.140443 5.124198 C471.780443 5.124198 210.420443 5.124198 -58.859557 5.124198 C-58.859557 3.804198 -58.859557 2.484198 -58.859557 1.124198 C-40.19289 1.124198 -21.526224 1.124198 -2.859557 1.124198 C-1.859557 0.124198 -1.859557 0.124198 0 0 Z " fill="#736F67" transform="translate(58.85955709218979,29.875801503658295)"/>
<path d="M0 0 C261.36 0 522.72 0 792 0 C792 1.32 792 2.64 792 4 C790.486872 3.995581 790.486872 3.995581 788.943176 3.991074 C762.484387 3.922258 736.02847 4.037557 709.570574 4.235112 C707.044462 4.253924 704.518348 4.272487 701.992233 4.290966 C686.332515 4.405572 670.672818 4.522652 655.013184 4.648193 C647.186415 4.71091 639.359628 4.770019 631.532802 4.825056 C626.62706 4.859747 621.72138 4.898855 616.815699 4.941298 C613.796804 4.966347 610.77789 4.98715 607.758955 5.006706 C606.360462 5.016619 604.96198 5.02829 603.563517 5.04183 C601.660039 5.06001 599.756499 5.071339 597.852966 5.082291 C596.788502 5.090587 595.724037 5.098883 594.627316 5.10743 C592 5 592 5 589 4 C586.107653 3.902655 583.239637 3.863654 580.347168 3.870605 C579.448181 3.868873 578.549194 3.86714 577.622965 3.865355 C574.579354 3.860943 571.535799 3.863969 568.492188 3.867188 C566.290649 3.866211 564.089111 3.864915 561.887573 3.863327 C555.82498 3.860688 549.762411 3.865362 543.699821 3.871632 C539.882338 3.874994 536.06486 3.876172 532.247375 3.876678 C498.257802 3.883118 464.269984 4.026371 430.28125 4.261719 C428.517895 4.273838 426.75454 4.285956 424.991184 4.298073 C408.451172 4.412146 391.911214 4.531491 375.37138 4.669118 C368.783284 4.723847 362.195169 4.775466 355.607031 4.824855 C351.024864 4.859486 346.442766 4.898645 341.860668 4.941333 C338.416743 4.972147 334.972778 4.996428 331.528809 5.021729 C329.67434 5.041147 329.67434 5.041147 327.782408 5.060957 C326.660249 5.067997 325.538091 5.075037 324.381927 5.082291 C322.921606 5.094735 322.921606 5.094735 321.431784 5.10743 C319 5 319 5 316 4 C314.403462 3.90841 312.803356 3.873718 311.204193 3.873016 C310.217058 3.870197 309.229923 3.867377 308.212875 3.864471 C306.590356 3.867508 306.590356 3.867508 304.935059 3.870605 C303.795059 3.868853 302.65506 3.867101 301.480515 3.865295 C297.70314 3.860885 293.925812 3.863812 290.148438 3.867188 C287.531952 3.866514 284.915466 3.865544 282.298981 3.864288 C276.812922 3.862469 271.326877 3.864867 265.84082 3.869629 C259.490678 3.875077 253.140569 3.873304 246.790428 3.867803 C240.688066 3.862726 234.585719 3.863252 228.483356 3.866184 C225.88289 3.866854 223.282423 3.866025 220.681957 3.863705 C217.056666 3.86118 213.431438 3.865016 209.806152 3.870605 C208.17756 3.867569 208.17756 3.867569 206.516068 3.864471 C205.534572 3.867291 204.553077 3.870111 203.54184 3.873016 C202.25487 3.873582 202.25487 3.873582 200.9419 3.874159 C198.994126 3.785907 198.994126 3.785907 198 5 C196.045182 5.098853 194.086741 5.126322 192.129425 5.126984 C190.215439 5.131213 190.215439 5.131213 188.262787 5.135529 C186.83551 5.133584 185.408234 5.131536 183.980957 5.129395 C182.488159 5.130749 180.995361 5.132528 179.502563 5.134705 C175.436427 5.13928 171.370316 5.137489 167.304179 5.134326 C163.056128 5.131801 158.808079 5.13414 154.560028 5.135712 C147.422664 5.137534 140.285311 5.135127 133.147949 5.130371 C124.890422 5.124933 116.63292 5.126688 108.375394 5.132197 C101.295129 5.136733 94.214871 5.137377 87.134604 5.134759 C82.901867 5.133198 78.669142 5.132997 74.436405 5.136295 C70.455608 5.13918 66.474843 5.137187 62.494049 5.131401 C61.031107 5.130077 59.568162 5.130462 58.105221 5.132664 C56.111662 5.135387 54.118098 5.13137 52.124542 5.126984 C51.007706 5.126607 49.89087 5.12623 48.740191 5.125841 C46 5 46 5 43 4 C41.572814 3.913895 40.141934 3.882282 38.712158 3.886475 C37.851492 3.88655 36.990827 3.886626 36.10408 3.886703 C35.178992 3.891865 34.253903 3.897026 33.300781 3.902344 C32.350596 3.903759 31.400411 3.905174 30.421432 3.906631 C27.38509 3.912231 24.348821 3.924784 21.3125 3.9375 C19.254558 3.942515 17.196616 3.947078 15.138672 3.951172 C10.09242 3.962201 5.046222 3.979465 0 4 C0 2.68 0 1.36 0 0 Z " fill="#666360" transform="translate(0,0)"/>
<path d="M0 0 C215.16 0 430.32 0 652 0 C652 1.65 652 3.3 652 5 C638.578283 5.069574 625.156609 5.122849 611.734749 5.155437 C605.502137 5.171079 599.26965 5.19229 593.037109 5.226318 C587.020043 5.258964 581.003095 5.276864 574.985947 5.284632 C572.692684 5.290166 570.399428 5.300973 568.106216 5.31719 C564.889029 5.339033 561.672328 5.341964 558.455078 5.340576 C557.039506 5.356755 557.039506 5.356755 555.595337 5.37326 C549.715381 5.345894 545.387689 4.380611 540 2 C540 2.99 540 3.98 540 5 C506.376753 5.06868 472.753523 5.121536 439.130221 5.153196 C435.159893 5.156948 431.189566 5.160831 427.219238 5.164795 C426.428824 5.165582 425.638409 5.166369 424.824043 5.16718 C412.028937 5.18023 399.233871 5.203882 386.438789 5.231458 C373.308009 5.259522 360.17725 5.276178 347.046441 5.282265 C338.945257 5.28638 330.844188 5.299371 322.74304 5.323749 C316.529086 5.341495 310.31522 5.343363 304.101244 5.339323 C301.553531 5.340149 299.005815 5.34612 296.458128 5.357616 C292.979413 5.372545 289.501187 5.368952 286.022461 5.360764 C284.510763 5.373871 284.510763 5.373871 282.968526 5.387244 C276.951875 5.348972 272.505938 4.456818 267 2 C267 2.99 267 3.98 267 5 C233.308666 5.068632 199.617348 5.121511 165.92596 5.153196 C161.950477 5.156948 157.974994 5.160831 153.999512 5.164795 C153.208048 5.165582 152.416584 5.166369 151.601137 5.16718 C138.777463 5.180242 125.953829 5.2039 113.130178 5.231458 C99.976817 5.25949 86.823477 5.276172 73.670087 5.282265 C65.550466 5.286387 57.43096 5.299414 49.311374 5.323749 C43.090499 5.341447 36.86971 5.343371 30.648813 5.339323 C28.09297 5.340151 25.537123 5.346152 22.981306 5.357616 C19.501191 5.372466 16.021569 5.368981 12.541443 5.360764 C11.012268 5.373871 11.012268 5.373871 9.452201 5.387244 C8.521137 5.381271 7.590073 5.375298 6.630795 5.369143 C5.827306 5.370283 5.023818 5.371422 4.195982 5.372595 C1.475637 4.911031 0.064776 3.782749 -2 2 C-1.34 2 -0.68 2 0 2 C0 1.34 0 0.68 0 0 Z " fill="#665B53" transform="translate(140,78)"/>
<path d="M0 0 C194.7 0 389.4 0 590 0 C590 0.66 590 1.32 590 2 C588.486872 1.995581 588.486872 1.995581 586.943176 1.991074 C560.484387 1.922258 534.02847 2.037557 507.570574 2.235112 C505.044462 2.253924 502.518348 2.272487 499.992233 2.290966 C484.332515 2.405572 468.672818 2.522652 453.013184 2.648193 C445.186415 2.71091 437.359628 2.770019 429.532802 2.825056 C424.62706 2.859747 419.72138 2.898855 414.815699 2.941298 C411.796804 2.966347 408.77789 2.98715 405.758955 3.006706 C404.360462 3.016619 402.96198 3.02829 401.563517 3.04183 C399.660039 3.06001 397.756499 3.071339 395.852966 3.082291 C394.788502 3.090587 393.724037 3.098883 392.627316 3.10743 C390 3 390 3 387 2 C384.107653 1.902655 381.239637 1.863654 378.347168 1.870605 C377.448181 1.868873 376.549194 1.86714 375.622965 1.865355 C372.579354 1.860943 369.535799 1.863969 366.492188 1.867188 C364.290649 1.866211 362.089111 1.864915 359.887573 1.863327 C353.82498 1.860688 347.762411 1.865362 341.699821 1.871632 C337.882338 1.874994 334.06486 1.876172 330.247375 1.876678 C296.257802 1.883118 262.269984 2.026371 228.28125 2.261719 C226.517895 2.273838 224.75454 2.285956 222.991184 2.298073 C206.451172 2.412146 189.911214 2.531491 173.37138 2.669118 C166.783284 2.723847 160.195169 2.775466 153.607031 2.824855 C149.024864 2.859486 144.442766 2.898645 139.860668 2.941333 C136.416743 2.972147 132.972778 2.996428 129.528809 3.021729 C127.67434 3.041147 127.67434 3.041147 125.782408 3.060957 C124.660249 3.067997 123.538091 3.075037 122.381927 3.082291 C120.921606 3.094735 120.921606 3.094735 119.431784 3.10743 C117 3 117 3 114 2 C112.451827 1.910727 110.900064 1.878024 109.349319 1.879745 C108.394396 1.878371 107.439473 1.876996 106.455612 1.87558 C105.409765 1.879175 104.363917 1.88277 103.286377 1.886475 C102.183785 1.886329 101.081194 1.886183 99.94519 1.886032 C96.292868 1.88673 92.640595 1.894517 88.988281 1.902344 C86.459081 1.904208 83.929881 1.905632 81.400681 1.906631 C75.419013 1.910062 69.437368 1.917948 63.45571 1.927981 C56.645615 1.939156 49.835519 1.944656 43.025418 1.949676 C29.016935 1.960131 15.008469 1.977721 1 2 C0.67 1.34 0.34 0.68 0 0 Z " fill="#9B9892" transform="translate(202,2)"/>
<path d="M0 0 C0.757166 -0.000854 1.514332 -0.001709 2.294443 -0.002589 C4.844868 -0.004243 7.395229 0.001276 9.945648 0.006729 C11.76858 0.007011 13.591512 0.006853 15.414444 0.006287 C20.374921 0.005999 25.335374 0.011893 30.295846 0.018861 C35.475529 0.025097 40.655213 0.025698 45.8349 0.026886 C55.648603 0.029998 65.462295 0.038211 75.275994 0.048235 C86.446322 0.059399 97.61665 0.064908 108.786983 0.069931 C131.770053 0.080393 154.753114 0.097991 177.736176 0.120255 C178.066176 1.110255 178.396176 2.100255 178.736176 3.120255 C116.696176 3.120255 54.656176 3.120255 -9.263824 3.120255 C-9.263824 2.460255 -9.263824 1.800255 -9.263824 1.120255 C-6.289374 -0.366971 -3.260825 -0.013303 0 0 Z " fill="#959287" transform="translate(501.2638244628906,78.87974548339844)"/>
<path d="M0 0 C0.757166 -0.000854 1.514332 -0.001709 2.294443 -0.002589 C4.844868 -0.004243 7.395229 0.001276 9.945648 0.006729 C11.76858 0.007011 13.591512 0.006853 15.414444 0.006287 C20.374921 0.005999 25.335374 0.011893 30.295846 0.018861 C35.475529 0.025097 40.655213 0.025698 45.8349 0.026886 C55.648603 0.029998 65.462295 0.038211 75.275994 0.048235 C86.446322 0.059399 97.61665 0.064908 108.786983 0.069931 C131.770053 0.080393 154.753114 0.097991 177.736176 0.120255 C178.066176 1.110255 178.396176 2.100255 178.736176 3.120255 C116.696176 3.120255 54.656176 3.120255 -9.263824 3.120255 C-9.263824 2.460255 -9.263824 1.800255 -9.263824 1.120255 C-6.289374 -0.366971 -3.260825 -0.013303 0 0 Z " fill="#959287" transform="translate(228.26382446289063,78.87974548339844)"/>
<path d="M0 0 C34.98 0 69.96 0 106 0 C106 1.65 106 3.3 106 5 C92.5092 5.069452 79.018442 5.122787 65.5275 5.155437 C59.263386 5.171105 52.999395 5.192366 46.735352 5.226318 C40.692368 5.258869 34.649502 5.276844 28.606438 5.284632 C26.298705 5.290183 23.990979 5.301023 21.683296 5.31719 C18.455714 5.338907 15.22862 5.341969 12.000977 5.340576 C11.042881 5.351362 10.084785 5.362148 9.097656 5.37326 C8.217086 5.369137 7.336515 5.365013 6.42926 5.360764 C5.666016 5.363529 4.902771 5.366294 4.116398 5.369143 C1.448117 4.90374 0.03233 3.742526 -2 2 C-1.34 2 -0.68 2 0 2 C0 1.34 0 0.68 0 0 Z " fill="#685B54" transform="translate(686,78)"/>
<path d="M0 0 C18.525694 -0.023489 37.051384 -0.041057 55.577089 -0.051812 C64.181281 -0.056941 72.785463 -0.063919 81.389648 -0.075439 C88.899857 -0.08549 96.410059 -0.091878 103.920275 -0.094088 C107.887035 -0.095378 111.853776 -0.098351 115.82053 -0.10573 C132.904893 -0.136322 149.938366 -0.014302 167 1 C167 1.33 167 1.66 167 2 C160.475721 2.834274 154.123729 3.143699 147.550537 3.129395 C146.040249 3.132023 146.040249 3.132023 144.499451 3.134705 C141.175397 3.139095 137.851398 3.136186 134.527344 3.132812 C132.16655 3.133488 129.805755 3.134461 127.444962 3.135712 C122.47445 3.137187 117.503957 3.135048 112.533447 3.130371 C106.31856 3.124794 100.103716 3.127965 93.88883 3.133823 C62.246753 3.158906 30.631739 2.814765 -1 2 C-0.67 1.34 -0.34 0.68 0 0 Z " fill="#ABA7A0" transform="translate(604,31)"/>
<path d="M0 0 C18.525694 -0.023489 37.051384 -0.041057 55.577089 -0.051812 C64.181281 -0.056941 72.785463 -0.063919 81.389648 -0.075439 C88.899857 -0.08549 96.410059 -0.091878 103.920275 -0.094088 C107.887035 -0.095378 111.853776 -0.098351 115.82053 -0.10573 C132.904893 -0.136322 149.938366 -0.014302 167 1 C167 1.33 167 1.66 167 2 C160.475721 2.834274 154.123729 3.143699 147.550537 3.129395 C146.040249 3.132023 146.040249 3.132023 144.499451 3.134705 C141.175397 3.139095 137.851398 3.136186 134.527344 3.132812 C132.16655 3.133488 129.805755 3.134461 127.444962 3.135712 C122.47445 3.137187 117.503957 3.135048 112.533447 3.130371 C106.31856 3.124794 100.103716 3.127965 93.88883 3.133823 C62.246753 3.158906 30.631739 2.814765 -1 2 C-0.67 1.34 -0.34 0.68 0 0 Z " fill="#ABA7A0" transform="translate(331,31)"/>
<path d="M0 0 C18.525694 -0.023489 37.051384 -0.041057 55.577089 -0.051812 C64.181281 -0.056941 72.785463 -0.063919 81.389648 -0.075439 C88.899857 -0.08549 96.410059 -0.091878 103.920275 -0.094088 C107.887035 -0.095378 111.853776 -0.098351 115.82053 -0.10573 C132.904893 -0.136322 149.938366 -0.014302 167 1 C167 1.33 167 1.66 167 2 C160.475721 2.834274 154.123729 3.143699 147.550537 3.129395 C146.040249 3.132023 146.040249 3.132023 144.499451 3.134705 C141.175397 3.139095 137.851398 3.136186 134.527344 3.132812 C132.16655 3.133488 129.805755 3.134461 127.444962 3.135712 C122.47445 3.137187 117.503957 3.135048 112.533447 3.130371 C106.31856 3.124794 100.103716 3.127965 93.88883 3.133823 C62.246753 3.158906 30.631739 2.814765 -1 2 C-0.67 1.34 -0.34 0.68 0 0 Z " fill="#ABA7A0" transform="translate(58,31)"/>
<path d="M0 0 C43.89 0 87.78 0 133 0 C133.33 0.99 133.66 1.98 134 3 C89.78 3 45.56 3 0 3 C0 2.01 0 1.02 0 0 Z " fill="#959287" transform="translate(0,79)"/>
<path d="M0 0 C0.788015 -0.001375 1.57603 -0.002749 2.387924 -0.004166 C3.243162 -0.00057 4.098399 0.003025 4.979553 0.006729 C5.887219 0.006583 6.794886 0.006437 7.730057 0.006287 C10.727635 0.006983 13.72515 0.014761 16.722717 0.022598 C18.802083 0.024463 20.881449 0.025887 22.960815 0.026886 C28.431979 0.030703 33.903115 0.040526 39.374268 0.05159 C44.957862 0.061822 50.54146 0.066387 56.125061 0.071426 C67.0795 0.082149 78.033919 0.099216 88.988342 0.120255 C88.988342 1.110255 88.988342 2.100255 88.988342 3.120255 C76.636438 3.166519 64.284554 3.202094 51.932581 3.223879 C46.197556 3.234333 40.462591 3.248521 34.7276 3.271133 C29.196857 3.292805 23.66617 3.304811 18.135387 3.310009 C16.021388 3.313715 13.907391 3.320951 11.793415 3.331715 C8.840906 3.346154 5.888635 3.348236 2.936096 3.347305 C2.054967 3.354496 1.173837 3.361686 0.266006 3.369095 C-5.783553 3.348359 -5.783553 3.348359 -8.011658 1.120255 C-5.271603 0.348829 -2.843468 -0.003843 0 0 Z " fill="#A7A39B" transform="translate(511.01165771484375,30.879745483398438)"/>
<path d="M0 0 C0.788015 -0.001375 1.57603 -0.002749 2.387924 -0.004166 C3.243162 -0.00057 4.098399 0.003025 4.979553 0.006729 C5.887219 0.006583 6.794886 0.006437 7.730057 0.006287 C10.727635 0.006983 13.72515 0.014761 16.722717 0.022598 C18.802083 0.024463 20.881449 0.025887 22.960815 0.026886 C28.431979 0.030703 33.903115 0.040526 39.374268 0.05159 C44.957862 0.061822 50.54146 0.066387 56.125061 0.071426 C67.0795 0.082149 78.033919 0.099216 88.988342 0.120255 C88.988342 1.110255 88.988342 2.100255 88.988342 3.120255 C76.636438 3.166519 64.284554 3.202094 51.932581 3.223879 C46.197556 3.234333 40.462591 3.248521 34.7276 3.271133 C29.196857 3.292805 23.66617 3.304811 18.135387 3.310009 C16.021388 3.313715 13.907391 3.320951 11.793415 3.331715 C8.840906 3.346154 5.888635 3.348236 2.936096 3.347305 C2.054967 3.354496 1.173837 3.361686 0.266006 3.369095 C-5.783553 3.348359 -5.783553 3.348359 -8.011658 1.120255 C-5.271603 0.348829 -2.843468 -0.003843 0 0 Z " fill="#A7A39B" transform="translate(238.01165771484375,30.879745483398438)"/>
<path d="M0 0 C1.097715 -0.000219 1.097715 -0.000219 2.217606 -0.000443 C4.641682 0.000255 7.065683 0.008042 9.489746 0.015869 C11.168406 0.017734 12.847066 0.019157 14.525726 0.020157 C18.948054 0.023979 23.370349 0.033806 27.792664 0.044861 C32.303666 0.055083 36.814673 0.059656 41.325684 0.064697 C50.179865 0.075428 59.034021 0.092501 67.888184 0.113525 C67.888184 1.103525 67.888184 2.093525 67.888184 3.113525 C58.29161 3.159831 48.695075 3.195386 39.098414 3.21715 C34.642474 3.227595 30.18661 3.241766 25.730713 3.264404 C21.431896 3.286108 17.133152 3.298089 12.834284 3.30328 C11.192801 3.30698 9.551323 3.314206 7.909872 3.324986 C5.613735 3.339468 3.317904 3.341505 1.021729 3.340576 C-0.286212 3.345017 -1.594152 3.349459 -2.941727 3.354034 C-6.111816 3.113525 -6.111816 3.113525 -9.111816 1.113525 C-6.174736 -0.355015 -3.218379 -0.01667 0 0 Z " fill="#989288" transform="translate(693.11181640625,78.886474609375)"/>
<path d="M0 0 C1.097715 -0.000219 1.097715 -0.000219 2.217606 -0.000443 C4.641682 0.000255 7.065683 0.008042 9.489746 0.015869 C11.168406 0.017734 12.847066 0.019157 14.525726 0.020157 C18.948054 0.023979 23.370349 0.033806 27.792664 0.044861 C32.303666 0.055083 36.814673 0.059656 41.325684 0.064697 C50.179865 0.075428 59.034021 0.092501 67.888184 0.113525 C67.888184 1.103525 67.888184 2.093525 67.888184 3.113525 C58.29161 3.159831 48.695075 3.195386 39.098414 3.21715 C34.642474 3.227595 30.18661 3.241766 25.730713 3.264404 C21.431896 3.286108 17.133152 3.298089 12.834284 3.30328 C11.192801 3.30698 9.551323 3.314206 7.909872 3.324986 C5.613735 3.339468 3.317904 3.341505 1.021729 3.340576 C-0.286212 3.345017 -1.594152 3.349459 -2.941727 3.354034 C-6.111816 3.113525 -6.111816 3.113525 -9.111816 1.113525 C-6.174736 -0.355015 -3.218379 -0.01667 0 0 Z " fill="#989288" transform="translate(420.11181640625,78.886474609375)"/>
<path d="M0 0 C1.097715 -0.000219 1.097715 -0.000219 2.217606 -0.000443 C4.641682 0.000255 7.065683 0.008042 9.489746 0.015869 C11.168406 0.017734 12.847066 0.019157 14.525726 0.020157 C18.948054 0.023979 23.370349 0.033806 27.792664 0.044861 C32.303666 0.055083 36.814673 0.059656 41.325684 0.064697 C50.179865 0.075428 59.034021 0.092501 67.888184 0.113525 C67.888184 1.103525 67.888184 2.093525 67.888184 3.113525 C58.29161 3.159831 48.695075 3.195386 39.098414 3.21715 C34.642474 3.227595 30.18661 3.241766 25.730713 3.264404 C21.431896 3.286108 17.133152 3.298089 12.834284 3.30328 C11.192801 3.30698 9.551323 3.314206 7.909872 3.324986 C5.613735 3.339468 3.317904 3.341505 1.021729 3.340576 C-0.286212 3.345017 -1.594152 3.349459 -2.941727 3.354034 C-6.111816 3.113525 -6.111816 3.113525 -9.111816 1.113525 C-6.174736 -0.355015 -3.218379 -0.01667 0 0 Z " fill="#989288" transform="translate(147.11181640625,78.886474609375)"/>
<path d="M0 0 C0.99 0 1.98 0 3 0 C4.254971 3.764912 4.106616 7.272065 4.0625 11.1875 C4.041875 13.765625 4.02125 16.34375 4 19 C-2.27 19 -8.54 19 -15 19 C-13.332186 12.328743 -8.918028 8.912771 -3.804688 4.648438 C-1.782277 2.933677 -1.782277 2.933677 0 0 Z " fill="#959591" transform="translate(765,39)"/>
<path d="M0 0 C0.99 0 1.98 0 3 0 C4.254971 3.764912 4.106616 7.272065 4.0625 11.1875 C4.041875 13.765625 4.02125 16.34375 4 19 C-2.27 19 -8.54 19 -15 19 C-13.332186 12.328743 -8.918028 8.912771 -3.804688 4.648438 C-1.782277 2.933677 -1.782277 2.933677 0 0 Z " fill="#959591" transform="translate(492,39)"/>
<path d="M0 0 C0.99 0 1.98 0 3 0 C4.254971 3.764912 4.106616 7.272065 4.0625 11.1875 C4.041875 13.765625 4.02125 16.34375 4 19 C-2.27 19 -8.54 19 -15 19 C-13.332186 12.328743 -8.918028 8.912771 -3.804688 4.648438 C-1.782277 2.933677 -1.782277 2.933677 0 0 Z " fill="#959591" transform="translate(219,39)"/>
<path d="M0 0 C0.99 0.33 1.98 0.66 3 1 C3.026847 3.6459 3.046764 6.291531 3.0625 8.9375 C3.070879 9.692246 3.079258 10.446992 3.087891 11.224609 C3.096524 13.149943 3.052243 15.075356 3 17 C1.143656 18.856344 -1.828299 18.173684 -4.3125 18.1875 C-5.463633 18.20168 -6.614766 18.215859 -7.800781 18.230469 C-10.824122 18.01267 -12.465659 17.583181 -15 16 C-11.727329 11.265312 -9.103958 7.820608 -4 5 C-1.724623 2.428167 -1.724623 2.428167 0 0 Z " fill="#9E9D99" transform="translate(675,40)"/>
<path d="M0 0 C0.99 0.33 1.98 0.66 3 1 C3.026847 3.6459 3.046764 6.291531 3.0625 8.9375 C3.070879 9.692246 3.079258 10.446992 3.087891 11.224609 C3.096524 13.149943 3.052243 15.075356 3 17 C1.143656 18.856344 -1.828299 18.173684 -4.3125 18.1875 C-5.463633 18.20168 -6.614766 18.215859 -7.800781 18.230469 C-10.824122 18.01267 -12.465659 17.583181 -15 16 C-11.727329 11.265312 -9.103958 7.820608 -4 5 C-1.724623 2.428167 -1.724623 2.428167 0 0 Z " fill="#9E9D99" transform="translate(402,40)"/>
<path d="M0 0 C0.99 0.33 1.98 0.66 3 1 C3.026847 3.6459 3.046764 6.291531 3.0625 8.9375 C3.070879 9.692246 3.079258 10.446992 3.087891 11.224609 C3.096524 13.149943 3.052243 15.075356 3 17 C1.143656 18.856344 -1.828299 18.173684 -4.3125 18.1875 C-5.463633 18.20168 -6.614766 18.215859 -7.800781 18.230469 C-10.824122 18.01267 -12.465659 17.583181 -15 16 C-11.727329 11.265312 -9.103958 7.820608 -4 5 C-1.724623 2.428167 -1.724623 2.428167 0 0 Z " fill="#9E9D99" transform="translate(129,40)"/>
<path d="M0 0 C0.99 0 1.98 0 3 0 C3.026847 2.6459 3.046764 5.291531 3.0625 7.9375 C3.070879 8.692246 3.079258 9.446992 3.087891 10.224609 C3.096524 12.149943 3.052243 14.075356 3 16 C2 17 2 17 -1.597656 17.097656 C-3.085969 17.090982 -4.574264 17.079022 -6.0625 17.0625 C-6.821113 17.057988 -7.579727 17.053477 -8.361328 17.048828 C-10.240919 17.037007 -12.120469 17.019071 -14 17 C-12.400696 12.958644 -9.513396 10.320928 -6.4375 7.375 C-2.77286 4.035971 -2.77286 4.035971 0 0 Z " fill="#A4A3A1" transform="translate(585,41)"/>
<path d="M0 0 C0.99 0 1.98 0 3 0 C3.026847 2.6459 3.046764 5.291531 3.0625 7.9375 C3.070879 8.692246 3.079258 9.446992 3.087891 10.224609 C3.096524 12.149943 3.052243 14.075356 3 16 C2 17 2 17 -1.597656 17.097656 C-3.085969 17.090982 -4.574264 17.079022 -6.0625 17.0625 C-6.821113 17.057988 -7.579727 17.053477 -8.361328 17.048828 C-10.240919 17.037007 -12.120469 17.019071 -14 17 C-12.400696 12.958644 -9.513396 10.320928 -6.4375 7.375 C-2.77286 4.035971 -2.77286 4.035971 0 0 Z " fill="#A4A3A1" transform="translate(312,41)"/>
<path d="M0 0 C0.99 0 1.98 0 3 0 C3.026847 2.6459 3.046764 5.291531 3.0625 7.9375 C3.070879 8.692246 3.079258 9.446992 3.087891 10.224609 C3.096524 12.149943 3.052243 14.075356 3 16 C2 17 2 17 -1.597656 17.097656 C-3.085969 17.090982 -4.574264 17.079022 -6.0625 17.0625 C-6.821113 17.057988 -7.579727 17.053477 -8.361328 17.048828 C-10.240919 17.037007 -12.120469 17.019071 -14 17 C-12.400696 12.958644 -9.513396 10.320928 -6.4375 7.375 C-2.77286 4.035971 -2.77286 4.035971 0 0 Z " fill="#A4A3A1" transform="translate(39,41)"/>
<path d="M0 0 C17.82 0 35.64 0 54 0 C54 0.99 54 1.98 54 3 C36.18 3 18.36 3 0 3 C0 2.01 0 1.02 0 0 Z " fill="#B0ACA3" transform="translate(0,31)"/>
<path d="M0 0 C0.937219 -0.000146 1.874438 -0.000292 2.840057 -0.000443 C5.924157 0.000252 9.008196 0.008021 12.092285 0.015869 C14.236053 0.017735 16.379822 0.019158 18.52359 0.020157 C24.155835 0.023968 29.788054 0.033787 35.420288 0.044861 C41.171627 0.055105 46.922971 0.059661 52.674316 0.064697 C63.951672 0.07541 75.229007 0.09247 86.506348 0.113525 C86.176348 0.773525 85.846348 1.433525 85.506348 2.113525 C83.765343 2.110194 83.765343 2.110194 81.989166 2.106796 C71.070411 2.086557 60.151659 2.071549 49.232889 2.061713 C43.618956 2.056486 38.005038 2.049393 32.391113 2.038086 C26.977084 2.02725 21.563068 2.021247 16.149029 2.018648 C14.079693 2.016795 12.010358 2.013177 9.941029 2.007795 C7.050837 2.000575 4.160707 1.999535 1.270508 2 C0.40808 1.996405 -0.454348 1.992809 -1.342911 1.989105 C-5.552074 1.878649 -5.552074 1.878649 -9.493652 3.113525 C1.726348 3.443525 12.946348 3.773525 24.506348 4.113525 C24.506348 4.443525 24.506348 4.773525 24.506348 5.113525 C19.131199 5.16288 13.756181 5.199223 8.380859 5.223389 C6.551409 5.23346 4.721975 5.247118 2.892578 5.264404 C0.266398 5.288602 -2.359569 5.299997 -4.98584 5.308838 C-6.217161 5.324322 -6.217161 5.324322 -7.473358 5.340118 C-9.481544 5.340517 -11.489206 5.236021 -13.493652 5.113525 C-14.153652 4.453525 -14.813652 3.793525 -15.493652 3.113525 C-15.493652 2.453525 -15.493652 1.793525 -15.493652 1.113525 C-10.284112 0.046561 -5.289512 -0.021707 0 0 Z " fill="#6B6760" transform="translate(241.49365234375,29.886474609375)"/>
<path d="M0 0 C0 1.65 0 3.3 0 5 C-10.055982 5.10056 -19.987071 5.099459 -30 4 C-30 3.67 -30 3.34 -30 3 C-34.29 2.67 -38.58 2.34 -43 2 C-43 1.67 -43 1.34 -43 1 C-39.126419 0.854266 -35.252724 0.712052 -31.378906 0.572754 C-29.432227 0.502078 -27.485643 0.428812 -25.539062 0.355469 C-17.018964 0.05118 -8.52499 -0.059419 0 0 Z " fill="#827E77" transform="translate(792,30)"/>
<path d="M0 0 C1.121484 0.003223 2.242969 0.006445 3.398438 0.009766 C4.574062 0.018145 5.749688 0.026523 6.960938 0.035156 C8.144297 0.039668 9.327656 0.04418 10.546875 0.048828 C13.476613 0.060642 16.40625 0.077114 19.335938 0.097656 C19.335938 1.087656 19.335938 2.077656 19.335938 3.097656 C10.425938 3.097656 1.515937 3.097656 -7.664062 3.097656 C-7.664062 2.437656 -7.664062 1.777656 -7.664062 1.097656 C-5.00228 -0.233235 -2.976669 -0.015034 0 0 Z " fill="#959189" transform="translate(772.6640625,78.90234375)"/>
<path d="M0 0 C1.16781 0.005237 2.33562 0.010474 3.538818 0.015869 C4.798877 0.019092 6.058936 0.022314 7.357178 0.025635 C8.697673 0.033991 10.038168 0.042456 11.378662 0.051025 C12.723062 0.056039 14.067463 0.060602 15.411865 0.064697 C18.713342 0.076531 22.01473 0.093016 25.316162 0.113525 C25.316162 0.443525 25.316162 0.773525 25.316162 1.113525 C11.951162 1.608525 11.951162 1.608525 -1.683838 2.113525 C-1.683838 2.773525 -1.683838 3.433525 -1.683838 4.113525 C7.226162 4.113525 16.136162 4.113525 25.316162 4.113525 C25.316162 4.443525 25.316162 4.773525 25.316162 5.113525 C16.076162 5.113525 6.836162 5.113525 -2.683838 5.113525 C-3.013838 3.793525 -3.343838 2.473525 -3.683838 1.113525 C-2.683838 0.113525 -2.683838 0.113525 0 0 Z " fill="#655A54" transform="translate(766.683837890625,77.886474609375)"/>
</svg>
